<?xml version="1.0" encoding="UTF-8" standalone="no"?>
<svg
   version="1.0"
   width="1172.000000pt"
   height="1168.000000pt"
   viewBox="0 0 1172.000000 1168.000000"
   preserveAspectRatio="xMidYMid meet"
   id="svg8"
   sodipodi:docname="ffd06ba8e1ce54554c37f2d2fa37c99b.svg"
   xmlns:inkscape="http://www.inkscape.org/namespaces/inkscape"
   xmlns:sodipodi="http://sodipodi.sourceforge.net/DTD/sodipodi-0.dtd"
   xmlns="http://www.w3.org/2000/svg"
   xmlns:svg="http://www.w3.org/2000/svg">
  <defs
     id="defs12" />
  <sodipodi:namedview
     id="namedview10"
     pagecolor="#ffffff"
     bordercolor="#666666"
     borderopacity="1.0"
     inkscape:pageshadow="2"
     inkscape:pageopacity="0.0"
     inkscape:pagecheckerboard="0"
     inkscape:document-units="pt" />
  <metadata
     id="metadata2">
Created by potrace 1.16, written by Peter Selinger 2001-2019
</metadata>
  <g
     transform="translate(0.000000,1168.000000) scale(0.100000,-0.100000)"
     fill="#000000"
     stroke="none"
     id="g6">
    <path
       d="M6470 9714 c-517 -69 -942 -272 -1322 -633 -297 -283 -511 -648 -626 -1068 -38 -137 -58 -259 -73 -446 -29 -347 45 -754 199 -1090 123 -270 291 -508 500 -708 172 -165 325 -274 553 -397 l96 -52 7 963 c4 530 5 1010 1 1068 -16 241 58 478 205 664 137 172 332 292 545 336 85 18 162 19 1398 19 l1307 0 0 680 0 680 -1342 -1 c-1089 -1 -1363 -4 -1448 -15z"
       id="path4" />
  </g>
</svg>
