<?xml version="1.0" encoding="UTF-8"?>
<svg version="1.1" xmlns="http://www.w3.org/2000/svg" width="1172" height="1168">
<path d="M0 0 C386.76 0 773.52 0 1172 0 C1172 385.44 1172 770.88 1172 1168 C785.24 1168 398.48 1168 0 1168 C0 782.56 0 397.12 0 0 Z " fill="#FEFEFE" transform="translate(0,0)"/>
<path d="M0 0 C0.96042353 -0.00199105 1.92084707 -0.0039821 2.91037434 -0.00603348 C3.96775565 -0.00312064 5.02513696 -0.0002078 6.11456013 0.00279331 C7.23601675 0.00193889 8.35747337 0.00108446 9.51291353 0.00020415 C13.29016397 -0.00144975 17.0673705 0.00406929 20.84461689 0.00952244 C23.54453275 0.01036044 26.24444773 0.00969057 28.94436359 0.00907993 C34.76710373 0.00855509 40.58983268 0.01169775 46.41257 0.01731777 C54.83131327 0.02543814 63.25005112 0.02804854 71.66879789 0.02930576 C85.32701667 0.03149544 98.98522948 0.03815323 112.64344501 0.04760838 C125.91265044 0.05678468 139.18185425 0.06385298 152.4510622 0.06811619 C153.69004996 0.06851818 153.69004996 0.06851818 154.95406777 0.0689283 C161.41368084 0.07100767 167.87329395 0.07296461 174.33290708 0.07488286 C206.00584252 0.08431984 237.67876303 0.10443737 269.35169697 0.12304783 C269.35169697 45.00304783 269.35169697 89.88304783 269.35169697 136.12304783 C241.18697041 136.1617197 241.18697041 136.1617197 212.45325947 136.20117283 C200.54960394 136.22634267 188.64596257 136.25249012 176.74232197 136.28320408 C170.48646333 136.29929417 164.23060414 136.31513737 157.97474384 136.33056736 C157.19077142 136.3325113 156.406799 136.33445524 155.59906983 136.33645809 C142.97459242 136.36740242 130.35013316 136.38443193 117.72562499 136.39624205 C104.75068427 136.40869273 91.77583808 136.43628191 78.80095708 136.47766089 C70.80729645 136.50268476 62.81379278 136.51617329 54.82009242 136.5144774 C48.67036616 136.51444387 42.52087055 136.53556466 36.37121487 136.56421566 C33.8632 136.57267741 31.35515167 136.57449018 28.84712887 136.56885052 C-1.25047007 136.51022907 -25.74601859 142.65748317 -48.23424053 163.60742283 C-55.18401118 170.84957865 -61.33993827 179.03738065 -65.64830303 188.12304783 C-66.15103741 189.16976658 -66.65377178 190.21648533 -67.17174053 191.29492283 C-76.69390719 212.19723988 -78.8512863 239.51704399 -70.81773663 261.38379002 C-67.37988228 270.12591572 -63.49583635 278.71793228 -57.64830303 286.12304783 C-56.49781475 287.62545017 -56.49781475 287.62545017 -55.32408428 289.15820408 C-40.12976606 308.40661807 -18.90798278 320.40115265 5.35169697 324.12304783 C9.09607649 324.39042849 12.8238177 324.40879552 16.57670307 324.40152073 C17.66330514 324.40731313 18.74990721 324.41310553 19.86943662 324.41907346 C23.48676369 324.43599055 27.10396253 324.43894283 30.72132587 324.44189548 C33.32375619 324.45119937 35.92618353 324.46136873 38.52860737 324.47233677 C44.11930651 324.49453919 49.70998757 324.50959451 55.30072117 324.51970387 C63.38383432 324.5343305 71.46688442 324.55987832 79.54996042 324.58803515 C92.66631028 324.63343099 105.78266926 324.67007549 118.89906025 324.70117283 C131.63540466 324.73138796 144.37172669 324.76577431 157.10804462 324.80566502 C158.29895586 324.80938728 158.29895586 324.80938728 159.51392591 324.81318474 C165.723676 324.8326261 171.93342532 324.85230827 178.14317441 324.8720665 C208.54598803 324.96874081 238.94882096 325.04442327 269.35169697 325.12304783 C269.35169697 370.00304783 269.35169697 414.88304783 269.35169697 461.12304783 C202.72430831 461.28437322 202.72430831 461.28437322 174.74232197 461.31836033 C168.33932676 461.32618985 161.93633194 461.33427122 155.53333759 461.34277439 C154.73101011 461.34382939 153.92868263 461.34488438 153.1020422 461.34597135 C140.20949471 461.36328999 127.31701979 461.39478103 114.4245151 461.43165901 C101.15803884 461.46928551 87.89160013 461.49132911 74.62507272 461.49940181 C66.46248867 461.50484502 58.30010978 461.52192924 50.13758901 461.5547137 C44.51300138 461.5761309 38.88851719 461.5821877 33.26389191 461.57705334 C30.03604181 461.57453291 26.80861232 461.58023343 23.5808115 461.59986973 C1.37279344 461.72816044 -20.98786833 460.04006405 -42.39830303 453.74804783 C-43.45630108 453.45059666 -44.51429913 453.15314548 -45.60435772 452.84668064 C-56.32401438 449.76850032 -66.67906747 446.15805039 -76.64830303 441.12304783 C-76.63441553 457.07578585 -76.59180027 473.0281822 -76.51621246 488.98073292 C-76.4817543 496.39002018 -76.45623241 503.7991251 -76.45274639 511.20849705 C-76.44967949 517.6765349 -76.42882909 524.14424643 -76.38777846 530.61215854 C-76.36668993 534.0278897 -76.35372029 537.44315992 -76.36214924 540.85895634 C-76.38846437 561.17974823 -74.70901974 579.64895178 -65.64830303 598.12304783 C-65.19713116 599.05246189 -64.74595928 599.98187595 -64.28111553 600.93945408 C-52.76226837 623.32337599 -32.64535613 638.66307217 -9.02330303 646.37304783 C-0.3207345 649.10238809 8.40327551 649.27242004 17.45644855 649.28126621 C19.08507003 649.28867318 19.08507003 649.28867318 20.74659294 649.29622978 C24.36699399 649.3115282 27.98737741 649.31994457 31.60780048 649.32837009 C34.21008171 649.33795464 36.81236139 649.34796506 39.41463947 649.35836887 C45.00808262 649.3800613 50.60152817 649.39823198 56.19499111 649.41397381 C64.28208266 649.43673866 72.36914861 649.4648721 80.45621835 649.49429309 C93.5786745 649.54188818 106.70114115 649.58517411 119.8236208 649.62573338 C132.56679317 649.66512953 145.30995618 649.70657663 158.05311298 649.75073338 C158.84732181 649.75348288 159.64153063 649.75623239 160.45980638 649.75906521 C166.67154106 649.78058584 172.88327532 649.80222497 179.09500945 649.82390153 C209.51388637 649.9300214 239.93278785 650.02580994 270.35169697 650.12304783 C270.35169697 695.33304783 270.35169697 740.54304783 270.35169697 787.12304783 C206.66401553 787.16337918 206.66401553 787.16337918 179.97279072 787.17187595 C173.86455501 787.1738335 167.75631934 787.17585389 161.64808369 787.17797947 C160.49990671 787.17837509 160.49990671 787.17837509 159.32853425 787.17877871 C147.00927467 787.18311494 134.69001982 787.19099146 122.37076303 787.20020062 C109.70548776 787.20958871 97.04021495 787.2151143 84.37493634 787.21713632 C76.57478441 787.21850089 68.77464582 787.2227932 60.974498 787.2309643 C54.96933655 787.23693036 48.96418631 787.23749385 42.95902157 787.23615551 C40.51310933 787.23642832 38.06719654 787.23838632 35.62128735 787.2422533 C-1.79040077 787.29844889 -1.79040077 787.29844889 -16.64830303 784.87304783 C-17.4625877 784.74373875 -18.27687237 784.61442966 -19.11583233 784.48120213 C-57.36791993 778.09790107 -93.30506804 762.26570872 -123.64830303 738.12304783 C-125.04435772 737.01509861 -125.04435772 737.01509861 -126.46861553 735.88476658 C-129.22386953 733.66291134 -131.94405287 731.40663685 -134.64830303 729.12304783 C-135.44623272 728.4501572 -136.24416241 727.77726658 -137.06627178 727.08398533 C-164.6729337 703.03511507 -184.51080474 671.60842553 -197.64537334 637.68383884 C-198.31490443 635.97431803 -199.0018727 634.27152604 -199.70592022 632.57592869 C-202.00748805 627.02170081 -203.78490853 621.53978264 -205.14830303 615.68554783 C-205.35551983 614.8088242 -205.56273663 613.93210056 -205.77623272 613.02880955 C-208.23993303 602.14966735 -209.74648704 591.10888577 -211.24693584 580.06298923 C-211.50910721 578.1426318 -211.81335193 576.2274246 -212.16461086 574.32134914 C-213.02208145 568.26118326 -212.79310715 562.11698641 -212.78874493 556.01028538 C-212.791331 554.56188118 -212.79434484 553.11347769 -212.79774833 551.66507518 C-212.80579424 547.69299525 -212.80760657 543.72093341 -212.80834579 539.74884629 C-212.81020075 535.46078431 -212.81775071 531.17273161 -212.82448101 526.88467503 C-212.83805164 517.50767822 -212.84408817 508.1306857 -212.84849167 498.75368071 C-212.85125841 492.88909948 -212.85549676 487.02451989 -212.85999584 481.15993977 C-212.87219096 464.89856984 -212.88248712 448.63720123 -212.88587093 432.37582684 C-212.8860905 431.33532735 -212.88631007 430.29482787 -212.88653629 429.2227981 C-212.88675456 428.1798897 -212.88697284 427.13698129 -212.88719773 426.0624696 C-212.88764119 423.94936156 -212.88808775 421.83625352 -212.88853741 419.72314548 C-212.88875884 418.67498413 -212.88898027 417.62682277 -212.88920841 416.54689895 C-212.89314758 399.60251424 -212.91057352 382.65817277 -212.93389693 365.71380474 C-212.95769128 348.28527945 -212.97007659 330.85677576 -212.97123885 313.42823398 C-212.97215153 303.65603175 -212.97779951 293.88388573 -212.99605846 284.1116991 C-213.0115695 275.78107339 -213.01651612 267.45052123 -213.00832036 259.11988379 C-213.00445125 254.87982465 -213.00515652 250.63991312 -213.01937771 246.39987278 C-213.09780991 221.56043676 -211.9852052 197.28036181 -205.64830303 173.12304783 C-205.38195049 172.08905857 -205.38195049 172.08905857 -205.11021709 171.03418064 C-190.24171541 114.2900414 -151.82249955 62.89693264 -101.52989483 32.65600681 C-74.14390684 16.76757858 -44.51455923 5.26477224 -12.88902569 1.76904392 C-8.45557415 1.27470236 -4.46371627 -0.00203916 0 0 Z " fill="#5DCA84" transform="translate(656.6483030319214,194.87695217132568)"/>
<path d="M0 0 C0.96042353 -0.00199105 1.92084707 -0.0039821 2.91037434 -0.00603348 C3.96775565 -0.00312064 5.02513696 -0.0002078 6.11456013 0.00279331 C7.23601675 0.00193889 8.35747337 0.00108446 9.51291353 0.00020415 C13.29016397 -0.00144975 17.0673705 0.00406929 20.84461689 0.00952244 C23.54453275 0.01036044 26.24444773 0.00969057 28.94436359 0.00907993 C34.76710373 0.00855509 40.58983268 0.01169775 46.41257 0.01731777 C54.83131327 0.02543814 63.25005112 0.02804854 71.66879789 0.02930576 C85.32701667 0.03149544 98.98522948 0.03815323 112.64344501 0.04760838 C125.91265044 0.05678468 139.18185425 0.06385298 152.4510622 0.06811619 C153.69004996 0.06851818 153.69004996 0.06851818 154.95406777 0.0689283 C161.41368084 0.07100767 167.87329395 0.07296461 174.33290708 0.07488286 C206.00584252 0.08431984 237.67876303 0.10443737 269.35169697 0.12304783 C269.35169697 45.00304783 269.35169697 89.88304783 269.35169697 136.12304783 C241.18697041 136.1617197 241.18697041 136.1617197 212.45325947 136.20117283 C200.54960394 136.22634267 188.64596257 136.25249012 176.74232197 136.28320408 C170.48646333 136.29929417 164.23060414 136.31513737 157.97474384 136.33056736 C157.19077142 136.3325113 156.406799 136.33445524 155.59906983 136.33645809 C142.97459242 136.36740242 130.35013316 136.38443193 117.72562499 136.39624205 C104.75068427 136.40869273 91.77583808 136.43628191 78.80095708 136.47766089 C70.80729645 136.50268476 62.81379278 136.51617329 54.82009242 136.5144774 C48.67036616 136.51444387 42.52087055 136.53556466 36.37121487 136.56421566 C33.8632 136.57267741 31.35515167 136.57449018 28.84712887 136.56885052 C-1.25047007 136.51022907 -25.74601859 142.65748317 -48.23424053 163.60742283 C-55.18754319 170.85325925 -61.32743328 179.03889845 -65.64830303 188.12304783 C-66.13943584 189.12336033 -66.63056866 190.12367283 -67.13658428 191.15429783 C-74.84074764 207.82434856 -76.24329108 224.19927234 -76.19420147 242.36181736 C-76.20295764 244.53193997 -76.21345045 246.70205615 -76.22552776 248.87216282 C-76.25315804 254.70567395 -76.25679756 260.53897202 -76.25580788 266.37253904 C-76.25895689 272.49042164 -76.28461615 278.60821104 -76.3077879 284.72604465 C-76.34819994 296.28521576 -76.3686537 307.84433066 -76.38176179 319.40356147 C-76.39768216 332.57427426 -76.43611882 345.74489208 -76.47635508 358.91554952 C-76.55855139 385.98468367 -76.61276988 413.05381501 -76.64830303 440.12304783 C-90.46013894 435.58715943 -102.85334629 427.48941606 -114.64830303 419.12304783 C-115.28590557 418.67622654 -115.92350811 418.22940525 -116.58043194 417.76904392 C-127.84415829 409.82361864 -137.82448444 400.7720744 -147.64830303 391.12304783 C-148.2654417 390.52347263 -148.88258038 389.92389744 -149.51842022 389.3061533 C-153.20960717 385.68184291 -156.60341267 381.96029549 -159.77330303 377.87304783 C-160.23212872 377.28297947 -160.6909544 376.69291111 -161.16368389 376.08496189 C-194.24608283 332.96533318 -211.77495096 284.19683519 -211.88853741 229.86938572 C-211.89820168 227.08969805 -211.92930991 224.31076504 -211.96080303 221.53125095 C-212.06648967 204.03725412 -209.77587828 187.44601495 -204.96080303 170.62304783 C-204.61340069 169.39110691 -204.26599834 168.15916599 -203.90806866 166.88989353 C-187.47206171 110.07091367 -148.54609158 59.21763762 -96.87022686 29.98657322 C-70.64937401 15.57092019 -42.7870792 5.07382523 -12.88902569 1.76904392 C-8.45557415 1.27470236 -4.46371627 -0.00203916 0 0 Z " fill="#0E2C2D" transform="translate(656.6483030319214,194.87695217132568)"/>
<path d="M0 0 C0.33 0 0.66 0 1 0 C1.01458252 0.61294922 1.02916504 1.22589844 1.04418945 1.85742188 C1.65886804 25.08923181 4.08541988 47.11268747 19 66 C19.76699219 67.00160156 20.53398438 68.00320313 21.32421875 69.03515625 C36.51853697 88.28357024 57.74032025 100.27810482 82 104 C85.74437952 104.26738066 89.47212074 104.28574769 93.2250061 104.2784729 C94.31160818 104.2842653 95.39821025 104.2900577 96.51773965 104.29602563 C100.13506672 104.31294272 103.75226557 104.31589501 107.36962891 104.31884766 C109.97205922 104.32815154 112.57448657 104.3383209 115.1769104 104.34928894 C120.76760955 104.37149137 126.3582906 104.38654668 131.9490242 104.39665604 C140.03213735 104.41128267 148.11518745 104.4368305 156.19826345 104.46498732 C169.31461331 104.51038316 182.43097229 104.54702766 195.54736328 104.578125 C208.28370769 104.60834013 221.02002973 104.64272648 233.75634766 104.68261719 C234.94725889 104.68633945 234.94725889 104.68633945 236.16222894 104.69013691 C242.37197903 104.70957827 248.58172835 104.72926044 254.79147744 104.74901867 C285.19429106 104.84569298 315.59712399 104.92137544 346 105 C346 149.88 346 194.76 346 241 C279.37261134 241.1613254 279.37261134 241.1613254 251.390625 241.1953125 C244.98762979 241.20314203 238.58463498 241.21122339 232.18164062 241.21972656 C231.37931314 241.22078156 230.57698566 241.22183655 229.75034523 241.22292352 C216.85779774 241.24024216 203.96532283 241.2717332 191.07281813 241.30861118 C177.80634187 241.34623769 164.53990317 241.36828128 151.27337575 241.37635398 C143.1107917 241.38179719 134.94841281 241.39888141 126.78589204 241.43166587 C121.16130441 241.45308307 115.53682022 241.45913987 109.91219494 241.45400551 C106.68434484 241.45148508 103.45691535 241.4571856 100.22911453 241.4768219 C78.02109647 241.60511261 55.6604347 239.91701622 34.25 233.625 C33.19200195 233.32754883 32.13400391 233.03009766 31.04394531 232.72363281 C20.30486189 229.63987404 10.00769748 226.00384874 0 221 C0 148.07 0 75.14 0 0 Z " fill="#EE7F31" transform="translate(580,415)"/>
<path d="M0 0 C14.04683774 11.22335277 24.71221375 26.60654346 27.671875 44.609375 C28.75338126 56.61001328 28.82356304 69.17775027 24.671875 80.609375 C24.36443359 81.6303125 24.36443359 81.6303125 24.05078125 82.671875 C18.80564668 98.83079889 5.90130365 113.70438248 -9.10839844 121.53857422 C-20.20868736 127.13363639 -29.53928985 129.9450618 -42.078125 129.859375 C-43.19445312 129.86710938 -44.31078125 129.87484375 -45.4609375 129.8828125 C-65.51800444 129.83605943 -81.4723017 123.08989532 -96.078125 109.296875 C-100.65591021 104.53140876 -104.07593083 99.34165968 -107.328125 93.609375 C-107.87597656 92.67222656 -108.42382812 91.73507812 -108.98828125 90.76953125 C-115.02423876 79.72091124 -116.5606053 68.5634971 -116.640625 56.171875 C-116.64626465 55.34365234 -116.6519043 54.51542969 -116.65771484 53.66210938 C-116.42717888 34.26582969 -106.83754802 17.4327201 -93.32495117 4.1328125 C-85.70858826 -3.07586456 -77.28128605 -8.09830833 -67.328125 -11.390625 C-66.49667969 -11.6896875 -65.66523438 -11.98875 -64.80859375 -12.296875 C-42.58300118 -19.16486927 -18.38224448 -13.59451533 0 0 Z " fill="#EF7F31" transform="translate(350.328125,194.390625)"/>
</svg>
