<?xml version="1.0" encoding="UTF-8"?>
<svg version="1.1" xmlns="http://www.w3.org/2000/svg" width="500" height="499">
<path d="M0 0 C0.94741058 -0.00029205 1.89482117 -0.00058411 2.87094116 -0.00088501 C5.97126751 0.00049719 9.07134702 0.01600575 12.17163086 0.03173828 C14.33353036 0.03547236 16.49543157 0.03831747 18.65733337 0.04031372 C24.32409405 0.04791907 29.99075083 0.06754078 35.6574707 0.08972168 C42.46911218 0.11386118 49.28078855 0.12297585 56.09246063 0.1346283 C66.41970403 0.15396708 76.74671984 0.19231137 87.07397461 0.22705078 C87.07397461 16.06705078 87.07397461 31.90705078 87.07397461 48.22705078 C80.53713867 48.26443359 74.00030273 48.30181641 67.26538086 48.34033203 C63.11366224 48.37062318 58.9619859 48.4017786 54.81030273 48.43603516 C48.2267474 48.49027575 41.6432757 48.54138922 35.05957031 48.57348633 C29.74909919 48.59957687 24.43891028 48.64002011 19.12861443 48.69023705 C17.10696878 48.70686687 15.08527437 48.71840526 13.06357002 48.72466469 C10.22242063 48.73434806 7.38198696 48.76245783 4.54101562 48.79467773 C3.71310516 48.79324265 2.8851947 48.79180756 2.03219604 48.79032898 C-5.33790086 48.90782471 -12.17565704 50.39674137 -17.92602539 55.22705078 C-18.58602539 55.22705078 -19.24602539 55.22705078 -19.92602539 55.22705078 C-20.17352539 55.78392578 -20.42102539 56.34080078 -20.67602539 56.91455078 C-21.92602539 59.22705078 -21.92602539 59.22705078 -23.86352539 61.47705078 C-28.55934356 67.73814167 -30.43357392 75.48693572 -29.92602539 83.22705078 C-27.85130812 92.31006499 -23.60181606 99.8088456 -15.92602539 105.22705078 C-8.46046912 109.65551702 -1.62522675 110.37166725 6.92504883 110.43237305 C7.79399277 110.44227264 8.66293671 110.45217224 9.55821228 110.46237183 C12.41500168 110.49382367 15.27180768 110.51867941 18.12866211 110.54345703 C20.11549295 110.56404066 22.10231955 110.5850375 24.08914185 110.60643005 C29.30705318 110.6615052 34.52500308 110.71097844 39.74298096 110.75927734 C45.0720969 110.80959892 50.40115716 110.86522926 55.73022461 110.92041016 C66.17809365 111.02781357 76.62601113 111.12929781 87.07397461 111.22705078 C87.09924406 117.90225419 87.11680729 124.57744535 87.12890625 131.25268555 C87.13394786 133.52547669 87.14078098 135.79826458 87.14941406 138.07104492 C87.16148722 141.33008629 87.16720448 144.58908495 87.17163086 147.84814453 C87.17679214 148.87105087 87.18195343 149.89395721 87.18727112 150.94786072 C87.18734665 151.88876053 87.18742218 152.82966034 87.1875 153.79907227 C87.18972061 154.63180161 87.19194122 155.46453094 87.19422913 156.32249451 C87.07397461 158.22705078 87.07397461 158.22705078 86.07397461 159.22705078 C83.34811656 159.33291885 80.64746727 159.37382876 77.92089844 159.37231445 C77.06541916 159.37567307 76.20993988 159.37903168 75.32853699 159.38249207 C72.47934541 159.39204467 69.63021249 159.39394832 66.78100586 159.39501953 C64.79815141 159.39823272 62.81529719 159.40159684 60.83244324 159.40510559 C56.66009982 159.4111101 52.48777713 159.4129445 48.31542969 159.41235352 C43.00210729 159.41225263 37.68892077 159.42582158 32.37563038 159.44312572 C28.2703136 159.45432728 24.1650286 159.45627012 20.0596981 159.45574379 C18.10354844 159.45691486 16.14739771 159.4612869 14.1912632 159.46907616 C-0.53845088 159.5221663 -14.81475132 159.02214391 -28.92602539 154.22705078 C-29.25602539 153.89705078 -29.58602539 153.56705078 -29.92602539 153.22705078 C-30.00063063 158.90125714 -30.05484147 164.57517286 -30.09082031 170.24975586 C-30.10583191 172.17688984 -30.12624755 174.1039901 -30.15234375 176.03100586 C-30.18906482 178.81388717 -30.20582831 181.59631366 -30.21899414 184.37939453 C-30.234478 185.22976791 -30.24996185 186.0801413 -30.26591492 186.95628357 C-30.26843428 196.07529956 -27.49385349 203.99363308 -21.92602539 211.22705078 C-13.47573734 219.67733883 -3.64120204 221.3499553 7.83325195 221.43237305 C8.69244232 221.44227264 9.55163269 221.45217224 10.43685913 221.46237183 C13.26118262 221.49382011 16.0855229 221.51867798 18.90991211 221.54345703 C20.87432275 221.56404097 22.8387291 221.58503782 24.8031311 221.60643005 C29.96185831 221.661502 35.12062449 221.71097664 40.27941895 221.75927734 C46.47531884 221.81845636 52.67114783 221.88460215 58.86698914 221.94957733 C68.26927415 222.04739956 77.67160561 222.1363837 87.07397461 222.22705078 C87.07397461 238.06705078 87.07397461 253.90705078 87.07397461 270.22705078 C64.67543286 270.3072684 64.67543286 270.3072684 55.05444336 270.32470703 C48.51518467 270.33661644 41.97598251 270.3506348 35.43676758 270.37792969 C30.158839 270.39981955 24.88097115 270.41165313 19.60300064 270.41680527 C17.59939749 270.42047226 15.59579728 270.42763207 13.59222031 270.43851089 C-15.36801367 270.5893599 -15.36801367 270.5893599 -26.92602539 265.22705078 C-27.65176758 264.90043457 -28.37750977 264.57381836 -29.12524414 264.23730469 C-31.40377349 263.19426823 -33.66620568 262.12246265 -35.92602539 261.03955078 C-36.70075195 260.67152344 -37.47547852 260.30349609 -38.27368164 259.92431641 C-40.15917585 259.02812471 -42.04280101 258.12800245 -43.92602539 257.22705078 C-43.92602539 256.56705078 -43.92602539 255.90705078 -43.92602539 255.22705078 C-44.97209961 254.911875 -44.97209961 254.911875 -46.03930664 254.59033203 C-49.80260908 252.81307553 -52.22774301 250.36454093 -55.11352539 247.41455078 C-55.91306641 246.63241211 -55.91306641 246.63241211 -56.72875977 245.83447266 C-59.70368077 242.83709942 -61.67962617 240.36387273 -62.92602539 236.22705078 C-63.58602539 236.22705078 -64.24602539 236.22705078 -64.92602539 236.22705078 C-69.34970006 228.4110638 -73.2386812 220.83198118 -75.92602539 212.22705078 C-76.14000977 211.55416016 -76.35399414 210.88126953 -76.57446289 210.18798828 C-79.26697742 200.70565449 -79.07538523 190.49314182 -79.05541992 180.71386719 C-79.05717224 179.63244949 -79.05892456 178.5510318 -79.06072998 177.43684387 C-79.06509183 173.90075015 -79.06223019 170.36470742 -79.05883789 166.82861328 C-79.05951266 164.34581493 -79.06048412 161.86301664 -79.06173706 159.38021851 C-79.06320645 154.19080981 -79.06108429 149.0014184 -79.05639648 143.81201172 C-79.05070566 137.19307894 -79.05397897 130.57418679 -79.05996895 123.95525551 C-79.06360018 118.83171285 -79.06242414 113.70817965 -79.05984116 108.58463669 C-79.05917865 106.14563365 -79.05997639 103.70662972 -79.06232071 101.26762772 C-79.0841733 72.14208705 -77.56378936 45.69419082 -56.35375977 23.64501953 C-41.1387463 8.53407593 -21.5187002 -0.1769037 0 0 Z " fill="#022E2F" transform="translate(255.926025390625,109.77294921875)"/>
<path d="M0 0 C0.33 0 0.66 0 1 0 C1.14695313 1.1859375 1.29390625 2.371875 1.4453125 3.59375 C3.55294652 19.28119765 8.0247709 32.25954505 16 46 C16.67748439 47.32786939 17.34813342 48.65936874 18 50 C18.66 50 19.32 50 20 50 C25 55.47619048 25 55.47619048 25 58 C25.82757813 58.37511719 25.82757813 58.37511719 26.671875 58.7578125 C30.38817061 60.74066821 33.60601843 63.38549956 36.953125 65.9296875 C39.3611168 67.56588706 41.59535502 68.85514036 44.19042969 70.12939453 C44.9054364 70.4819632 45.62044312 70.83453186 46.3571167 71.19778442 C46.89926819 71.46251556 47.44141968 71.7272467 48 72 C48.01458252 73.25546631 48.02916504 74.51093262 48.04418945 75.80444336 C48.102489 80.49564024 48.17971859 85.18637294 48.26245117 89.87719727 C48.29555228 91.90120874 48.32362957 93.92530924 48.34643555 95.94946289 C48.38025537 98.87163973 48.43258341 101.79301158 48.48828125 104.71484375 C48.49467117 105.60896469 48.5010611 106.50308563 48.50764465 107.42430115 C48.75184607 118.03678156 52.19380542 127.19380542 59.75 134.75 C68.34344694 140.69930942 76.49259784 142.13157962 86.75927734 142.20532227 C87.61846771 142.21522186 88.47765808 142.22512146 89.36288452 142.23532104 C92.18720801 142.26676932 95.01154829 142.2916272 97.8359375 142.31640625 C99.80034814 142.33699019 101.76475449 142.35798704 103.72915649 142.37937927 C108.8878837 142.43445122 114.04664988 142.48392586 119.20544434 142.53222656 C125.40134424 142.59140558 131.59717322 142.65755137 137.79301453 142.72252655 C147.19529954 142.82034878 156.59763101 142.90933292 166 143 C166 158.84 166 174.68 166 191 C143.60145825 191.08021762 143.60145825 191.08021762 133.98046875 191.09765625 C127.44121006 191.10956566 120.90200791 191.12358402 114.36279297 191.15087891 C109.08486439 191.17276877 103.80699654 191.18460235 98.52902603 191.18975449 C96.52542288 191.19342148 94.52182267 191.20058129 92.5182457 191.21146011 C63.55801172 191.36230912 63.55801172 191.36230912 52 186 C51.27425781 185.67338379 50.54851562 185.34676758 49.80078125 185.01025391 C47.5222519 183.96721745 45.25981971 182.89541187 43 181.8125 C42.22527344 181.44447266 41.45054687 181.07644531 40.65234375 180.69726562 C38.76684954 179.80107393 36.88322438 178.90095166 35 178 C35 177.34 35 176.68 35 176 C33.95392578 175.68482422 33.95392578 175.68482422 32.88671875 175.36328125 C29.12341631 173.58602475 26.69828238 171.13749015 23.8125 168.1875 C23.01295898 167.40536133 23.01295898 167.40536133 22.19726562 166.60742188 C19.22234463 163.61004864 17.24639922 161.13682194 16 157 C15.34 157 14.68 157 14 157 C9.57632533 149.18401302 5.68734419 141.6049304 3 133 C2.78601563 132.32710937 2.57203125 131.65421875 2.3515625 130.9609375 C-0.36184173 121.40503566 -0.14847815 111.11765578 -0.11352539 101.26464844 C-0.11367142 100.16074265 -0.11381744 99.05683685 -0.1139679 97.91947937 C-0.11327819 94.31609037 -0.10553045 90.71275483 -0.09765625 87.109375 C-0.09578872 84.59303821 -0.0943664 82.07670105 -0.09336853 79.56036377 C-0.08995681 73.6427462 -0.08209715 67.72514796 -0.07201904 61.80753827 C-0.05967967 54.39903929 -0.05436003 46.9905379 -0.04882812 39.58203125 C-0.03813741 26.38801133 -0.02128816 13.19400686 0 0 Z " fill="#00CE7B" transform="translate(177,189)"/>
<path d="M0 0 C1.24479629 2.43639616 2.34000926 4.83456819 3.375 7.375 C7.27269217 16.06985176 12.56422291 20.97847998 20.875 25.203125 C26.35346745 27.2575503 32.08366555 27.16437445 37.85107422 27.20532227 C38.72001816 27.21522186 39.5889621 27.22512146 40.48423767 27.23532104 C43.34102707 27.26677289 46.19783307 27.29162863 49.0546875 27.31640625 C51.04151834 27.33698988 53.02834494 27.35798672 55.01516724 27.37937927 C60.23307857 27.43445442 65.45102847 27.48392766 70.66900635 27.53222656 C75.99812229 27.58254814 81.32718255 27.63817848 86.65625 27.69335938 C97.10411904 27.80076279 107.55203653 27.90224703 118 28 C118.02526945 34.6752034 118.04283268 41.35039457 118.05493164 48.02563477 C118.05997325 50.29842591 118.06680637 52.5712138 118.07543945 54.84399414 C118.08751261 58.10303551 118.09322987 61.36203417 118.09765625 64.62109375 C118.10281754 65.64400009 118.10797882 66.66690643 118.11329651 67.72080994 C118.11337204 68.66170975 118.11344757 69.60260956 118.11352539 70.57202148 C118.115746 71.40475082 118.11796661 72.23748016 118.12025452 73.09544373 C118 75 118 75 117 76 C114.27414195 76.10586807 111.57349266 76.14677798 108.84692383 76.14526367 C107.99144455 76.14862228 107.13596527 76.1519809 106.25456238 76.15544128 C103.4053708 76.16499389 100.55623788 76.16689754 97.70703125 76.16796875 C95.7241768 76.17118194 93.74132258 76.17454606 91.75846863 76.17805481 C87.58612521 76.18405932 83.41380252 76.18589372 79.24145508 76.18530273 C73.92813268 76.18520185 68.61494616 76.19877079 63.30165577 76.21607494 C59.19633899 76.2272765 55.09105399 76.22921934 50.9857235 76.22869301 C49.02957383 76.22986408 47.0734231 76.23423612 45.11728859 76.24202538 C30.57641145 76.29443489 15.83754294 76.1250159 2 71 C0 69 0 69 -0.24050903 66.13998413 C-0.23606781 64.91864777 -0.23162659 63.6973114 -0.22705078 62.43896484 C-0.22734283 61.76567642 -0.22763489 61.092388 -0.22793579 60.3986969 C-0.22654047 58.16931346 -0.21097016 55.94026268 -0.1953125 53.7109375 C-0.19158308 52.16680077 -0.18873577 50.62266167 -0.18673706 49.07852173 C-0.17909499 45.01124557 -0.15944168 40.94411189 -0.1373291 36.87689209 C-0.11688296 32.7278435 -0.10773799 28.57877193 -0.09765625 24.4296875 C-0.07619625 16.28639289 -0.04205349 8.14321416 0 0 Z " fill="#FE7802" transform="translate(225,193)"/>
<path d="M0 0 C0 0.66 0 1.32 0 2 C0.66 2 1.32 2 2 2 C7.69371783 8.16819432 9.54059589 14.84482986 9.3828125 23.1171875 C8.43417831 30.26098377 4.5617698 36.49761492 -1 41 C-8.27553029 45.73231395 -14.4037098 46.91093453 -23 46 C-31.50856695 43.35368141 -36.20573494 38.19139759 -41 31 C-43.26172021 22.34207741 -42.62339695 13.93198626 -38.4375 6.0625 C-28.46034408 -6.47290103 -13.55299292 -9.03532862 0 0 Z " fill="#FD7A06" transform="translate(148,110)"/>
<path d="M0 0 C0.33 0 0.66 0 1 0 C1.14695313 1.1859375 1.29390625 2.371875 1.4453125 3.59375 C3.55294652 19.28119765 8.0247709 32.25954505 16 46 C16.67748439 47.32786939 17.34813342 48.65936874 18 50 C18.66 50 19.32 50 20 50 C21.7143618 51.95927063 23.38405168 53.95880212 25 56 C24.67 56.66 24.34 57.32 24 58 C20.16115605 55.27240035 18.64598707 53.35010868 17 49 C15.515 48.505 15.515 48.505 14 48 C12.60287726 46.04402816 11.26220093 44.04563599 10 42 C9.67 44.31 9.34 46.62 9 49 C9.66 49 10.32 49 11 49 C11.02465288 53.68139254 11.04283739 58.36274759 11.05493164 63.04418945 C11.05997157 64.63794614 11.0668035 66.23169819 11.07543945 67.82543945 C11.08751999 70.11150253 11.09323155 72.39750467 11.09765625 74.68359375 C11.10281754 75.40026718 11.10797882 76.11694061 11.11329651 76.85533142 C11.11349263 78.57063672 11.06192007 80.28581266 11 82 C10.505 82.495 10.505 82.495 10 83 C9.88650839 85.86094217 9.83581508 88.69683456 9.83203125 91.55859375 C9.82870285 92.41808121 9.82537445 93.27756866 9.82194519 94.1631012 C9.8168723 95.98478661 9.81453698 97.80648136 9.81469727 99.62817383 C9.81251197 102.4221929 9.79436356 105.21581657 9.77539062 108.00976562 C9.7724566 109.77604031 9.77047186 111.54231688 9.76953125 113.30859375 C9.76234573 114.14821152 9.75516022 114.98782928 9.74775696 115.85289001 C9.56087869 120.4024276 9.56087869 120.4024276 12 124 C11.625 127.625 11.625 127.625 11 131 C10.34 131 9.68 131 9 131 C8.34 126.71 7.68 122.42 7 118 C6.01 118.495 6.01 118.495 5 119 C4.5316735 121.58605332 4.5316735 121.58605332 4.375 124.5625 C4.30023438 125.57441406 4.22546875 126.58632813 4.1484375 127.62890625 C4.09945312 128.41136719 4.05046875 129.19382812 4 130 C4.64453125 130.23460937 5.2890625 130.46921875 5.953125 130.7109375 C8 132 8 132 8.609375 134.1640625 C8.65578125 134.97617187 8.7021875 135.78828125 8.75 136.625 C8.83507812 137.85089844 8.83507812 137.85089844 8.921875 139.1015625 C8.94765625 139.72804688 8.9734375 140.35453125 9 141 C10.32 140.67 11.64 140.34 13 140 C12.67 142.31 12.34 144.62 12 147 C12.99 146.67 13.98 146.34 15 146 C14.67 148.31 14.34 150.62 14 153 C14.66 153 15.32 153 16 153 C19.83071342 156.2503023 19.83071342 156.2503023 20.4375 158.9375 C21.31254494 162.14599812 23.61072336 163.79451387 26 166 C25.67 166.99 25.34 167.98 25 169 C17.33257403 161.88610478 17.33257403 161.88610478 16 157 C15.34 157 14.68 157 14 157 C9.57632533 149.18401302 5.68734419 141.6049304 3 133 C2.78601563 132.32710937 2.57203125 131.65421875 2.3515625 130.9609375 C-0.36184173 121.40503566 -0.14847815 111.11765578 -0.11352539 101.26464844 C-0.11367142 100.16074265 -0.11381744 99.05683685 -0.1139679 97.91947937 C-0.11327819 94.31609037 -0.10553045 90.71275483 -0.09765625 87.109375 C-0.09578872 84.59303821 -0.0943664 82.07670105 -0.09336853 79.56036377 C-0.08995681 73.6427462 -0.08209715 67.72514796 -0.07201904 61.80753827 C-0.05967967 54.39903929 -0.05436003 46.9905379 -0.04882812 39.58203125 C-0.03813741 26.38801133 -0.02128816 13.19400686 0 0 Z " fill="#02CE7A" transform="translate(177,189)"/>
<path d="M0 0 C0.721875 0.7425 1.44375 1.485 2.1875 2.25 C11.62075986 11.47363186 20.81926501 14.11237783 33.75927734 14.20532227 C34.61846771 14.21522186 35.47765808 14.22512146 36.36288452 14.23532104 C39.18720801 14.26676932 42.01154829 14.2916272 44.8359375 14.31640625 C46.80034814 14.33699019 48.76475449 14.35798704 50.72915649 14.37937927 C55.8878837 14.43445122 61.04664988 14.48392586 66.20544434 14.53222656 C72.40134424 14.59140558 78.59717322 14.65755137 84.79301453 14.72252655 C94.19529954 14.82034878 103.59763101 14.90933292 113 15 C113 30.84 113 46.68 113 63 C90.60145825 63.08021762 90.60145825 63.08021762 80.98046875 63.09765625 C74.44121006 63.10956566 67.90200791 63.12358402 61.36279297 63.15087891 C56.08486439 63.17276877 50.80699654 63.18460235 45.52902603 63.18975449 C43.52542288 63.19342148 41.52182267 63.20058129 39.5182457 63.21146011 C10.55801172 63.36230912 10.55801172 63.36230912 -1 58 C-2.08861328 57.51007568 -2.08861328 57.51007568 -3.19921875 57.01025391 C-5.4777481 55.96721745 -7.74018029 54.89541187 -10 53.8125 C-11.16208984 53.26045898 -11.16208984 53.26045898 -12.34765625 52.69726562 C-14.23315046 51.80107393 -16.11677562 50.90095166 -18 50 C-18 49.34 -18 48.68 -18 48 C-18.7425 47.773125 -19.485 47.54625 -20.25 47.3125 C-23.51139591 45.75592468 -24.92894975 43.91481146 -27 41 C-25.68 41 -24.36 41 -23 41 C-22.67 41.99 -22.34 42.98 -22 44 C-18.02584132 46.22085338 -14.4785979 46.17563129 -10 46 C-10 46.66 -10 47.32 -10 48 C-10.66 48.66 -11.32 49.32 -12 50 C-10.68 50.33 -9.36 50.66 -8 51 C-8 50.34 -8 49.68 -8 49 C-6.35 49.33 -4.7 49.66 -3 50 C-3 50.66 -3 51.32 -3 52 C1.99533348 53.43933338 4.91108103 54.1003068 10 53 C12.8125 53.9375 12.8125 53.9375 15 55 C15 55.66 15 56.32 15 57 C14.01 57.33 13.02 57.66 12 58 C11.505 58.99 11.505 58.99 11 60 C12.0837793 59.8563501 13.16755859 59.7127002 14.28417969 59.56469727 C31.74562987 57.47940872 49.20871896 57.80077998 66.76013184 57.92095947 C73.36194558 57.9648162 79.96381249 57.99375762 86.56572723 58.0170002 C88.85981323 58.02720667 91.15377666 58.04422571 93.44781494 58.06199646 C94.83532608 58.06881499 96.22283826 58.0754239 97.61035156 58.08178711 C98.82386292 58.09004013 100.03737427 58.09829315 101.28765869 58.10679626 C103.91561959 58.31062677 103.91561959 58.31062677 105 57 C106.98 57 108.96 57 111 57 C110.67 43.47 110.34 29.94 110 16 C108.35 16.33 106.7 16.66 105 17 C105 17.66 105 18.32 105 19 C100.74585377 19.02465622 96.49174502 19.04283899 92.23754883 19.05493164 C90.78929927 19.05997101 89.34105483 19.06680253 87.89282227 19.07543945 C85.81525412 19.08752247 83.73775303 19.09323211 81.66015625 19.09765625 C80.40855713 19.10289307 79.15695801 19.10812988 77.86743164 19.11352539 C75 19 75 19 74 18 C71.3226862 17.90018786 68.67695825 17.86120125 66 17.875 C65.24976563 17.87113281 64.49953125 17.86726563 63.7265625 17.86328125 C60.06393883 17.52324459 60.06393883 17.52324459 57 19 C54.51406303 19.07617395 52.0556875 19.0907862 49.5703125 19.0625 C48.82417694 19.05871338 48.07804138 19.05492676 47.30929565 19.05102539 C44.10538151 19.03462231 40.90159287 19.00656144 37.69775391 18.97949219 C35.36361275 18.96142387 33.02949233 18.94931561 30.6953125 18.9375 C29.97022491 18.92920166 29.24513733 18.92090332 28.49807739 18.91235352 C25.38021254 18.89714645 22.98284734 19.00571755 20 20 C18.32700041 19.34938905 16.66140763 18.67966676 15 18 C12.67402489 17.6186926 10.34087842 17.27539746 8 17 C7.505 18.485 7.505 18.485 7 20 C5.35 19.67 3.7 19.34 2 19 C2 18.34 2 17.68 2 17 C5.82989106 15.19769832 8.78121808 14.80377759 13 15 C13 14.34 13 13.68 13 13 C7.27571784 12.50223633 3.37457874 13.81488717 -1.86328125 16.125 C-4 17 -4 17 -6 17 C-6 16.34 -6 15.68 -6 15 C-5.195625 14.71125 -4.39125 14.4225 -3.5625 14.125 C-0.8673532 13.26737432 -0.8673532 13.26737432 0 11 C1.65 11 3.3 11 5 11 C5 9.68 5 8.36 5 7 C4.01 6.67 3.02 6.34 2 6 C2 5.34 2 4.68 2 4 C1.34 4 0.68 4 0 4 C0 2.68 0 1.36 0 0 Z " fill="#27CA83" transform="translate(230,317)"/>
<path d="M0 0 C1.01320312 0.61488281 1.01320312 0.61488281 2.046875 1.2421875 C2.93890625 1.78101563 3.8309375 2.31984375 4.75 2.875 C5.63171875 3.40867188 6.5134375 3.94234375 7.421875 4.4921875 C14.49540073 8.6291283 20.77542099 9.14798623 28.85107422 9.20532227 C29.72001816 9.21522186 30.5889621 9.22512146 31.48423767 9.23532104 C34.34102707 9.26677289 37.19783307 9.29162863 40.0546875 9.31640625 C42.04151834 9.33698988 44.02834494 9.35798672 46.01516724 9.37937927 C51.23307857 9.43445442 56.45102847 9.48392766 61.66900635 9.53222656 C66.99812229 9.58254814 72.32718255 9.63817848 77.65625 9.69335938 C88.10411904 9.80076279 98.55203653 9.90224703 109 10 C109.02526945 16.6752034 109.04283268 23.35039457 109.05493164 30.02563477 C109.05997325 32.29842591 109.06680637 34.5712138 109.07543945 36.84399414 C109.08751261 40.10303551 109.09322987 43.36203417 109.09765625 46.62109375 C109.10281754 47.64400009 109.10797882 48.66690643 109.11329651 49.72080994 C109.11337204 50.66170975 109.11344757 51.60260956 109.11352539 52.57202148 C109.115746 53.40475082 109.11796661 54.23748016 109.12025452 55.09544373 C109 57 109 57 108 58 C105.27414195 58.10586807 102.57349266 58.14677798 99.84692383 58.14526367 C98.99144455 58.14862228 98.13596527 58.1519809 97.25456238 58.15544128 C94.4053708 58.16499389 91.55623788 58.16689754 88.70703125 58.16796875 C86.7241768 58.17118194 84.74132258 58.17454606 82.75846863 58.17805481 C78.58612521 58.18405932 74.41380252 58.18589372 70.24145508 58.18530273 C64.92813268 58.18520185 59.61494616 58.19877079 54.30165577 58.21607494 C50.19633899 58.2272765 46.09105399 58.22921934 41.9857235 58.22869301 C40.02957383 58.22986408 38.0734231 58.23423612 36.11728859 58.24202538 C23.41081152 58.28782319 11.48678988 57.55305446 -1 55 C-1 54.67 -1 54.34 -1 54 C0.95825873 53.97305149 2.91662226 53.95362782 4.875 53.9375 C5.96554688 53.92589844 7.05609375 53.91429687 8.1796875 53.90234375 C11 54 11 54 13 55 C15.98947039 55.12294769 18.95711867 55.18578769 21.94775391 55.20532227 C22.87463516 55.21522186 23.80151642 55.22512146 24.75648499 55.23532104 C27.82981789 55.2669882 30.90316628 55.29171408 33.9765625 55.31640625 C36.10363168 55.33697127 38.23069674 55.35796762 40.35775757 55.37937927 C45.96371116 55.43464658 51.56970192 55.4840353 57.17572021 55.53222656 C63.89798052 55.5912261 70.62017272 55.65747966 77.34237671 55.72252655 C87.56154297 55.82059467 97.78075236 55.90941067 108 56 C108 41.15 108 26.3 108 11 C98.285625 11.01740234 98.285625 11.01740234 88.375 11.03515625 C84.26432191 11.04026771 80.15364776 11.04508183 76.04296875 11.04882812 C69.52294091 11.05479842 63.00292715 11.06185022 56.48291016 11.07543945 C51.22446539 11.08633029 45.96603574 11.09228996 40.70758057 11.09487724 C38.70460777 11.09672033 36.70163577 11.10031939 34.69866943 11.10573006 C31.88633456 11.11302275 29.0740616 11.11398748 26.26171875 11.11352539 C25.43956375 11.11712067 24.61740875 11.12071594 23.77033997 11.12442017 C18.7604833 11.11555316 13.96001302 10.71461902 9 10 C9 9.01 9 8.02 9 7 C6.03 7 3.06 7 0 7 C0 4.69 0 2.38 0 0 Z " fill="#F7AB76" transform="translate(234,211)"/>
<path d="M0 0 C1.23139159 2.41542197 2.33341236 4.80322068 3.375 7.3125 C4.95859097 11.06439246 6.92695987 14.49727702 9 18 C8.34 18.33 7.68 18.66 7 19 C7 18.34 7 17.68 7 17 C6.34 17 5.68 17 5 17 C4.67 15.68 4.34 14.36 4 13 C3.34 13 2.68 13 2 13 C2 16.63 2 20.26 2 24 C2.99 24.33 3.98 24.66 5 25 C5.6875 27.0625 5.6875 27.0625 6 29 C7.65 29 9.3 29 11 29 C11.09900135 33.76881876 11.17152928 38.5370373 11.21972656 43.30664062 C11.23982144 44.92849143 11.26710254 46.55026997 11.30175781 48.171875 C11.3503727 50.5053898 11.37298889 52.83794557 11.390625 55.171875 C11.41127014 55.89493835 11.43191528 56.61800171 11.45318604 57.36297607 C11.45477743 60.94689971 11.27262136 62.66477962 8.97558594 65.48925781 C8.32364258 65.98780273 7.67169922 66.48634766 7 67 C7 65.68 7 64.36 7 63 C7.66 63 8.32 63 9 63 C9 52.44 9 41.88 9 31 C8.34 31.33 7.68 31.66 7 32 C6.67 41.9 6.34 51.8 6 62 C5.01 62 4.02 62 3 62 C3 63.65 3 65.3 3 67 C3.66 67 4.32 67 5 67 C5.33 68.32 5.66 69.64 6 71 C1.125 70.125 1.125 70.125 0 69 C-0.09425595 66.85256451 -0.11742648 64.70198974 -0.11352539 62.55249023 C-0.11367142 61.87934784 -0.11381744 61.20620544 -0.1139679 60.51266479 C-0.11326878 58.27794216 -0.10547652 56.0433019 -0.09765625 53.80859375 C-0.09579206 52.26302638 -0.09436816 50.71745843 -0.09336853 49.17189026 C-0.0895434 45.09642923 -0.07971317 41.02100363 -0.06866455 36.94555664 C-0.05845032 32.78988118 -0.05387089 28.63420001 -0.04882812 24.47851562 C-0.03809089 16.31899413 -0.02101454 8.15950147 0 0 Z " fill="#FD7909" transform="translate(225,193)"/>
<path d="M0 0 C1.32 0 2.64 0 4 0 C4.33 0.99 4.66 1.98 5 3 C8.97415868 5.22085338 12.5214021 5.17563129 17 5 C17 5.66 17 6.32 17 7 C16.34 7.66 15.68 8.32 15 9 C16.32 9.33 17.64 9.66 19 10 C19 9.34 19 8.68 19 8 C21.475 8.495 21.475 8.495 24 9 C24 9.66 24 10.32 24 11 C28.99533348 12.43933338 31.91108103 13.1003068 37 12 C39.8125 12.9375 39.8125 12.9375 42 14 C42 14.66 42 15.32 42 16 C41.01 16.33 40.02 16.66 39 17 C38.67 17.66 38.34 18.32 38 19 C43.28 18.67 48.56 18.34 54 18 C54 18.66 54 19.32 54 20 C55.92598022 19.99129883 55.92598022 19.99129883 57.89086914 19.98242188 C74.3711145 19.93281677 90.84316576 20.17804512 107.32012939 20.46356201 C110.90805726 20.52530693 114.49602238 20.5848081 118.08398438 20.64453125 C125.0560263 20.76089799 132.02802587 20.87963423 139 21 C139 18.03 139 15.06 139 12 C139.33 12 139.66 12 140 12 C140 15.3 140 18.6 140 22 C128.24649682 22.04654497 116.49301593 22.08198108 104.73943901 22.10362434 C99.28052364 22.11401722 93.82167179 22.12809338 88.36279297 22.15087891 C83.08486439 22.17276877 77.80699654 22.18460235 72.52902603 22.18975449 C70.52542288 22.19342148 68.52182267 22.20058129 66.5182457 22.21146011 C37.55801172 22.36230912 37.55801172 22.36230912 26 17 C25.27425781 16.67338379 24.54851562 16.34676758 23.80078125 16.01025391 C21.5222519 14.96721745 19.25981971 13.89541187 17 12.8125 C16.22527344 12.44447266 15.45054687 12.07644531 14.65234375 11.69726562 C12.76684954 10.80107393 10.88322438 9.90095166 9 9 C9 8.34 9 7.68 9 7 C8.2575 6.773125 7.515 6.54625 6.75 6.3125 C3.48860409 4.75592468 2.07105025 2.91481146 0 0 Z " fill="#4AD092" transform="translate(203,358)"/>
<path d="M0 0 C0.66 0 1.32 0 2 0 C2.16890651 5.10434702 2.32931488 10.20886798 2.48217773 15.3137207 C2.53523482 17.04686497 2.59053083 18.7799423 2.64819336 20.51293945 C2.73112894 23.01759408 2.80575458 25.52238648 2.87890625 28.02734375 C2.90594131 28.79022202 2.93297638 29.55310028 2.96083069 30.33909607 C3.10516666 35.65457283 2.67969326 40.72493948 2 46 C-5.68656342 46.02352164 -13.37311788 46.04111234 -21.0597086 46.05181217 C-24.63169722 46.05695625 -28.20366064 46.06389246 -31.77563477 46.07543945 C-48.87543354 46.12929623 -65.92024465 45.95060193 -83 45 C-82.67 44.01 -82.34 43.02 -82 42 C-80.57513023 42.00333092 -80.57513023 42.00333092 -79.12147522 42.00672913 C-70.18908904 42.02696127 -61.25670748 42.04197249 -52.32430363 42.05181217 C-47.7315736 42.05704082 -43.138862 42.06413812 -38.54614258 42.07543945 C-34.11766312 42.086269 -29.68920144 42.09227698 -25.26070976 42.09487724 C-23.56734372 42.09673137 -21.87397871 42.10035175 -20.18062019 42.10573006 C-17.81708768 42.1129414 -15.45362955 42.1139909 -13.09008789 42.11352539 C-12.38302704 42.11712067 -11.67596619 42.12071594 -10.94747925 42.12442017 C-7.69361952 42.39649445 -7.69361952 42.39649445 -5 41 C-3.02 41 -1.04 41 1 41 C0.67 27.47 0.34 13.94 0 0 Z " fill="#1DCB7F" transform="translate(340,333)"/>
<path d="M0 0 C0.33 0 0.66 0 1 0 C1.14695313 1.1859375 1.29390625 2.371875 1.4453125 3.59375 C3.55294652 19.28119765 8.0247709 32.25954505 16 46 C16.67748439 47.32786939 17.34813342 48.65936874 18 50 C18.66 50 19.32 50 20 50 C21.7143618 51.95927063 23.38405168 53.95880212 25 56 C24.67 56.66 24.34 57.32 24 58 C20.16115605 55.27240035 18.64598707 53.35010868 17 49 C15.515 48.505 15.515 48.505 14 48 C12.14587287 45.48194275 10.81247077 42.64792748 9.375 39.875 C8.96765625 39.12734375 8.5603125 38.3796875 8.140625 37.609375 C5.71672481 33.0023594 4.39977101 29.19702312 4 24 C3.34 24 2.68 24 2 24 C2.33 58.32 2.66 92.64 3 128 C-1.72969404 120.90545894 -0.14303457 109.58313735 -0.11352539 101.26464844 C-0.11367142 100.16074265 -0.11381744 99.05683685 -0.1139679 97.91947937 C-0.11327819 94.31609037 -0.10553045 90.71275483 -0.09765625 87.109375 C-0.09578872 84.59303821 -0.0943664 82.07670105 -0.09336853 79.56036377 C-0.08995681 73.6427462 -0.08209715 67.72514796 -0.07201904 61.80753827 C-0.05967967 54.39903929 -0.05436003 46.9905379 -0.04882812 39.58203125 C-0.03813741 26.38801133 -0.02128816 13.19400686 0 0 Z " fill="#69C99E" transform="translate(177,189)"/>
<path d="M0 0 C0.33 0.33 0.66 0.66 1 1 C3.43299787 1.12492389 5.83904923 1.18601507 8.27368164 1.20532227 C9.03460617 1.21522186 9.7955307 1.22512146 10.57951355 1.23532104 C13.1063623 1.26702624 15.63322988 1.2917289 18.16015625 1.31640625 C19.90751141 1.33696801 21.65486151 1.35796426 23.40220642 1.37937927 C28.01026318 1.43468041 32.61836541 1.48405408 37.22650146 1.53222656 C41.92513089 1.58238303 46.62369394 1.63809958 51.32226562 1.69335938 C60.54812044 1.80103924 69.77403278 1.90246223 79 2 C79.495 3.485 79.495 3.485 80 5 C53.6 5 27.2 5 0 5 C0 4.34 0 3.68 0 3 C-4.62 3 -9.24 3 -14 3 C-14.33 2.34 -14.66 1.68 -15 1 C-10.09961113 -0.30677037 -5.03761016 -0.31718286 0 0 Z " fill="#16CC7D" transform="translate(256,367)"/>
<path d="M0 0 C0.66 0.33 1.32 0.66 2 1 C2 2.32 2 3.64 2 5 C1.34 5 0.68 5 0 5 C0.11889054 11.72210734 0.24367198 18.44408791 0.37231445 25.16601562 C0.41529866 27.44691566 0.45699465 29.72784038 0.49731445 32.00878906 C0.09853743 51.3073591 0.09853743 51.3073591 2.59545898 70.29150391 C2.72895752 70.85530762 2.86245605 71.41911133 3 72 C2.505 72.495 2.505 72.495 2 73 C1.76636119 74.84891946 1.58696365 76.70488031 1.4375 78.5625 C1.35371094 79.57441406 1.26992187 80.58632813 1.18359375 81.62890625 C1.12300781 82.41136719 1.06242188 83.19382812 1 84 C1.64453125 84.23460937 2.2890625 84.46921875 2.953125 84.7109375 C5 86 5 86 5.609375 88.1640625 C5.65578125 88.97617187 5.7021875 89.78828125 5.75 90.625 C5.80671875 91.44226563 5.8634375 92.25953125 5.921875 93.1015625 C5.94765625 93.72804688 5.9734375 94.35453125 6 95 C7.98 94.505 7.98 94.505 10 94 C9.67 96.31 9.34 98.62 9 101 C10.485 100.505 10.485 100.505 12 100 C11.67 102.31 11.34 104.62 11 107 C11.66 107 12.32 107 13 107 C16.83071342 110.2503023 16.83071342 110.2503023 17.4375 112.9375 C18.31254494 116.14599812 20.61072336 117.79451387 23 120 C22.67 120.99 22.34 121.98 22 123 C14.33257403 115.88610478 14.33257403 115.88610478 13 111 C12.34 111 11.68 111 11 111 C0.96832321 93.27549242 -1.16188845 78.78412812 -1.1328125 58.5546875 C-1.13348731 56.89128607 -1.13445881 55.22788474 -1.13571167 53.56448364 C-1.13717622 50.10352628 -1.13507163 46.64259494 -1.13037109 43.18164062 C-1.12462966 38.73725798 -1.12798826 34.29293515 -1.13394356 29.84855461 C-1.13754487 26.42576642 -1.13641335 23.00299261 -1.13381577 19.58020401 C-1.13314761 17.9398714 -1.13397106 16.29953749 -1.13629532 14.65920639 C-1.13881958 12.3806787 -1.13498658 10.10225068 -1.12939453 7.82373047 C-1.12859894 6.52676239 -1.12780334 5.22979431 -1.12698364 3.89352417 C-1 1 -1 1 0 0 Z " fill="#17CC7E" transform="translate(180,235)"/>
<path d="M0 0 C2.1576101 0.00560453 4.31522405 0.00987057 6.47283936 0.01286316 C12.11495756 0.02424449 17.75683916 0.05365309 23.39886475 0.0869751 C29.1708252 0.1178216 34.94282439 0.13139949 40.71484375 0.14648438 C52.0131408 0.17852992 63.31120109 0.2312422 74.609375 0.29296875 C74.609375 7.55296875 74.609375 14.81296875 74.609375 22.29296875 C74.279375 22.29296875 73.949375 22.29296875 73.609375 22.29296875 C73.54878906 21.67808594 73.48820312 21.06320313 73.42578125 20.4296875 C73.34199219 19.62144531 73.25820313 18.81320313 73.171875 17.98046875 C73.05005859 16.77970703 73.05005859 16.77970703 72.92578125 15.5546875 C72.65671807 13.13209696 72.65671807 13.13209696 71.609375 10.29296875 C71.93488002 8.62475552 72.26783563 6.95797318 72.609375 5.29296875 C72.114375 4.30296875 72.114375 4.30296875 71.609375 3.29296875 C59.32655373 3.24661531 47.0437533 3.21108418 34.76086235 3.18934441 C29.05734033 3.17891009 23.35387819 3.16475717 17.65039062 3.14208984 C12.14556414 3.12034912 6.64079522 3.10839748 1.13592911 3.10321426 C-0.96360048 3.09952073 -3.06312693 3.09230822 -5.16263199 3.08150864 C-8.10474695 3.06697753 -11.04662442 3.06499151 -13.98876953 3.06591797 C-14.85551804 3.05872742 -15.72226654 3.05153687 -16.61528015 3.04412842 C-21.28921153 3.06004012 -24.9924238 3.51955298 -29.390625 5.29296875 C-30.380625 5.62296875 -31.370625 5.95296875 -32.390625 6.29296875 C-32.390625 5.63296875 -32.390625 4.97296875 -32.390625 4.29296875 C-33.050625 3.96296875 -33.710625 3.63296875 -34.390625 3.29296875 C-23.13202211 -0.66414357 -11.77084513 -0.09028475 0 0 Z " fill="#667878" transform="translate(268.390625,109.70703125)"/>
<path d="M0 0 C1.625 1.4375 1.625 1.4375 3 4 C2.66417503 7.09705247 1.88564868 10.01810374 1 13 C1.66 13 2.32 13 3 13 C3.02465288 17.68139254 3.04283739 22.36274759 3.05493164 27.04418945 C3.05997157 28.63794614 3.0668035 30.23169819 3.07543945 31.82543945 C3.08751999 34.11150253 3.09323155 36.39750467 3.09765625 38.68359375 C3.10281754 39.40026718 3.10797882 40.11694061 3.11329651 40.85533142 C3.11349263 42.57063672 3.06192007 44.28581266 3 46 C2.505 46.495 2.505 46.495 2 47 C1.88650839 49.86094217 1.83581508 52.69683456 1.83203125 55.55859375 C1.82870285 56.41808121 1.82537445 57.27756866 1.82194519 58.1631012 C1.8168723 59.98478661 1.81453698 61.80648136 1.81469727 63.62817383 C1.81251197 66.4221929 1.79436356 69.21581657 1.77539062 72.00976562 C1.7724566 73.77604031 1.77047186 75.54231688 1.76953125 77.30859375 C1.76234573 78.14821152 1.75516022 78.98782928 1.74775696 79.85289001 C1.56087869 84.4024276 1.56087869 84.4024276 4 88 C3.625 91.625 3.625 91.625 3 95 C2.34 95 1.68 95 1 95 C-1.56606616 84.8442218 -1.22750564 74.69941634 -1.125 64.3125 C-1.11494839 62.53190608 -1.1058264 60.75130667 -1.09765625 58.97070312 C-1.07581948 54.64699741 -1.04141037 50.32356074 -1 46 C-0.34 46 0.32 46 1 46 C0.88166798 41.78228161 0.75741398 37.56479177 0.62768555 33.34741211 C0.58439207 31.91288997 0.54271301 30.47831816 0.50268555 29.04370117 C0.44484733 26.9808048 0.38119247 24.91815717 0.31640625 22.85546875 C0.26141968 20.99378052 0.26141968 20.99378052 0.20532227 19.09448242 C0.12855879 15.96446653 0.12855879 15.96446653 -1 13 C-1.09308544 11.33541327 -1.12996185 9.66718003 -1.125 8 C-1.12757813 7.13375 -1.13015625 6.2675 -1.1328125 5.375 C-1 3 -1 3 0 0 Z " fill="#18CC7D" transform="translate(185,225)"/>
<path d="M0 0 C1.01320312 0.61488281 1.01320312 0.61488281 2.046875 1.2421875 C2.93890625 1.78101563 3.8309375 2.31984375 4.75 2.875 C5.63171875 3.40867188 6.5134375 3.94234375 7.421875 4.4921875 C14.49540073 8.6291283 20.77542099 9.14798623 28.85107422 9.20532227 C29.72001816 9.21522186 30.5889621 9.22512146 31.48423767 9.23532104 C34.34102707 9.26677289 37.19783307 9.29162863 40.0546875 9.31640625 C42.04151834 9.33698988 44.02834494 9.35798672 46.01516724 9.37937927 C51.23307857 9.43445442 56.45102847 9.48392766 61.66900635 9.53222656 C67.93582355 9.59140263 74.2025706 9.6575502 80.46932983 9.72252655 C89.97951021 9.8203528 99.48973652 9.9093342 109 10 C109 25.51 109 41.02 109 57 C108.67 57 108.34 57 108 57 C108 41.82 108 26.64 108 11 C98.285625 11.01740234 98.285625 11.01740234 88.375 11.03515625 C84.26432191 11.04026771 80.15364776 11.04508183 76.04296875 11.04882812 C69.52294091 11.05479842 63.00292715 11.06185022 56.48291016 11.07543945 C51.22446539 11.08633029 45.96603574 11.09228996 40.70758057 11.09487724 C38.70460777 11.09672033 36.70163577 11.10031939 34.69866943 11.10573006 C31.88633456 11.11302275 29.0740616 11.11398748 26.26171875 11.11352539 C25.43956375 11.11712067 24.61740875 11.12071594 23.77033997 11.12442017 C18.7604833 11.11555316 13.96001302 10.71461902 9 10 C9 9.01 9 8.02 9 7 C6.03 7 3.06 7 0 7 C0 4.69 0 2.38 0 0 Z " fill="#E2864A" transform="translate(234,211)"/>
<path d="M0 0 C4.44398372 2.01432907 8.08705637 4.9910284 11.953125 7.9296875 C14.3611168 9.56588706 16.59535502 10.85514036 19.19042969 12.12939453 C19.9054364 12.4819632 20.62044312 12.83453186 21.3571167 13.19778442 C21.89926819 13.46251556 22.44141968 13.7272467 23 14 C23.01458252 15.25546631 23.02916504 16.51093262 23.04418945 17.80444336 C23.102489 22.49564024 23.17971859 27.18637294 23.26245117 31.87719727 C23.29555228 33.90120874 23.32362957 35.92530924 23.34643555 37.94946289 C23.38025537 40.87163973 23.43258341 43.79301158 23.48828125 46.71484375 C23.49467117 47.60896469 23.5010611 48.50308563 23.50764465 49.42430115 C23.62870529 54.68534209 24.40624466 59.07029607 26.26408386 64.00221252 C26.99353529 65.98245028 27.52354982 67.94581091 28 70 C27.401875 69.67 26.80375 69.34 26.1875 69 C23.94613529 67.79212012 23.94613529 67.79212012 21 68 C21.00523682 67.2064209 21.01047363 66.4128418 21.01586914 65.59521484 C21.11026116 49.03240278 20.96294285 32.54198257 20 16 C19.44787842 15.73590332 18.89575684 15.47180664 18.3269043 15.19970703 C17.60414307 14.84763184 16.88138184 14.49555664 16.13671875 14.1328125 C15.41959717 13.78621582 14.70247559 13.43961914 13.96362305 13.08251953 C11.54377063 11.74848675 9.91113644 9.97703769 8 8 C7.113125 7.649375 6.22625 7.29875 5.3125 6.9375 C4.549375 6.628125 3.78625 6.31875 3 6 C2.67 5.01 2.34 4.02 2 3 C1.34 2.67 0.68 2.34 0 2 C0 1.34 0 0.68 0 0 Z " fill="#3FC083" transform="translate(202,247)"/>
<path d="M0 0 C0.66 0 1.32 0 2 0 C2.144375 1.051875 2.28875 2.10375 2.4375 3.1875 C2.87526966 6.15460549 3.37804866 9.06794366 4 12 C3.01 12.495 3.01 12.495 2 13 C2.33 13.99 2.66 14.98 3 16 C3.43784768 26.42856691 2.84179388 36.94684578 2.5 47.375 C2.45162143 48.90103529 2.40344331 50.42707695 2.35546875 51.953125 C2.23927964 55.63549265 2.12041393 59.31776779 2 63 C1.34 62.67 0.68 62.34 0 62 C0 41.54 0 21.08 0 0 Z " fill="#12CC7C" transform="translate(190,241)"/>
<path d="M0 0 C0.66 0 1.32 0 2 0 C2.33 1.32 2.66 2.64 3 4 C3.66 4 4.32 4 5 4 C5 4.99 5 5.98 5 7 C5.66 7 6.32 7 7 7 C8.77471263 12.21321836 9.99398813 17.48496907 9 23 C7.48046875 24.765625 7.48046875 24.765625 6 26 C6 24.02 6 22.04 6 20 C5.34 20 4.68 20 4 20 C3.67 20.66 3.34 21.32 3 22 C2 21 2 21 1.90234375 18.93359375 C1.91974609 17.69802734 1.91974609 17.69802734 1.9375 16.4375 C1.94652344 15.61121094 1.95554688 14.78492187 1.96484375 13.93359375 C1.97644531 13.29550781 1.98804688 12.65742187 2 12 C1.34 12 0.68 12 0 12 C-0.19401633 10.18818595 -0.38004375 8.37551468 -0.5625 6.5625 C-0.66691406 5.55316406 -0.77132812 4.54382813 -0.87890625 3.50390625 C-0.91886719 2.67761719 -0.95882812 1.85132812 -1 1 C-0.67 0.67 -0.34 0.34 0 0 Z " fill="#FD7804" transform="translate(146,113)"/>
<path d="M0 0 C0 0.66 0 1.32 0 2 C0.66 2 1.32 2 2 2 C7.88963105 8.38043363 9.21759528 14.85116768 9.265625 23.31640625 C8.98068307 26.1951578 8.1945612 28.37860182 7 31 C6.67 31 6.34 31 6 31 C6.01160156 30.07058594 6.02320313 29.14117187 6.03515625 28.18359375 C6.11753537 19.04290683 6.11753537 19.04290683 5 10 C4.34 10 3.68 10 3 10 C3 9.01 3 8.02 3 7 C2.34 7 1.68 7 1 7 C0.67 5.68 0.34 4.36 0 3 C-0.66 3 -1.32 3 -2 3 C-2 2.34 -2 1.68 -2 1 C-2.66 1 -3.32 1 -4 1 C-4 0.34 -4 -0.32 -4 -1 C-5.98 -1 -7.96 -1 -10 -1 C-10 -1.66 -10 -2.32 -10 -3 C-15.28 -3 -20.56 -3 -26 -3 C-26.33 -2.01 -26.66 -1.02 -27 0 C-28.32 -0.33 -29.64 -0.66 -31 -1 C-22.13078811 -8.28542405 -8.98859377 -5.99239585 0 0 Z " fill="#F09F65" transform="translate(148,110)"/>
<path d="M0 0 C0.33 0 0.66 0 1 0 C1 4.95 1 9.9 1 15 C-46.025 15.495 -46.025 15.495 -94 16 C-94.33 15.01 -94.66 14.02 -95 13 C-47.975 13.495 -47.975 13.495 0 14 C0 9.38 0 4.76 0 0 Z " fill="#617575" transform="translate(342,143)"/>
<path d="M0 0 C1.23139159 2.41542197 2.33341236 4.80322068 3.375 7.3125 C4.95859097 11.06439246 6.92695987 14.49727702 9 18 C8.34 18.33 7.68 18.66 7 19 C7 18.34 7 17.68 7 17 C6.34 17 5.68 17 5 17 C4.67 15.68 4.34 14.36 4 13 C3.01 13 2.02 13 1 13 C1.33 31.15 1.66 49.3 2 68 C3.32 68.33 4.64 68.66 6 69 C6 69.66 6 70.32 6 71 C1.125 70.125 1.125 70.125 0 69 C-0.09425595 66.85256451 -0.11742648 64.70198974 -0.11352539 62.55249023 C-0.11367142 61.87934784 -0.11381744 61.20620544 -0.1139679 60.51266479 C-0.11326878 58.27794216 -0.10547652 56.0433019 -0.09765625 53.80859375 C-0.09579206 52.26302638 -0.09436816 50.71745843 -0.09336853 49.17189026 C-0.0895434 45.09642923 -0.07971317 41.02100363 -0.06866455 36.94555664 C-0.05845032 32.78988118 -0.05387089 28.63420001 -0.04882812 24.47851562 C-0.03809089 16.31899413 -0.02101454 8.15950147 0 0 Z " fill="#D98A49" transform="translate(225,193)"/>
<path d="M0 0 C2.49336211 3.74004317 2.25481228 6.62561609 2.1953125 10.94921875 C2.1924826 11.72183548 2.18965271 12.49445221 2.18673706 13.29048157 C2.17554878 15.75631243 2.15044703 18.22177906 2.125 20.6875 C2.11496843 22.36002079 2.10584289 24.03254728 2.09765625 25.70507812 C2.07561392 29.80352559 2.04109363 33.90170106 2 38 C1.01 38 0.02 38 -1 38 C-2.99457095 29.34102929 -2.08497413 20.24592962 -1.5625 11.4375 C-1.52334473 10.75905029 -1.48418945 10.08060059 -1.44384766 9.3815918 C-1.23271945 6.15440412 -0.93942434 3.10246863 0 0 Z " fill="#10CD7A" transform="translate(339,333)"/>
<path d="M0 0 C1.41750563 0.11509661 2.83401169 0.24253658 4.25 0.375 C5.03890625 0.44460938 5.8278125 0.51421875 6.640625 0.5859375 C9.085877 1.01507113 10.84836903 1.78600638 13 3 C13 3.66 13 4.32 13 5 C15.31 5 17.62 5 20 5 C20 5.66 20 6.32 20 7 C28.415 6.505 28.415 6.505 37 6 C37 6.66 37 7.32 37 8 C44.59 8 52.18 8 60 8 C60 8.33 60 8.66 60 9 C18.20350323 9.28438944 18.20350323 9.28438944 9 5 C7.33393702 4.26945503 5.66725845 3.54031251 4 2.8125 C2.6656095 2.21067185 1.33188071 1.60736227 0 1 C0 0.67 0 0.34 0 0 Z " fill="#2FC883" transform="translate(220,370)"/>
<path d="M0 0 C0.99 0 1.98 0 3 0 C3 1.32 3 2.64 3 4 C4.65 3.67 6.3 3.34 8 3 C7.67 5.31 7.34 7.62 7 10 C7.66 10 8.32 10 9 10 C12.83071342 13.2503023 12.83071342 13.2503023 13.4375 15.9375 C14.31254494 19.14599812 16.61072336 20.79451387 19 23 C18.67 23.99 18.34 24.98 18 26 C10.33257403 18.88610478 10.33257403 18.88610478 9 14 C8.34 14 7.68 14 7 14 C4.69 9.38 2.38 4.76 0 0 Z " fill="#4ED293" transform="translate(184,332)"/>
<path d="M0 0 C1.0828125 1.11375 1.0828125 1.11375 2.1875 2.25 C7.4025051 7.3491161 12.30078699 10.25609576 19 13 C16 15 16 15 13 15 C13 14.34 13 13.68 13 13 C7.27571784 12.50223633 3.37457874 13.81488717 -1.86328125 16.125 C-4 17 -4 17 -6 17 C-6 16.34 -6 15.68 -6 15 C-5.195625 14.71125 -4.39125 14.4225 -3.5625 14.125 C-0.8673532 13.26737432 -0.8673532 13.26737432 0 11 C1.65 11 3.3 11 5 11 C5 9.68 5 8.36 5 7 C4.01 6.67 3.02 6.34 2 6 C2 5.34 2 4.68 2 4 C1.34 4 0.68 4 0 4 C0 2.68 0 1.36 0 0 Z " fill="#3BCE8A" transform="translate(230,317)"/>
<path d="M0 0 C0.99 0.33 1.98 0.66 3 1 C2.67 1.66 2.34 2.32 2 3 C1.34 3 0.68 3 0 3 C0 3.99 0 4.98 0 6 C1.216875 5.67 2.43375 5.34 3.6875 5 C6.87210604 4.19677787 9.6972843 3.79358027 13 4 C12 6 12 6 9.6875 7.125 C0.87701442 9.2156237 -6.27192081 8.75574104 -14 4 C-9.84228506 2.68461673 -7.1120703 3.65566932 -3 5 C-3 4.01 -3 3.02 -3 2 C-2.01 1.34 -1.02 0.68 0 0 Z " fill="#F58733" transform="translate(131,148)"/>
<path d="M0 0 C1.98 0 3.96 0 6 0 C6.72767003 1.23884319 7.43154815 2.49168341 8.125 3.75 C8.51945313 4.44609375 8.91390625 5.1421875 9.3203125 5.859375 C10 8 10 8 9.3046875 10.078125 C8.02271605 11.96653804 6.68601216 13.46726167 5 15 C4.89042969 14.39671875 4.78085938 13.7934375 4.66796875 13.171875 C3.78331609 8.71265023 3.072371 5.49133069 0 2 C0 1.34 0 0.68 0 0 Z " fill="#15CC7C" transform="translate(198,338)"/>
<path d="M0 0 C0.66 0 1.32 0 2 0 C2.2475 0.639375 2.495 1.27875 2.75 1.9375 C3.79962819 4.09257839 3.79962819 4.09257839 5.6875 4.8125 C8.89104088 5.07224656 11.84476244 4.54609881 15 4 C15 5.65 15 7.3 15 9 C12.03 9 9.06 9 6 9 C6 8.34 6 7.68 6 7 C5.195625 7.020625 4.39125 7.04125 3.5625 7.0625 C1 7 1 7 0 6 C-0.04080783 4.00041636 -0.04254356 1.99954746 0 0 Z " fill="#13CC7C" transform="translate(208,261)"/>
<path d="M0 0 C0.33 0 0.66 0 1 0 C1.33 17.82 1.66 35.64 2 54 C2.66 54 3.32 54 4 54 C4 54.66 4 55.32 4 56 C2.68 55.67 1.36 55.34 0 55 C0 36.85 0 18.7 0 0 Z " fill="#F57E21" transform="translate(226,206)"/>
<path d="M0 0 C0.89109922 3.07251011 1.16339724 5.86647393 1.1875 9.0625 C1.20167969 9.91972656 1.21585937 10.77695313 1.23046875 11.66015625 C1 14 1 14 -1 17 C-0.19351312 20.65670531 -0.19351312 20.65670531 1 24 C0.01 24 -0.98 24 -2 24 C-3.87650086 15.69836019 -3.85226594 7.70453187 0 0 Z " fill="#F38B36" transform="translate(109,117)"/>
<path d="M0 0 C0.33 0.66 0.66 1.32 1 2 C1.99773437 2.41378906 1.99773437 2.41378906 3.015625 2.8359375 C5 4 5 4 5.609375 6.1640625 C5.65578125 6.97617187 5.7021875 7.78828125 5.75 8.625 C5.80671875 9.44226563 5.8634375 10.25953125 5.921875 11.1015625 C5.94765625 11.72804688 5.9734375 12.35453125 6 13 C7.32 12.67 8.64 12.34 10 12 C9.34 14.31 8.68 16.62 8 19 C7.67 17.68 7.34 16.36 7 15 C6.01 15 5.02 15 4 15 C3.32243118 13.44219668 2.65840543 11.87849904 2 10.3125 C1.62875 9.44238281 1.2575 8.57226562 0.875 7.67578125 C-0.01870488 4.9427998 -0.16449676 2.85299066 0 0 Z " fill="#38CD8B" transform="translate(180,317)"/>
<path d="M0 0 C1.32 0 2.64 0 4 0 C4.33 0.99 4.66 1.98 5 3 C8.97415868 5.22085338 12.5214021 5.17563129 17 5 C17 5.66 17 6.32 17 7 C16.34 7.66 15.68 8.32 15 9 C15.66 9.33 16.32 9.66 17 10 C17 10.66 17 11.32 17 12 C11.25 10.125 11.25 10.125 9 9 C9 8.34 9 7.68 9 7 C8.2575 6.773125 7.515 6.54625 6.75 6.3125 C3.48860409 4.75592468 2.07105025 2.91481146 0 0 Z " fill="#55D197" transform="translate(203,358)"/>
<path d="M0 0 C1.01320312 0.61488281 1.01320312 0.61488281 2.046875 1.2421875 C2.93890625 1.78101563 3.8309375 2.31984375 4.75 2.875 C5.63171875 3.40867188 6.5134375 3.94234375 7.421875 4.4921875 C11.00835886 6.58973715 14.19477493 8.17878082 18.25 9.125 C20.10625 9.558125 20.10625 9.558125 22 10 C22 10.33 22 10.66 22 11 C17.71 10.67 13.42 10.34 9 10 C9 9.01 9 8.02 9 7 C6.03 7 3.06 7 0 7 C0 4.69 0 2.38 0 0 Z " fill="#F1A66E" transform="translate(234,211)"/>
<path d="M0 0 C1.95825873 -0.02694851 3.91662226 -0.04637218 5.875 -0.0625 C6.96554688 -0.07410156 8.05609375 -0.08570313 9.1796875 -0.09765625 C12 0 12 0 14 1 C15.95774069 1.15378852 17.92017352 1.24971463 19.8828125 1.31640625 C21.04941406 1.35830078 22.21601563 1.40019531 23.41796875 1.44335938 C24.64128906 1.48267578 25.86460937 1.52199219 27.125 1.5625 C28.35605469 1.60568359 29.58710938 1.64886719 30.85546875 1.69335938 C33.90352853 1.79968704 36.9516719 1.90171781 40 2 C40 2.33 40 2.66 40 3 C35.74993401 3.04990593 31.50002901 3.08595579 27.24975586 3.10986328 C25.80766829 3.11984313 24.36560054 3.13343184 22.92358398 3.15087891 C15.0353929 3.24384199 7.65948967 3.17375461 0 1 C0 0.67 0 0.34 0 0 Z " fill="#F19150" transform="translate(233,265)"/>
<path d="M0 0 C0.33 0 0.66 0 1 0 C1.66 4.95 2.32 9.9 3 15 C2.34 15 1.68 15 1 15 C1 23.25 1 31.5 1 40 C0.67 40 0.34 40 0 40 C0 26.8 0 13.6 0 0 Z " fill="#45B785" transform="translate(178,196)"/>
<path d="M0 0 C0.99 0 1.98 0 3 0 C3 0.99 3 1.98 3 3 C4.32 3.66 5.64 4.32 7 5 C5.71034824 6.37562854 4.37310707 7.70766393 3 9 C2.34 9 1.68 9 1 9 C1 7.35 1 5.7 1 4 C-2.24983135 5.08784968 -2.24983135 5.08784968 -5 7 C-6.66617115 7.04063832 -8.33388095 7.042721 -10 7 C-9 5 -9 5 -6.625 3.875 C-4 3 -4 3 -1 3 C-0.67 2.01 -0.34 1.02 0 0 Z " fill="#FC7911" transform="translate(143,143)"/>
<path d="M0 0 C1.41750563 0.11509661 2.83401169 0.24253658 4.25 0.375 C5.03890625 0.44460938 5.8278125 0.51421875 6.640625 0.5859375 C9.085877 1.01507113 10.84836903 1.78600638 13 3 C13 3.66 13 4.32 13 5 C15.31 5 17.62 5 20 5 C20 5.66 20 6.32 20 7 C20.99 7.33 21.98 7.66 23 8 C14.64749286 8.62643804 7.4192435 4.38331243 0 1 C0 0.67 0 0.34 0 0 Z " fill="#62CF9C" transform="translate(220,370)"/>
<path d="M0 0 C0.66 0 1.32 0 2 0 C2.99 3.3 3.98 6.6 5 10 C4.01 10.495 4.01 10.495 3 11 C3 12.32 3 13.64 3 15 C2.01 15 1.02 15 0 15 C0 10.05 0 5.1 0 0 Z " fill="#15CC7B" transform="translate(179,213)"/>
<path d="M0 0 C0.99 0 1.98 0 3 0 C3.48108275 1.41601714 3.95978141 2.83284437 4.4375 4.25 C4.83775391 5.43335938 4.83775391 5.43335938 5.24609375 6.640625 C5.91954708 8.74821988 6.49150595 10.84753973 7 13 C6.401875 12.67 5.80375 12.34 5.1875 12 C2.94613529 10.79212012 2.94613529 10.79212012 0 11 C0 7.37 0 3.74 0 0 Z " fill="#42D18F" transform="translate(223,304)"/>
<path d="M0 0 C0.8971875 0.5259375 0.8971875 0.5259375 1.8125 1.0625 C0.8225 2.5475 0.8225 2.5475 -0.1875 4.0625 C-1.5075 4.0625 -2.8275 4.0625 -4.1875 4.0625 C-4.1875 5.3825 -4.1875 6.7025 -4.1875 8.0625 C-5.5075 8.0625 -6.8275 8.0625 -8.1875 8.0625 C-8.1875 6.7425 -8.1875 5.4225 -8.1875 4.0625 C-7.1975 4.0625 -6.2075 4.0625 -5.1875 4.0625 C-5.1875 2.7425 -5.1875 1.4225 -5.1875 0.0625 C-2.1875 -0.9375 -2.1875 -0.9375 0 0 Z " fill="#1BCB7B" transform="translate(203.1875,248.9375)"/>
<path d="M0 0 C0.66 0 1.32 0 2 0 C2.33 1.32 2.66 2.64 3 4 C4.32 4.33 5.64 4.66 7 5 C7 6.98 7 8.96 7 11 C3.535 9.02 3.535 9.02 0 7 C0 4.69 0 2.38 0 0 Z " fill="#FA790E" transform="translate(227,206)"/>
<path d="M0 0 C0.625 1.75 0.625 1.75 1 4 C0.5359375 4.8971875 0.5359375 4.8971875 0.0625 5.8125 C-1.17789896 8.36626256 -1.40230295 10.42917071 -1.625 13.25 C-1.69976562 14.14203125 -1.77453125 15.0340625 -1.8515625 15.953125 C-1.90054688 16.62859375 -1.94953125 17.3040625 -2 18 C-2.99 18.33 -3.98 18.66 -5 19 C-5 20.65 -5 22.3 -5 24 C-5.33 24 -5.66 24 -6 24 C-5.32064671 15.71188986 -3.98547688 7.40159992 0 0 Z " fill="#597071" transform="translate(184,157)"/>
<path d="M0 0 C1.32 0.33 2.64 0.66 4 1 C4.061875 1.556875 4.12375 2.11375 4.1875 2.6875 C5.33373872 5.94987173 7.49390197 7.68667874 10 10 C9.67 10.99 9.34 11.98 9 13 C7.87187697 11.89902432 6.74762189 10.79408444 5.625 9.6875 C4.99851563 9.07261719 4.37203125 8.45773437 3.7265625 7.82421875 C1.21385547 5.16939028 0 3.72782094 0 0 Z " fill="#54CB93" transform="translate(193,345)"/>
<path d="M0 0 C0.66 0 1.32 0 2 0 C2 0.66 2 1.32 2 2 C3.65 2.33 5.3 2.66 7 3 C7.33 3.99 7.66 4.98 8 6 C7.34 6 6.68 6 6 6 C6.33 6.99 6.66 7.98 7 9 C6 10 6 10 2.9375 10.0625 C1.968125 10.041875 0.99875 10.02125 0 10 C1.32 9.67 2.64 9.34 4 9 C4 8.01 4 7.02 4 6 C3.34 5.67 2.68 5.34 2 5 C2 4.34 2 3.68 2 3 C1.01 2.67 0.02 2.34 -1 2 C-0.67 1.34 -0.34 0.68 0 0 Z " fill="#14CC7C" transform="translate(208,352)"/>
<path d="M0 0 C13.365 0.495 13.365 0.495 27 1 C27 1.33 27 1.66 27 2 C18.42 2.33 9.84 2.66 1 3 C0.67 2.01 0.34 1.02 0 0 Z " fill="#4F6667" transform="translate(247,156)"/>
<path d="M0 0 C0.66 1.32 1.32 2.64 2 4 C3.02814938 5.75797562 4.07046469 7.50772427 5.125 9.25 C5.93324219 10.58804688 5.93324219 10.58804688 6.7578125 11.953125 C7.16773438 12.62859375 7.57765625 13.3040625 8 14 C7.01 14.495 7.01 14.495 6 15 C6 14.34 6 13.68 6 13 C5.34 13 4.68 13 4 13 C3.67 11.68 3.34 10.36 3 9 C2.01 9 1.02 9 0 9 C0 6.03 0 3.06 0 0 Z " fill="#F19E60" transform="translate(226,197)"/>
<path d="M0 0 C0.66 0 1.32 0 2 0 C2.33 1.65 2.66 3.3 3 5 C3.33 5 3.66 5 4 5 C3.6875 8.375 3.6875 8.375 3 12 C2.01 12.66 1.02 13.32 0 14 C0 9.38 0 4.76 0 0 Z " fill="#F78B37" transform="translate(150,133)"/>
<path d="M0 0 C0.66 0 1.32 0 2 0 C2 7.26 2 14.52 2 22 C1.67 22 1.34 22 1 22 C0.93941406 21.38511719 0.87882812 20.77023438 0.81640625 20.13671875 C0.73261719 19.32847656 0.64882813 18.52023438 0.5625 17.6875 C0.48128906 16.88699219 0.40007812 16.08648437 0.31640625 15.26171875 C0.04734307 12.83912821 0.04734307 12.83912821 -1 10 C-0.91538508 8.26675881 -0.76395645 6.53607188 -0.5625 4.8125 C-0.46066406 3.91144531 -0.35882813 3.01039062 -0.25390625 2.08203125 C-0.17011719 1.39496094 -0.08632813 0.70789063 0 0 Z " fill="#465D5F" transform="translate(341,110)"/>
<path d="M0 0 C2.475 0.495 2.475 0.495 5 1 C5.12375 1.969375 5.2475 2.93875 5.375 3.9375 C5.58125 4.948125 5.7875 5.95875 6 7 C6.66 7.33 7.32 7.66 8 8 C7.01 8 6.02 8 5 8 C5 7.34 5 6.68 5 6 C4.34 6 3.68 6 3 6 C0 2.53846154 0 2.53846154 0 0 Z " fill="#013F2E" transform="translate(192,233)"/>
<path d="M0 0 C-1 2 -1 2 -3.3125 3.125 C-8.54903094 4.36756666 -13.64355504 4.15601296 -19 4 C-19 3.67 -19 3.34 -19 3 C-18.32453125 2.95101562 -17.6490625 2.90203125 -16.953125 2.8515625 C-16.06109375 2.77679688 -15.1690625 2.70203125 -14.25 2.625 C-13.36828125 2.55539063 -12.4865625 2.48578125 -11.578125 2.4140625 C-7.23220283 1.71608106 -4.5969451 -0.25538584 0 0 Z " fill="#F5B076" transform="translate(144,152)"/>
<path d="M0 0 C0.33 0 0.66 0 1 0 C1.04898438 0.56847656 1.09796875 1.13695313 1.1484375 1.72265625 C1.63143081 6.71081129 2.47638163 11.22599578 4 16 C3.01 16 2.02 16 1 16 C0.14701624 12.32612505 -0.10789471 8.9552607 -0.0625 5.1875 C-0.05347656 4.21167969 -0.04445313 3.23585937 -0.03515625 2.23046875 C-0.02355469 1.49441406 -0.01195313 0.75835937 0 0 Z " fill="#F09D5D" transform="translate(106,125)"/>
<path d="M0 0 C0.33 0.66 0.66 1.32 1 2 C1.66 2.33 2.32 2.66 3 3 C2.0234375 4.69270833 1.046875 6.38541667 0.0703125 8.078125 C-1.01399882 10.02513657 -2.01764857 11.99989709 -3 14 C-2.58846263 9.02906176 -2.20399168 4.55491614 0 0 Z " fill="#4E6567" transform="translate(229,168)"/>
<path d="M0 0 C0.66 0 1.32 0 2 0 C2 0.99 2 1.98 2 3 C3.32 3.66 4.64 4.32 6 5 C6 5.66 6 6.32 6 7 C4.68 6.67 3.36 6.34 2 6 C2 5.34 2 4.68 2 4 C1.01 3.67 0.02 3.34 -1 3 C-0.67 2.01 -0.34 1.02 0 0 Z " fill="#14CC7B" transform="translate(224,320)"/>
<path d="M0 0 C0.99 0.33 1.98 0.66 3 1 C3 2.98 3 4.96 3 7 C2.01 7.33 1.02 7.66 0 8 C0 5.36 0 2.72 0 0 Z " fill="#17CC7E" transform="translate(190,320)"/>
<path d="M0 0 C-6.625 2.875 -6.625 2.875 -10 4 C-10 3.34 -10 2.68 -10 2 C-10.66 1.67 -11.32 1.34 -12 1 C-10.56496445 0.63597631 -9.12683494 0.28413409 -7.6875 -0.0625 C-6.88699219 -0.25972656 -6.08648437 -0.45695312 -5.26171875 -0.66015625 C-3 -1 -3 -1 0 0 Z " fill="#395456" transform="translate(246,112)"/>
<path d="M0 0 C8.57142857 -0.28571429 8.57142857 -0.28571429 12 2 C11.67 2.99 11.34 3.98 11 5 C11 4.34 11 3.68 11 3 C9.02 3 7.04 3 5 3 C5 2.34 5 1.68 5 1 C3.35 1 1.7 1 0 1 C0 0.67 0 0.34 0 0 Z " fill="#F3985A" transform="translate(133,106)"/>
<path d="M0 0 C3.3 0 6.6 0 10 0 C10.33 0.66 10.66 1.32 11 2 C6.58937864 3.0257259 4.07369424 3.03684712 0 1 C0 0.67 0 0.34 0 0 Z " fill="#FA7921" transform="translate(122,107)"/>
<path d="M0 0 C1.32 0 2.64 0 4 0 C4.33 0.99 4.66 1.98 5 3 C7.01508358 3.73323796 7.01508358 3.73323796 9 4 C9 4.99 9 5.98 9 7 C4.58110387 5.64978174 2.65654657 3.73884332 0 0 Z " fill="#68D09E" transform="translate(203,358)"/>
<path d="M0 0 C0.66 0 1.32 0 2 0 C2.33 2.31 2.66 4.62 3 7 C1.68 6.67 0.36 6.34 -1 6 C-0.67 4.02 -0.34 2.04 0 0 Z " fill="#16CC7D" transform="translate(222,355)"/>
<path d="M0 0 C1.7074998 1.28062485 3.37373596 2.61767557 5 4 C5 4.66 5 5.32 5 6 C3.35 6.33 1.7 6.66 0 7 C0 4.69 0 2.38 0 0 Z " fill="#F19044" transform="translate(234,211)"/>
<path d="M0 0 C2.97 0.99 5.94 1.98 9 3 C6 5 6 5 3 5 C3 4.34 3 3.68 3 3 C2.01 2.67 1.02 2.34 0 2 C0 1.34 0 0.68 0 0 Z " fill="#66D4A3" transform="translate(240,327)"/>
<path d="M0 0 C2.49361571 1.20381448 4.68143083 2.45428722 7 4 C7 4.99 7 5.98 7 7 C5.0625 6.6875 5.0625 6.6875 3 6 C2.67 5.01 2.34 4.02 2 3 C1.34 2.67 0.68 2.34 0 2 C0 1.34 0 0.68 0 0 Z " fill="#2FBD82" transform="translate(202,247)"/>
<path d="M0 0 C1.32 0.66 2.64 1.32 4 2 C2.71034824 3.37562854 1.37310707 4.70766393 0 6 C-0.66 6 -1.32 6 -2 6 C-1.34 4.02 -0.68 2.04 0 0 Z " fill="#F5944D" transform="translate(146,146)"/>
<path d="M0 0 C1.65 0 3.3 0 5 0 C5 1.32 5 2.64 5 4 C3.35 3.67 1.7 3.34 0 3 C0 2.01 0 1.02 0 0 Z " fill="#F97A1A" transform="translate(121,146)"/>
<path d="M0 0 C0.66 0.33 1.32 0.66 2 1 C2 2.65 2 4.3 2 6 C0.68 6.33 -0.64 6.66 -2 7 C-2.6875 5.1875 -2.6875 5.1875 -3 3 C-1.5625 1.25 -1.5625 1.25 0 0 Z " fill="#FA7A18" transform="translate(110,129)"/>
<path d="M0 0 C0.66 0.99 1.32 1.98 2 3 C1.01 4.98 0.02 6.96 -1 9 C-1.66 8.67 -2.32 8.34 -3 8 C-1.125 1.125 -1.125 1.125 0 0 Z " fill="#4B6564" transform="translate(188,149)"/>
<path d="M0 0 C0.99 0 1.98 0 3 0 C3 0.66 3 1.32 3 2 C3.66 2 4.32 2 5 2 C5.33 2.99 5.66 3.98 6 5 C5.01 5.33 4.02 5.66 3 6 C2.01 4.02 1.02 2.04 0 0 Z " fill="#79D7AB" transform="translate(188,340)"/>
</svg>
