<?xml version="1.0" encoding="UTF-8"?>
<svg version="1.1" xmlns="http://www.w3.org/2000/svg" width="276" height="372">
<path d="M0 0 C0.77140823 -0.00014603 1.54281647 -0.00029205 2.33760071 -0.0004425 C4.86979045 0.00025031 7.40190525 0.00801298 9.93408203 0.01586914 C11.69670573 0.01773556 13.45932994 0.01915841 15.22195435 0.02015686 C19.84807787 0.02396437 24.47416971 0.0337795 29.10028076 0.04486084 C34.65787094 0.05691739 40.21547176 0.06148562 45.77307129 0.06731415 C54.2043677 0.07699225 62.63559467 0.09616116 71.06689453 0.11352539 C71.06689453 12.98352539 71.06689453 25.85352539 71.06689453 39.11352539 C63.13722656 39.15219727 63.13722656 39.15219727 55.04736328 39.19165039 C51.67947763 39.21684483 48.31167948 39.2431976 44.94384766 39.27368164 C39.60929135 39.32185853 34.27493785 39.36596219 28.94018555 39.38452148 C24.6345976 39.39977043 20.32954361 39.43435988 16.02419472 39.48183441 C14.38938374 39.49656388 12.75449649 39.50456151 11.11961937 39.50540924 C0.64445253 39.51629417 -9.4941451 39.88126596 -18.30810547 46.30102539 C-23.56740202 51.93598598 -26.22807156 56.71873957 -26.49560547 64.55102539 C-26.12047614 72.79425185 -24.29002089 79.2927331 -18.18310547 85.05102539 C-12.31613726 90.06752972 -5.48416787 91.5615265 2.04345703 91.54589844 C2.79565018 91.55609009 3.54784332 91.56628174 4.3228302 91.57678223 C6.77926297 91.60668575 9.23530439 91.61614297 11.69189453 91.62524414 C13.40683261 91.6421077 15.12175845 91.66026018 16.83666992 91.67964172 C21.327903 91.72696597 25.81908645 91.75688864 30.31048584 91.78308105 C35.71139313 91.81824119 41.11210997 91.87520355 46.51286316 91.92847443 C54.69751548 92.00678211 62.881922 92.05754327 71.06689453 92.11352539 C71.06689453 105.31352539 71.06689453 118.51352539 71.06689453 132.11352539 C51.7433615 132.27396063 51.7433615 132.27396063 43.41064453 132.30883789 C37.7581451 132.33261032 32.1059085 132.36051673 26.45361328 132.4152832 C21.88887685 132.45922765 17.32442285 132.48276328 12.75949097 132.49303436 C11.03103193 132.50033965 9.30258569 132.51460067 7.57424927 132.53644562 C-3.9968372 132.67667786 -16.33434416 132.41290605 -26.93310547 127.11352539 C-26.88861156 132.20040627 -26.81842827 137.28608582 -26.72558594 142.37231445 C-26.69755792 144.09845357 -26.67625405 145.82471669 -26.66210938 147.55102539 C-26.68642939 164.19181619 -26.68642939 164.19181619 -18.30810547 178.05102539 C-9.77144211 185.63709959 2.55550802 184.49920041 13.19580078 184.37133789 C14.83820444 184.3631882 16.48061611 184.35652988 18.12303162 184.35128784 C22.41512534 184.33428517 26.70689525 184.30007976 30.99884033 184.26123047 C37.89909168 184.20167239 44.79951294 184.16824253 51.69993401 184.13546371 C54.10924059 184.12147756 56.51838937 184.09990551 58.92762756 184.07717896 C60.3914479 184.06716379 61.85526927 184.05729822 63.3190918 184.04760742 C64.60131119 184.0363382 65.88353058 184.02506897 67.2046051 184.01345825 C70.06689453 184.11352539 70.06689453 184.11352539 71.06689453 185.11352539 C71.15554661 187.99786359 71.18210749 190.85814697 71.16455078 193.74243164 C71.16242836 195.03877785 71.16242836 195.03877785 71.16026306 196.36131287 C71.15464692 199.13291831 71.14209172 201.90444419 71.12939453 204.67602539 C71.12438161 206.55037319 71.11981834 208.42472224 71.11572266 210.29907227 C71.10467225 214.90392083 71.08739683 219.5087096 71.06689453 224.11352539 C60.52148986 224.23011025 49.97624209 224.3185876 39.43032074 224.37258625 C34.53176374 224.39852172 29.63365226 224.43362091 24.73535156 224.49072266 C19.99553643 224.54562205 15.25614589 224.57506611 10.51603699 224.58791161 C8.72056914 224.59704879 6.92512075 224.61488685 5.12983704 224.64217567 C-15.40976643 224.94155886 -32.48836578 219.77794293 -47.75341797 205.29321289 C-58.43362808 194.61300278 -66.99673766 179.9108145 -67.08027649 164.40592957 C-67.08743179 163.4882077 -67.0945871 162.57048584 -67.10195923 161.62495422 C-67.10464813 160.63013535 -67.10733704 159.63531647 -67.11010742 158.61035156 C-67.11667862 157.55267578 -67.12324982 156.495 -67.13002014 155.40527344 C-67.14972305 151.90567955 -67.16141304 148.40612865 -67.17138672 144.90649414 C-67.17546225 143.70643549 -67.17953777 142.50637684 -67.1837368 141.26995277 C-67.20459104 134.91027627 -67.21889203 128.55062126 -67.22827148 122.19091797 C-67.23929633 115.6559153 -67.27365303 109.12125684 -67.31344318 102.58637524 C-67.33973373 97.53393469 -67.34797464 92.48157434 -67.35155296 87.42907143 C-67.35639178 85.02239995 -67.36792738 82.6157314 -67.38659096 80.20912743 C-67.5639485 55.81058203 -64.23341665 36.43787315 -46.94873047 17.99633789 C-37.991906 9.34256387 -26.12815938 3.45203811 -13.93310547 1.11352539 C-13.05588837 0.94111832 -12.17867126 0.76871124 -11.27487183 0.59107971 C-7.49725052 0.05123964 -3.80555813 -0.01907869 0 0 Z " fill="#FDFEFE" transform="translate(183.93310546875,76.886474609375)"/>
<path d="M0 0 C0.99 0.495 0.99 0.495 2 1 C2.46471265 2.71194145 2.84491816 4.44700034 3.1875 6.1875 C7.58909915 24.62603974 18.36482752 37.09314667 34 47 C35.04051514 47.52843506 36.08103027 48.05687012 37.15307617 48.60131836 C40 51 40 51 40.70947266 54.78369141 C40.72339156 56.30632672 40.70633956 57.82945058 40.6640625 59.3515625 C40.66828217 60.16563568 40.67250183 60.97970886 40.67684937 61.81845093 C40.68771057 64.42156017 40.65969853 67.02212835 40.625 69.625 C39.84501076 86.42860761 39.84501076 86.42860761 46.83837891 101.12158203 C53.46578063 107.85765938 61.72164582 109.24710643 70.91235352 109.32470703 C73.98502887 109.32835614 77.05649225 109.29473316 80.12890625 109.2578125 C81.77130991 109.24966281 83.41372157 109.24300449 85.05613708 109.23776245 C89.34823081 109.22075978 93.64000072 109.18655437 97.9319458 109.14770508 C104.83219715 109.088147 111.73261841 109.05471714 118.63303947 109.02193832 C121.04234606 109.00795217 123.45149484 108.98638012 125.86073303 108.96365356 C127.32455337 108.9536384 128.78837474 108.94377283 130.25219727 108.93408203 C131.53441666 108.92281281 132.81663605 108.91154358 134.13771057 108.89993286 C137 109 137 109 138 110 C138.08865208 112.8843382 138.11521296 115.74462158 138.09765625 118.62890625 C138.09553383 119.92525246 138.09553383 119.92525246 138.09336853 121.24778748 C138.08775239 124.01939292 138.07519719 126.7909188 138.0625 129.5625 C138.05748708 131.4368478 138.05292381 133.31119685 138.04882812 135.18554688 C138.03777772 139.79039544 138.0205023 144.39518421 138 149 C127.45459533 149.11658486 116.90934756 149.20506221 106.36342621 149.25906086 C101.46486921 149.28499633 96.56675773 149.32009552 91.66845703 149.37719727 C86.92864189 149.43209666 82.18925136 149.46154072 77.44914246 149.47438622 C75.65367461 149.4835234 73.85822621 149.50136146 72.0629425 149.52865028 C51.52333904 149.82803347 34.44473969 144.66441754 19.1796875 130.1796875 C7.75360289 118.75360289 -0.09616021 103.81355692 -0.12442017 87.41253662 C-0.12082489 86.55154358 -0.11722961 85.69055054 -0.11352539 84.8034668 C-0.11367142 83.88590103 -0.11381744 82.96833527 -0.1139679 82.02296448 C-0.11327275 78.99835829 -0.10549897 75.97381414 -0.09765625 72.94921875 C-0.09579066 70.84886204 -0.09436742 68.74850489 -0.09336853 66.64814758 C-0.08955449 61.1260355 -0.07973368 55.60394981 -0.06866455 50.08184814 C-0.05842652 44.44454302 -0.05386578 38.80723362 -0.04882812 33.16992188 C-0.03811043 22.11326967 -0.02104735 11.05663703 0 0 Z " fill="#01CE7B" transform="translate(117,152)"/>
<path d="M0 0 C0.66 0 1.32 0 2 0 C2.29390625 0.96099609 2.29390625 0.96099609 2.59375 1.94140625 C4.92397462 8.68097832 7.85744355 13.21610493 14 17 C19.45988362 19.34048149 24.00734553 20.4447657 29.9765625 20.43237305 C30.72875565 20.4425647 31.48094879 20.45275635 32.25593567 20.46325684 C34.71236843 20.49316036 37.16840986 20.50261758 39.625 20.51171875 C41.33993808 20.52858231 43.05486392 20.54673479 44.76977539 20.56611633 C49.26100847 20.61344058 53.75219192 20.64336325 58.24359131 20.66955566 C63.6444986 20.7047158 69.04521544 20.76167816 74.44596863 20.81494904 C82.63062095 20.89325672 90.81502747 20.94401788 99 21 C99 34.2 99 47.4 99 61 C79.67646697 61.16043524 79.67646697 61.16043524 71.34375 61.1953125 C65.69125057 61.21908493 60.03901397 61.24699133 54.38671875 61.30175781 C49.82198232 61.34570226 45.25752832 61.36923789 40.69259644 61.37950897 C38.9641374 61.38681426 37.23569116 61.40107528 35.50735474 61.42292023 C23.82557574 61.56449397 10.08719274 61.72479516 0 55 C-0.36076355 52.67147827 -0.36076355 52.67147827 -0.34057617 49.72412109 C-0.34034958 48.6231308 -0.34012299 47.5221405 -0.33988953 46.38778687 C-0.32440567 45.19505157 -0.30892181 44.00231628 -0.29296875 42.7734375 C-0.28872391 41.55548492 -0.28447906 40.33753235 -0.28010559 39.08267212 C-0.26326831 35.17989296 -0.22560595 31.27762396 -0.1875 27.375 C-0.17245974 24.73438244 -0.15877019 22.09375681 -0.14648438 19.453125 C-0.11334822 12.96857496 -0.06309861 6.48432392 0 0 Z " fill="#FE7801" transform="translate(156,148)"/>
<path d="M0 0 C4.60848438 3.96544005 8.31222759 8.50440786 8.92578125 14.73046875 C9.12578464 22.19375311 8.21895786 27.4732153 3.07421875 33.06640625 C-2.13554233 37.86031057 -7.10467773 39.78180982 -14.30078125 39.5625 C-20.39218105 38.80551051 -25.07046106 35.55453894 -29.3125 31.3125 C-33.37499968 25.67782553 -34.22813485 20.13509623 -33.3125 13.3125 C-31.64204656 8.03738387 -29.22526086 4.22526086 -25.3125 0.3125 C-16.47897913 -4.26200188 -8.90025371 -4.53409151 0 0 Z " fill="#FC7907" transform="translate(90.3125,75.6875)"/>
<path d="M0 0 C0.99 0.495 0.99 0.495 2 1 C2.46471265 2.71194145 2.84491816 4.44700034 3.1875 6.1875 C7.58909915 24.62603974 18.36482752 37.09314667 34 47 C35.04051514 47.52843506 36.08103027 48.05687012 37.15307617 48.60131836 C40 51 40 51 40.70947266 54.78369141 C40.72339156 56.30632672 40.70633956 57.82945058 40.6640625 59.3515625 C40.66828217 60.16563568 40.67250183 60.97970886 40.67684937 61.81845093 C40.68771057 64.42156017 40.65969853 67.02212835 40.625 69.625 C40.14035994 84.83101287 40.14035994 84.83101287 45 99 C45.33 99.66 45.66 100.32 46 101 C45.01 101 44.02 101 43 101 C42.3490741 99.75264433 41.70448331 98.50198168 41.0625 97.25 C40.52302734 96.20585937 40.52302734 96.20585937 39.97265625 95.140625 C37.7749405 90.30388511 37.92416587 85.70471422 38 80.47265625 C38.00115804 78.7766926 37.99977768 77.08072567 37.99609375 75.38476562 C37.9916692 72.71946477 38.00009259 70.05767865 38.05126953 67.39282227 C38.69045441 57.43436057 38.69045441 57.43436057 35.05273438 48.73217773 C32.67943576 47.38813057 30.64919738 46.61397708 28 46 C25.98271862 45.38761101 23.97395523 44.74023321 22 44 C21.375 42 21.375 42 21 40 C19.11683841 38.89163577 19.11683841 38.89163577 17 38 C15.25 36.375 15.25 36.375 14 35 C13.67 35.99 13.34 36.98 13 38 C12.34 38 11.68 38 11 38 C11.33 38.99 11.66 39.98 12 41 C11.505 41.495 11.505 41.495 11 42 C10.95919217 43.99958364 10.95745644 46.00045254 11 48 C11.66 48 12.32 48 13 48 C13 45.69 13 43.38 13 41 C15.4375 41.75 15.4375 41.75 18 43 C18.8125 45.125 18.8125 45.125 19 47 C18.360625 47.433125 17.72125 47.86625 17.0625 48.3125 C14.73253997 49.91239177 14.73253997 49.91239177 14 53 C13.01 53.495 13.01 53.495 12 54 C11.67 66.54 11.34 79.08 11 92 C10.67 92 10.34 92 10 92 C9.21560352 88.5335262 8.87378414 85.33382708 8.87060547 81.7824707 C8.86745331 80.76824539 8.86430115 79.75402008 8.86105347 78.70906067 C8.86408981 77.08383736 8.86408981 77.08383736 8.8671875 75.42578125 C8.86575241 73.74551094 8.86575241 73.74551094 8.86428833 72.03129578 C8.86360887 69.66856836 8.86544681 67.30583905 8.86962891 64.94311523 C8.87499549 61.3155502 8.86966823 57.68810814 8.86328125 54.06054688 C8.86394178 51.76562473 8.86522241 49.47070265 8.8671875 47.17578125 C8.86516327 46.08622635 8.86313904 44.99667145 8.86105347 43.87409973 C8.86420563 42.8693309 8.86735779 41.86456207 8.87060547 40.8293457 C8.87140106 39.94285843 8.87219666 39.05637115 8.87301636 38.14302063 C9 36 9 36 10 34 C10.66 34 11.32 34 12 34 C12 33.01 12 32.02 12 31 C11.21625 30.71125 10.4325 30.4225 9.625 30.125 C6.32449697 28.7104987 5.2895013 27.67550303 3.875 24.375 C3.441875 23.199375 3.441875 23.199375 3 22 C2.82293546 30.92720545 2.65698702 39.85452817 2.50522423 48.78219986 C2.43440533 52.92767879 2.35976002 57.07301515 2.27636719 61.21826172 C2.19602848 65.21869657 2.12574475 69.21919336 2.06242752 73.21993256 C2.03650527 74.74620827 2.0069612 76.2724269 1.97373581 77.7985611 C1.92781398 79.93630721 1.89477801 82.07389386 1.86474609 84.21191406 C1.84253998 85.4288092 1.82033386 86.64570435 1.79745483 87.8994751 C1.99454193 90.91644878 2.48900676 92.44589499 4 95 C4.23828125 97.0078125 4.23828125 97.0078125 4.3125 99.125 C4.87042269 105.3551367 7.55476997 111.55476997 12 116 C12.125 118.625 12.125 118.625 12 121 C3.07129267 110.79576305 -0.16892515 98.07054605 -0.11352539 84.8034668 C-0.11367142 83.88590103 -0.11381744 82.96833527 -0.1139679 82.02296448 C-0.11327275 78.99835829 -0.10549897 75.97381414 -0.09765625 72.94921875 C-0.09579066 70.84886204 -0.09436742 68.74850489 -0.09336853 66.64814758 C-0.08955449 61.1260355 -0.07973368 55.60394981 -0.06866455 50.08184814 C-0.05842652 44.44454302 -0.05386578 38.80723362 -0.04882812 33.16992188 C-0.03811043 22.11326967 -0.02104735 11.05663703 0 0 Z " fill="#12CC7A" transform="translate(117,152)"/>
<path d="M0 0 C0.66 0 1.32 0 2 0 C2.24234375 0.66386719 2.4846875 1.32773438 2.734375 2.01171875 C4.61153659 6.95731756 6.33322093 11.07130813 10 15 C7.33333333 13.66666667 4.66666667 12.33333333 2 11 C2.06905248 15.46628401 2.15710231 19.93167585 2.26245117 24.3972168 C2.29561916 25.91501621 2.32367632 27.43293656 2.34643555 28.95092773 C2.38013278 31.13838019 2.43245204 33.32473264 2.48828125 35.51171875 C2.51446533 36.82615967 2.54064941 38.14060059 2.56762695 39.49487305 C3.0150641 43.12212041 3.88098449 45.06692731 6 48 C4.68 48 3.36 48 2 48 C2 49.65 2 51.3 2 53 C2.5775 52.7525 3.155 52.505 3.75 52.25 C4.4925 52.1675 5.235 52.085 6 52 C7.37701298 53.28817344 8.70644173 54.62804426 10 56 C14.26490279 58.24355632 18.38130662 58.30524909 23.0949707 58.31884766 C24.29575508 58.33391609 24.29575508 58.33391609 25.52079773 58.34928894 C28.15578522 58.38007659 30.79067129 58.39714371 33.42578125 58.4140625 C35.25710418 58.43277771 37.08841853 58.45235139 38.91972351 58.4727478 C43.73156669 58.52403772 48.54343781 58.56368028 53.35540771 58.60089111 C59.13332614 58.64799792 64.91110622 58.70958234 70.68891144 58.76873779 C79.45921836 58.85691179 88.22949927 58.92670353 97 59 C97 47.12 97 35.24 97 23 C91.64394531 23.02320313 86.28789062 23.04640625 80.76953125 23.0703125 C77.37434411 23.08053276 73.97917596 23.09016079 70.58398438 23.09765625 C65.19616756 23.10960716 59.80841879 23.12373836 54.4206543 23.15087891 C50.07644086 23.17262542 45.7323004 23.18457247 41.38803673 23.18975449 C39.73146097 23.19344699 38.07488915 23.20065752 36.4183445 23.21146011 C34.09627302 23.22599912 31.77450232 23.22797694 29.45239258 23.22705078 C28.76906357 23.23424133 28.08573456 23.24143188 27.38169861 23.24884033 C23.47990349 23.23202464 20.51707605 22.70441597 17 21 C17.33 20.34 17.66 19.68 18 19 C18.50484924 19.16076523 19.00969849 19.32153046 19.52984619 19.48716736 C22.85715822 20.17795601 26.13889655 20.1777241 29.52246094 20.20532227 C30.27406998 20.21522186 31.02567902 20.22512146 31.80006409 20.23532104 C34.27813596 20.26684466 36.75622698 20.29165723 39.234375 20.31640625 C40.95502209 20.33698367 42.6756642 20.35798036 44.39630127 20.37937927 C48.92047092 20.43451851 53.44468557 20.48396367 57.96893311 20.53222656 C63.39971326 20.59134358 68.83041134 20.65752667 74.26112366 20.72252655 C82.50736555 20.82043355 90.7536606 20.90935969 99 21 C99 34.2 99 47.4 99 61 C79.67646697 61.16043524 79.67646697 61.16043524 71.34375 61.1953125 C65.69125057 61.21908493 60.03901397 61.24699133 54.38671875 61.30175781 C49.82198232 61.34570226 45.25752832 61.36923789 40.69259644 61.37950897 C38.9641374 61.38681426 37.23569116 61.40107528 35.50735474 61.42292023 C23.82557574 61.56449397 10.08719274 61.72479516 0 55 C-0.36076355 52.67147827 -0.36076355 52.67147827 -0.34057617 49.72412109 C-0.34034958 48.6231308 -0.34012299 47.5221405 -0.33988953 46.38778687 C-0.32440567 45.19505157 -0.30892181 44.00231628 -0.29296875 42.7734375 C-0.28872391 41.55548492 -0.28447906 40.33753235 -0.28010559 39.08267212 C-0.26326831 35.17989296 -0.22560595 31.27762396 -0.1875 27.375 C-0.17245974 24.73438244 -0.15877019 22.09375681 -0.14648438 19.453125 C-0.11334822 12.96857496 -0.06309861 6.48432392 0 0 Z " fill="#DE8138" transform="translate(156,148)"/>
<path d="M0 0 C0.99 0.495 0.99 0.495 2 1 C2 13.87 2 26.74 2 40 C-18.0722308 40.20054405 -18.0722308 40.20054405 -26.72265625 40.24414062 C-32.59251917 40.27386542 -38.46198691 40.30877315 -44.33154297 40.37719727 C-49.07135811 40.43209666 -53.81074864 40.46154072 -58.55085754 40.47438622 C-60.34632539 40.4835234 -62.14177379 40.50136146 -63.9370575 40.52865028 C-80.5608388 40.77095684 -95.17564538 37.92453668 -109 28 C-109.33 27.34 -109.66 26.68 -110 26 C-107.69 26 -105.38 26 -103 26 C-102.67 27.32 -102.34 28.64 -102 30 C-101.05125 29.814375 -100.1025 29.62875 -99.125 29.4375 C-96 29 -96 29 -94 30 C-91.59915538 29.19027984 -91.59915538 29.19027984 -89 28 C-86.3125 26.8125 -86.3125 26.8125 -84 26 C-83.34 26.33 -82.68 26.66 -82 27 C-82 27.99 -82 28.98 -82 30 C-84.29629994 31.14814997 -86.07698086 31.30769809 -88.625 31.5625 C-89.85089844 31.68818359 -89.85089844 31.68818359 -91.1015625 31.81640625 C-91.72804687 31.87699219 -92.35453125 31.93757813 -93 32 C-87.54114763 36.80379008 -81.00396866 37.29715799 -74.00097656 37.30297852 C-73.23424118 37.31141785 -72.4675058 37.31985718 -71.67753601 37.32855225 C-69.16522544 37.3541616 -66.65303194 37.36642886 -64.140625 37.37890625 C-62.38660773 37.39509475 -60.63259937 37.41227615 -58.87860107 37.43040466 C-54.27671423 37.47594802 -49.67481526 37.51083222 -45.07281494 37.54260254 C-37.69325907 37.59461956 -30.31383381 37.6596203 -22.93444061 37.73081779 C-20.35801871 37.75364143 -17.7816135 37.76991407 -15.20513916 37.78553772 C-13.63057264 37.7989423 -12.05600789 37.81255692 -10.48144531 37.82641602 C-9.40605751 37.83033607 -9.40605751 37.83033607 -8.3089447 37.83433533 C-5.26565231 37.86620616 -2.91144936 38.02951688 0 39 C0 26.13 0 13.26 0 0 Z " fill="#39C083" transform="translate(253,261)"/>
<path d="M0 0 C0.99 0.495 0.99 0.495 2 1 C2.46471265 2.71194145 2.84491816 4.44700034 3.1875 6.1875 C4.70694482 12.75339107 7.35143421 18.15239765 10.4765625 24.06640625 C12 27 12 27 13 30 C12.01 29.67 11.02 29.34 10 29 C9.731875 28.2575 9.46375 27.515 9.1875 26.75 C7.97717423 23.94714033 7.23342356 23.16437976 4.92578125 21.328125 C3.96027344 20.55984375 2.99476562 19.7915625 2 19 C1.95366266 28.31853458 1.91812369 37.6370295 1.89637566 46.95565414 C1.88593778 51.28265197 1.8717785 55.60957097 1.84912109 59.93652344 C1.82739286 64.11215235 1.8154314 68.28770545 1.81024551 72.46338654 C1.80654972 74.05659427 1.7993328 75.64979786 1.78853989 77.24297333 C1.77402515 79.47424798 1.77202204 81.70520918 1.77294922 83.93652344 C1.768508 85.20671326 1.76406677 86.47690308 1.75949097 87.7855835 C1.98855803 90.84707746 2.46263514 92.41286121 4 95 C4.23828125 97.0078125 4.23828125 97.0078125 4.3125 99.125 C4.87042269 105.3551367 7.55476997 111.55476997 12 116 C12.125 118.625 12.125 118.625 12 121 C3.07129267 110.79576305 -0.16892515 98.07054605 -0.11352539 84.8034668 C-0.11367142 83.88590103 -0.11381744 82.96833527 -0.1139679 82.02296448 C-0.11327275 78.99835829 -0.10549897 75.97381414 -0.09765625 72.94921875 C-0.09579066 70.84886204 -0.09436742 68.74850489 -0.09336853 66.64814758 C-0.08955449 61.1260355 -0.07973368 55.60394981 -0.06866455 50.08184814 C-0.05842652 44.44454302 -0.05386578 38.80723362 -0.04882812 33.16992188 C-0.03811043 22.11326967 -0.02104735 11.05663703 0 0 Z " fill="#45BB86" transform="translate(117,152)"/>
<path d="M0 0 C4.04927348 3.48425857 6.99154267 7.224628 8.6875 12.3125 C8.80604556 14.14306393 8.86267233 15.97814306 8.875 17.8125 C8.88917969 18.7715625 8.90335938 19.730625 8.91796875 20.71875 C8.6875 23.3125 8.6875 23.3125 6.6875 26.3125 C6.6875 21.3625 6.6875 16.4125 6.6875 11.3125 C6.0275 11.9725 5.3675 12.6325 4.6875 13.3125 C2.875 14.25 2.875 14.25 0.6875 14.3125 C-2.34935225 11.91126799 -4.04108747 10.25200492 -5.125 6.5 C-5.186875 5.778125 -5.24875 5.05625 -5.3125 4.3125 C-6.6325 3.9825 -7.9525 3.6525 -9.3125 3.3125 C-7.9925 2.9825 -6.6725 2.6525 -5.3125 2.3125 C-5.3125 1.3225 -5.3125 0.3325 -5.3125 -0.6875 C-6.3025 -0.1925 -6.3025 -0.1925 -7.3125 0.3125 C-10.30255469 0.38316599 -13.27944229 0.30943034 -16.26953125 0.25 C-19.09204223 0.30797198 -21.57253853 0.66422815 -24.3125 1.3125 C-22.0809095 -1.75593694 -19.25854721 -2.66939757 -15.62890625 -3.46484375 C-10.0050402 -4.00541772 -4.97340488 -2.53362135 0 0 Z " fill="#F57C12" transform="translate(90.3125,75.6875)"/>
<path d="M0 0 C0.94875 0.763125 1.8975 1.52625 2.875 2.3125 C11.56015229 8.42032473 20.84829903 8.35692154 31.125 8.125 C33.94003292 8.08664713 36.75511572 8.0619668 39.5703125 8.0390625 C40.31097961 8.03203308 41.05164673 8.02500366 41.8147583 8.01776123 C51.54695084 7.94708352 61.27231575 8.23296553 71 8.5 C71.9009137 8.52419006 72.80182739 8.54838013 73.7300415 8.57330322 C78.82019167 8.71008202 83.91015446 8.85233164 89 9 C89 9.33 89 9.66 89 10 C75.635 10.495 75.635 10.495 62 11 C62 11.66 62 12.32 62 13 C53.585 13.495 53.585 13.495 45 14 C45 13.01 45 12.02 45 11 C44.07775635 10.9906543 43.1555127 10.98130859 42.20532227 10.97167969 C38.74381346 10.92734873 35.28348541 10.86559702 31.82250977 10.79248047 C30.33206297 10.76446516 28.84147297 10.74315506 27.35083008 10.72900391 C17.63653227 10.63130731 9.22914758 10.33636628 1.4375 3.875 C0 2 0 2 0 0 Z " fill="#2BC984" transform="translate(163,253)"/>
<path d="M0 0 C2.57873177 1.98930737 4.97651933 3.97586709 7.25 6.3125 C13.47629217 12.52733357 13.47629217 12.52733357 21.04931641 16.67504883 C23.83157857 17.78418134 25.15204997 18.60777031 27 21 C28.0981728 27.21831859 27.89640864 33.39251403 27.75 39.6875 C27.69822888 43.0874562 27.6710423 46.48636652 27.671875 49.88671875 C27.67175415 50.6960788 27.6716333 51.50543884 27.67150879 52.33932495 C27.7697007 58.52645473 28.92365458 63.56185038 32 69 C32.33 69.66 32.66 70.32 33 71 C32.01 71 31.02 71 30 71 C29.3490741 69.75264433 28.70448331 68.50198168 28.0625 67.25 C27.70285156 66.55390625 27.34320313 65.8578125 26.97265625 65.140625 C24.7749405 60.30388511 24.92416587 55.70471422 25 50.47265625 C25.00115804 48.7766926 24.99977768 47.08072567 24.99609375 45.38476562 C24.9916692 42.71946477 25.00009259 40.05767865 25.05126953 37.39282227 C25.69045441 27.43436057 25.69045441 27.43436057 22.05273438 18.73217773 C19.67943576 17.38813057 17.64919738 16.61397708 15 16 C12.98271862 15.38761101 10.97395523 14.74023321 9 14 C8.375 12 8.375 12 8 10 C7.1028125 9.566875 7.1028125 9.566875 6.1875 9.125 C2.9934254 7.48233306 1.7786789 5.04916382 0 2 C0 1.34 0 0.68 0 0 Z " fill="#60C28D" transform="translate(130,182)"/>
<path d="M0 0 C0.66 0 1.32 0 2 0 C2.38671875 0.94101563 2.7734375 1.88203125 3.171875 2.8515625 C3.69758579 4.10951333 4.2236462 5.36731809 4.75 6.625 C5.00265625 7.24246094 5.2553125 7.85992187 5.515625 8.49609375 C7.2749246 12.67443031 9.45653982 16.22904382 12 20 C12 20.66 12 21.32 12 22 C11.01 21.67 10.02 21.34 9 21 C8.731875 20.2575 8.46375 19.515 8.1875 18.75 C6.86748265 15.12455621 6.86748265 15.12455621 1 11 C1 34.43 1 57.86 1 82 C0.67 82 0.34 82 0 82 C0 54.94 0 27.88 0 0 Z " fill="#31C781" transform="translate(118,160)"/>
<path d="M0 0 C0 1.65 0 3.3 0 5 C1.32 5.33 2.64 5.66 4 6 C3.67 8.97 3.34 11.94 3 15 C-1 15 -1 15 -3.54296875 12.91796875 C-4.41566406 12.01691406 -5.28835937 11.11585938 -6.1875 10.1875 C-7.06792969 9.29417969 -7.94835937 8.40085937 -8.85546875 7.48046875 C-11 5 -11 5 -12 2 C-11.01 1.67 -10.02 1.34 -9 1 C-9 1.66 -9 2.32 -9 3 C-8.34 3 -7.68 3 -7 3 C-7 2.34 -7 1.68 -7 1 C-4 0 -4 0 0 0 Z " fill="#14CC7C" transform="translate(141,271)"/>
<path d="M0 0 C1.65 0 3.3 0 5 0 C5.33 0.66 5.66 1.32 6 2 C6.66 1.34 7.32 0.68 8 0 C14.17175573 -0.5610687 14.17175573 -0.5610687 16.9375 1.3125 C18 3 18 3 18 6 C16.02 6 14.04 6 12 6 C12 6.66 12 7.32 12 8 C18.93 8.495 18.93 8.495 26 9 C20.3580097 11.82099515 16.21696587 11.72624744 10.375 9.8125 C5.82954835 7.37142411 1.69920145 5.09760434 0 0 Z " fill="#F17E1C" transform="translate(60,104)"/>
<path d="M0 0 C0.99 0.33 1.98 0.66 3 1 C5.00841665 1.11706233 7.02035989 1.17675967 9.03198242 1.20532227 C10.27304245 1.22526749 11.51410248 1.24521271 12.79277039 1.26576233 C14.1470019 1.28274527 15.50123473 1.29962413 16.85546875 1.31640625 C18.24124259 1.33698228 19.62701025 1.35797892 21.01277161 1.37937927 C24.65740953 1.43453301 28.30210346 1.48397174 31.94683838 1.53222656 C35.6670835 1.58249056 39.38724743 1.63815104 43.10742188 1.69335938 C50.40487913 1.80085899 57.70240397 1.90232207 65 2 C64.67 2.66 64.34 3.32 64 4 C42.22 4 20.44 4 -2 4 C-2 3.01 -2 2.02 -2 1 C-1.34 0.67 -0.68 0.34 0 0 Z " fill="#13CC7D" transform="translate(174,292)"/>
<path d="M0 0 C2.31 0 4.62 0 7 0 C7.33 1.32 7.66 2.64 8 4 C8.94875 3.814375 9.8975 3.62875 10.875 3.4375 C14 3 14 3 16 4 C18.40084462 3.19027984 18.40084462 3.19027984 21 2 C23.6875 0.8125 23.6875 0.8125 26 0 C26.66 0.33 27.32 0.66 28 1 C28 1.99 28 2.98 28 4 C25.70370006 5.14814997 23.92301914 5.30769809 21.375 5.5625 C20.55773437 5.64628906 19.74046875 5.73007812 18.8984375 5.81640625 C17.95871094 5.90728516 17.95871094 5.90728516 17 6 C17.99 6.99 18.98 7.98 20 9 C12.50832512 10.19185737 6.99536429 6.17973346 1 2 C0.67 1.34 0.34 0.68 0 0 Z " fill="#10CD7B" transform="translate(143,287)"/>
<path d="M0 0 C2.31 0 4.62 0 7 0 C8 1 8 1 8.11352539 2.85766602 C8.10828857 3.64842529 8.10305176 4.43918457 8.09765625 5.25390625 C8.09443359 6.10791016 8.09121094 6.96191406 8.08789062 7.84179688 C8.07951172 8.73962891 8.07113281 9.63746094 8.0625 10.5625 C8.05798828 11.46419922 8.05347656 12.36589844 8.04882812 13.29492188 C8.03700225 15.53001314 8.0205222 17.76497437 8 20 C7.34 20 6.68 20 6 20 C5.67 14.39 5.34 8.78 5 3 C4.01 2.67 3.02 2.34 2 2 C2 7.61 2 13.22 2 19 C1.34 19.33 0.68 19.66 0 20 C0 13.4 0 6.8 0 0 Z " fill="#15CC7A" transform="translate(242,270)"/>
<path d="M0 0 C0.94875 0.763125 1.8975 1.52625 2.875 2.3125 C12.2316599 8.86123827 22.68300363 8.38067982 33.625 8.1875 C35.12108021 8.1724192 36.6171752 8.15873683 38.11328125 8.14648438 C41.74249968 8.11376305 45.37115248 8.06217056 49 8 C43.79304482 11.27219719 37.45639847 10.37192759 31.52075195 10.37060547 C29.33659301 10.37495205 27.15450127 10.4112139 24.97070312 10.44921875 C15.93393205 10.52200367 8.61925861 9.8306047 1.4375 3.875 C0 2 0 2 0 0 Z " fill="#38CC98" transform="translate(163,253)"/>
<path d="M0 0 C1.79296875 1.58203125 1.79296875 1.58203125 3 3 C-1.43076923 6.07692308 -1.43076923 6.07692308 -4.3125 5.6875 C-4.869375 5.460625 -5.42625 5.23375 -6 5 C-4.68 4.67 -3.36 4.34 -2 4 C-2 3.01 -2 2.02 -2 1 C-2.99 1.495 -2.99 1.495 -4 2 C-6.99005469 2.07066599 -9.96694229 1.99693034 -12.95703125 1.9375 C-15.77954223 1.99547198 -18.26003853 2.35172815 -21 3 C-18.77057307 -0.06546203 -15.95158878 -0.97603583 -12.328125 -1.78125 C-8.10020444 -2.17850428 -3.97946373 -1.44900544 0 0 Z " fill="#ED7B2C" transform="translate(87,74)"/>
<path d="M0 0 C0.66 0 1.32 0 2 0 C2.33 1.98 2.66 3.96 3 6 C2.34 6 1.68 6 1 6 C1.09212018 12.7995704 1.19940545 19.59877858 1.31738281 26.39794922 C1.35573401 28.71234669 1.3905759 31.02680502 1.421875 33.34130859 C1.4673924 36.66265664 1.52540843 39.98358341 1.5859375 43.3046875 C1.59748871 44.34430634 1.60903992 45.38392517 1.62094116 46.45504761 C1.6507457 47.89631516 1.6507457 47.89631516 1.68115234 49.36669922 C1.69447601 50.21497284 1.70779968 51.06324646 1.7215271 51.93722534 C1.81776158 54.22186119 1.81776158 54.22186119 4 56 C2.68 55.67 1.36 55.34 0 55 C0 36.85 0 18.7 0 0 Z " fill="#DD874A" transform="translate(156,148)"/>
<path d="M0 0 C0.33 0 0.66 0 1 0 C1.01458252 0.91700684 1.02916504 1.83401367 1.04418945 2.77880859 C1.10575871 6.22712225 1.18000085 9.67470453 1.26245117 13.12255859 C1.29541697 14.60618043 1.32353417 16.08991915 1.34643555 17.57373047 C1.52164285 28.63042967 2.55214127 38.14196991 8 48 C7.01 48 6.02 48 5 48 C4.3490741 46.75264433 3.70448331 45.50198168 3.0625 44.25 C2.70285156 43.55390625 2.34320313 42.8578125 1.97265625 42.140625 C-0.17825918 37.40688341 -0.13216947 32.86199528 -0.09765625 27.734375 C-0.0962413 26.94097717 -0.09482635 26.14757935 -0.09336853 25.33013916 C-0.08778415 22.80338728 -0.07523454 20.27672496 -0.0625 17.75 C-0.05748298 16.03385545 -0.05292043 14.31770951 -0.04882812 12.6015625 C-0.03781984 8.40100731 -0.02056596 4.20051883 0 0 Z " fill="#31CB81" transform="translate(155,205)"/>
<path d="M0 0 C2.61046395 2.61046395 3.16725136 4.56809146 3.375 8.125 C3.86187195 14.37146354 6.5486091 20.5486091 11 25 C11.125 27.625 11.125 27.625 11 30 C3.66246815 21.61424932 -0.60805446 11.14766511 0 0 Z " fill="#36C488" transform="translate(118,243)"/>
<path d="M0 0 C0.54140625 0.32742188 1.0828125 0.65484375 1.640625 0.9921875 C4.50719067 2.21664767 6.6452987 2.19892146 9.75 2.125 C10.73484375 2.10695313 11.7196875 2.08890625 12.734375 2.0703125 C13.48203125 2.04710937 14.2296875 2.02390625 15 2 C15 3.32 15 4.64 15 6 C7.57142857 8.42857143 7.57142857 8.42857143 4 7 C4 6.34 4 5.68 4 5 C3.34 5 2.68 5 2 5 C2 4.34 2 3.68 2 3 C1.34 3 0.68 3 0 3 C0 2.01 0 1.02 0 0 Z " fill="#13CC7C" transform="translate(160,263)"/>
<path d="M0 0 C1.1653125 -0.00257813 2.330625 -0.00515625 3.53125 -0.0078125 C6.5 0.125 6.5 0.125 8.5 1.125 C10.87123246 1.35529956 13.24741943 1.53619942 15.625 1.6875 C16.90632813 1.77128906 18.18765625 1.85507812 19.5078125 1.94140625 C20.98894531 2.03228516 20.98894531 2.03228516 22.5 2.125 C22.5 2.455 22.5 2.785 22.5 3.125 C-4.86820084 4.94089958 -4.86820084 4.94089958 -8.5 3.125 C-8.5 2.465 -8.5 1.805 -8.5 1.125 C-5.64804778 -0.30097611 -3.17538825 -0.0070252 0 0 Z " fill="#11CC7B" transform="translate(184.5,268.875)"/>
<path d="M0 0 C4.01710259 2.77041558 6.44417085 5.33251256 8 10 C8.495 10.495 8.99 10.99 9.5 11.5 C11 13 11 13 12 16 C10.02 16.99 10.02 16.99 8 18 C8.33 16.02 8.66 14.04 9 12 C7.824375 11.566875 7.824375 11.566875 6.625 11.125 C3.43468583 9.7577225 2.3276039 8.70980845 0.875 5.5625 C0 3 0 3 0 0 Z " fill="#22CA7D" transform="translate(120,171)"/>
<path d="M0 0 C0.33 0 0.66 0 1 0 C1 3.96 1 7.92 1 12 C-1.97 11.505 -1.97 11.505 -5 11 C-4.67 8.69 -4.34 6.38 -4 4 C-3.01 4 -2.02 4 -1 4 C-0.67 2.68 -0.34 1.36 0 0 Z " fill="#0ECC7E" transform="translate(252,288)"/>
<path d="M0 0 C3.96 1.98 3.96 1.98 8 4 C8 4.99 8 5.98 8 7 C7.34 7 6.68 7 6 7 C6 6.34 6 5.68 6 5 C5.21625 5.495 4.4325 5.99 3.625 6.5 C1 8 1 8 -1 8 C-1.04241723 5.66705225 -1.04092937 3.33297433 -1 1 C-0.67 0.67 -0.34 0.34 0 0 Z " fill="#19CC7C" transform="translate(147,199)"/>
<path d="M0 0 C2.31 0 4.62 0 7 0 C7.061875 0.928125 7.061875 0.928125 7.125 1.875 C7.41375 2.57625 7.7025 3.2775 8 4 C9.98723268 4.70381157 11.98777953 5.3711811 14 6 C14.33 6.99 14.66 7.98 15 9 C9.26800429 7.53025751 4.66416601 4.55513098 0 1 C0 0.67 0 0.34 0 0 Z " fill="#33C886" transform="translate(143,287)"/>
<path d="M0 0 C-0.33 1.65 -0.66 3.3 -1 5 C-1.99 5 -2.98 5 -4 5 C-4.33 5.99 -4.66 6.98 -5 8 C-6.32 7.67 -7.64 7.34 -9 7 C-9 6.34 -9 5.68 -9 5 C-3.64285714 0 -3.64285714 0 0 0 Z " fill="#17CC7B" transform="translate(144,201)"/>
<path d="M0 0 C4.37666369 3.05040197 7.28591299 6.75414549 10.44921875 10.9765625 C11.9863121 13.0737115 11.9863121 13.0737115 14 15 C12.35 14.67 10.7 14.34 9 14 C8.9175 13.38125 8.835 12.7625 8.75 12.125 C8.22658559 9.84696322 8.22658559 9.84696322 6.1875 9.125 C2.9934254 7.48233306 1.7786789 5.04916382 0 2 C0 1.34 0 0.68 0 0 Z " fill="#45C387" transform="translate(130,182)"/>
<path d="M0 0 C0.66 0.66 1.32 1.32 2 2 C-0.76452033 3.38226016 -3.0461363 3.09525387 -6.125 3.0625 C-7.22070312 3.05347656 -8.31640625 3.04445313 -9.4453125 3.03515625 C-10.70988281 3.01775391 -10.70988281 3.01775391 -12 3 C-12 2.34 -12 1.68 -12 1 C-7.99047425 -0.33650858 -4.17983803 -0.20225023 0 0 Z " fill="#15CC7A" transform="translate(188,263)"/>
<path d="M0 0 C4.33587003 0.54813268 8.50756199 0.64190796 12.875 0.5625 C12.875 1.2225 12.875 1.8825 12.875 2.5625 C10.08365148 2.75675873 7.29216313 2.94319517 4.5 3.125 C3.7059375 3.18107422 2.911875 3.23714844 2.09375 3.29492188 C-3.8984375 3.67578125 -3.8984375 3.67578125 -6.125 2.5625 C-6.125 1.9025 -6.125 1.2425 -6.125 0.5625 C-3.68885709 -0.65557146 -2.66603829 -0.37621795 0 0 Z " fill="#10CD7A" transform="translate(226.125,269.4375)"/>
<path d="M0 0 C1.5452838 2.97969522 2.83630718 6.00123882 4.0625 9.125 C5.42914968 12.60811637 5.42914968 12.60811637 7 16 C6.01 16 5.02 16 4 16 C0.67424388 10.4174808 -0.46450943 6.50313209 0 0 Z " fill="#40C78F" transform="translate(156,237)"/>
<path d="M0 0 C1.65 0 3.3 0 5 0 C5 0.99 5 1.98 5 3 C7.43750025 5.68767578 7.43750025 5.68767578 10 8 C5.67008153 8 4.08622163 5.88494631 1 3 C0.67 2.01 0.34 1.02 0 0 Z " fill="#E48237" transform="translate(60,104)"/>
<path d="M0 0 C0.94875 0.763125 1.8975 1.52625 2.875 2.3125 C7.21687933 5.45077828 11.85059875 6.7256009 17 8 C17 8.33 17 8.66 17 9 C10.64913415 8.71197887 6.19127512 7.78530477 1 4 C0.3125 1.86328125 0.3125 1.86328125 0 0 Z " fill="#4FC592" transform="translate(163,253)"/>
<path d="M0 0 C0.99 0.495 0.99 0.495 2 1 C2.40729228 3.32156597 2.74438677 5.6568787 3 8 C2.34 8 1.68 8 1 8 C1 11.96 1 15.92 1 20 C0.67 20 0.34 20 0 20 C0 13.4 0 6.8 0 0 Z " fill="#5FB48F" transform="translate(117,152)"/>
<path d="M0 0 C0.99 0 1.98 0 3 0 C5.0625 2.8125 5.0625 2.8125 7 6 C7.99 7.485 7.99 7.485 9 9 C6.33333333 7.66666667 3.66666667 6.33333333 1 5 C0.67 5.66 0.34 6.32 0 7 C0 4.69 0 2.38 0 0 Z " fill="#EC7F2B" transform="translate(157,154)"/>
<path d="M0 0 C3.465 1.98 3.465 1.98 7 4 C7 4.99 7 5.98 7 7 C5.68 7.33 4.36 7.66 3 8 C0 2.25 0 2.25 0 0 Z " fill="#ED7D23" transform="translate(166,163)"/>
<path d="M0 0 C0.66 0.33 1.32 0.66 2 1 C2 3.31 2 5.62 2 8 C1.01 8.33 0.02 8.66 -1 9 C-1.125 2.25 -1.125 2.25 0 0 Z " fill="#23CB7A" transform="translate(151,241)"/>
<path d="M0 0 C1.65 1.65 3.3 3.3 5 5 C2.69 5 0.38 5 -2 5 C-2.33 3.68 -2.66 2.36 -3 1 C-2.01 0.67 -1.02 0.34 0 0 Z " fill="#F3821C" transform="translate(161,200)"/>
<path d="M0 0 C0.99 0.33 1.98 0.66 3 1 C2.67 2.65 2.34 4.3 2 6 C0.68 6 -0.64 6 -2 6 C-2 4.35 -2 2.7 -2 1 C-1.34 1 -0.68 1 0 1 C0 0.67 0 0.34 0 0 Z " fill="#12CE7C" transform="translate(126,257)"/>
<path d="M0 0 C0 0.99 0 1.98 0 3 C-2.64 3.33 -5.28 3.66 -8 4 C-8 3.01 -8 2.02 -8 1 C-2.25 0 -2.25 0 0 0 Z " fill="#20CB7C" transform="translate(250,263)"/>
<path d="M0 0 C1.65 0 3.3 0 5 0 C5.33 1.32 5.66 2.64 6 4 C4.35 3.67 2.7 3.34 1 3 C0.67 2.01 0.34 1.02 0 0 Z " fill="#F97B16" transform="translate(72,106)"/>
<path d="M0 0 C-0.33 1.32 -0.66 2.64 -1 4 C-4.875 2.25 -4.875 2.25 -6 0 C-3 -1 -3 -1 0 0 Z " fill="#32C984" transform="translate(144,283)"/>
<path d="M0 0 C2.64 0 5.28 0 8 0 C8 0.66 8 1.32 8 2 C5.36 2.33 2.72 2.66 0 3 C0 2.01 0 1.02 0 0 Z " fill="#11CD76" transform="translate(208,264)"/>
<path d="M0 0 C0.33 1.32 0.66 2.64 1 4 C0.34 4 -0.32 4 -1 4 C-1.33 4.99 -1.66 5.98 -2 7 C-2.99 7.33 -3.98 7.66 -5 8 C-3.8141763 4.62496331 -2.72426311 2.35277269 0 0 Z " fill="#E3843E" transform="translate(64,77)"/>
<path d="M0 0 C2.74277578 3.19990508 4.6302836 6.00499382 6 10 C5.01 9.67 4.02 9.34 3 9 C2.28272222 7.35448038 1.61674772 5.68577711 1 4 C0.34 3.34 -0.32 2.68 -1 2 C-0.67 1.34 -0.34 0.68 0 0 Z " fill="#56BE8D" transform="translate(124,172)"/>
<path d="M0 0 C0.66 0 1.32 0 2 0 C2.33 0.99 2.66 1.98 3 3 C3.99 3.66 4.98 4.32 6 5 C2 5 2 5 -1 4 C-0.67 2.68 -0.34 1.36 0 0 Z " fill="#F67B1F" transform="translate(86,105)"/>
<path d="M0 0 C2.5 2.3125 2.5 2.3125 5 5 C5 5.99 5 6.98 5 8 C2.5 6.25 2.5 6.25 0 4 C0 2.68 0 1.36 0 0 Z " fill="#DE8640" transform="translate(91,77)"/>
<path d="M0 0 C0.53625 0.28875 1.0725 0.5775 1.625 0.875 C4.35280484 2.16711808 7.12612718 3.08558592 10 4 C7.33438378 4.98726527 6.09873015 5.0275526 3.3125 4.25 C1 3 1 3 0 0 Z " fill="#1FCA7F" transform="translate(164,257)"/>
</svg>
