<?xml version="1.0" encoding="UTF-8"?>
<svg version="1.1" xmlns="http://www.w3.org/2000/svg" width="462" height="541">
<path d="M0 0 C2.65802683 0.00306521 5.31603371 0.0050355 7.97406006 0.00567627 C13.49383256 0.00933046 19.01347777 0.02412153 24.53320312 0.046875 C31.62286031 0.07604022 38.71241717 0.08613125 45.80212784 0.0905571 C51.26655218 0.09409949 56.730954 0.10449963 62.19536591 0.11643219 C64.81257694 0.12213851 67.42979021 0.12689602 70.0470047 0.13069916 C73.6775365 0.13752801 77.30797442 0.15113678 80.93847656 0.16699219 C82.02397797 0.16811005 83.10947937 0.16922791 84.22787476 0.17037964 C85.20859955 0.17608978 86.18932434 0.18179993 87.19976807 0.18768311 C88.05649235 0.19065777 88.91321663 0.19363243 89.79590225 0.19669724 C91.734375 0.328125 91.734375 0.328125 92.734375 1.328125 C92.82842642 3.3224423 92.85180749 5.32012043 92.84790039 7.31665039 C92.84782486 8.59790298 92.84774933 9.87915558 92.84767151 11.19923401 C92.84256409 12.60808348 92.83734809 14.01693256 92.83203125 15.42578125 C92.83016702 16.85924734 92.82874314 18.29271407 92.82774353 19.72618103 C92.82391872 23.50572457 92.81408877 27.2852299 92.80303955 31.0647583 C92.79282463 34.91881798 92.78824574 38.77288382 92.78320312 42.62695312 C92.77246646 50.19402787 92.75539049 57.76107109 92.734375 65.328125 C92.11244924 65.32959156 91.49052347 65.33105812 90.84975147 65.33256912 C75.66512152 65.36974039 60.48074631 65.42889064 45.29630756 65.51202774 C37.95298749 65.55171227 30.60977293 65.58415816 23.26635742 65.59912109 C16.86030971 65.6121929 10.45449522 65.63929692 4.04857892 65.68273807 C0.66163903 65.70522986 -2.72501456 65.72104317 -6.11203575 65.72000885 C-9.90796733 65.72239063 -13.70300334 65.74957018 -17.4987793 65.78222656 C-18.60218155 65.7771962 -19.7055838 65.77216583 -20.84242249 65.76698303 C-33.12596551 65.92930896 -43.88701725 69.23252525 -53.265625 77.328125 C-54.64895304 78.95353544 -56.01024618 80.60197913 -57.265625 82.328125 C-57.925625 82.328125 -58.585625 82.328125 -59.265625 82.328125 C-59.55308594 83.05128906 -59.84054687 83.77445312 -60.13671875 84.51953125 C-60.84534442 86.28251346 -61.56506058 88.04112066 -62.30078125 89.79296875 C-62.80931641 91.01693359 -62.80931641 91.01693359 -63.328125 92.265625 C-63.84052734 93.48572266 -63.84052734 93.48572266 -64.36328125 94.73046875 C-68.19088811 105.74933699 -66.51940639 118.43480692 -61.67578125 128.828125 C-59.8532845 132.05914416 -57.77354391 134.60524162 -55.265625 137.328125 C-55.265625 137.988125 -55.265625 138.648125 -55.265625 139.328125 C-54.70746094 139.59625 -54.14929688 139.864375 -53.57421875 140.140625 C-50.20388881 141.87426341 -47.02310452 143.89846223 -43.80078125 145.890625 C-35.61878787 150.53002957 -27.58278185 150.48320244 -18.40112305 150.51757812 C-16.61731483 150.53001808 -16.61731483 150.53001808 -14.79747009 150.54270935 C-11.5499362 150.56460193 -8.30240995 150.58233441 -5.05484366 150.59851646 C-1.65468374 150.61672646 1.74543053 150.64114965 5.14555359 150.66516113 C14.51496927 150.73021974 23.88443629 150.78586062 33.25391388 150.84114838 C41.85673538 150.89197346 50.45953107 150.94478122 59.06228799 151.00567389 C62.44756028 151.02940049 65.83281955 151.05097798 69.21813393 151.06776428 C72.98441347 151.08704156 76.75061082 151.11221189 80.5168457 151.13867188 C81.64461426 151.14285629 82.77238281 151.14704071 83.93432617 151.15135193 C85.46317192 151.16386742 85.46317192 151.16386742 87.02290344 151.17663574 C87.91385869 151.18178947 88.80481394 151.18694321 89.72276783 151.19225311 C91.734375 151.328125 91.734375 151.328125 92.734375 152.328125 C92.82842642 154.3224423 92.85180749 156.32012043 92.84790039 158.31665039 C92.84782486 159.59790298 92.84774933 160.87915558 92.84767151 162.19923401 C92.84256409 163.60808348 92.83734809 165.01693256 92.83203125 166.42578125 C92.83016702 167.85924734 92.82874314 169.29271407 92.82774353 170.72618103 C92.82391872 174.50572457 92.81408877 178.2852299 92.80303955 182.0647583 C92.79282463 185.91881798 92.78824574 189.77288382 92.78320312 193.62695312 C92.77246646 201.19402787 92.75539049 208.76107109 92.734375 216.328125 C76.07812017 216.42198576 59.42195244 216.49230702 42.76549625 216.53537369 C35.02985299 216.55591077 27.294375 216.58385959 19.55883789 216.62988281 C12.80861187 216.67002435 6.05850567 216.69562196 -0.69183642 216.70447898 C-4.25895676 216.70964808 -7.82573462 216.72160672 -11.39274406 216.75104523 C-26.16391398 216.86796894 -40.0930132 216.92314837 -54.265625 212.328125 C-55.48108505 211.94706604 -56.6965451 211.56600708 -57.94883728 211.17340088 C-60.73972967 210.26883241 -63.50747864 209.32722233 -66.265625 208.328125 C-66.31652546 215.99614615 -66.35144265 223.66412336 -66.37548828 231.33227539 C-66.38551748 233.93841175 -66.39914411 236.54453693 -66.41650391 239.15063477 C-66.4408876 242.90644089 -66.45213924 246.66209763 -66.4609375 250.41796875 C-66.47126007 251.57457504 -66.48158264 252.73118134 -66.49221802 253.9228363 C-66.49400995 266.97674574 -63.30892441 276.69112875 -56.078125 287.640625 C-43.36754466 299.78629066 -30.17266321 301.44337866 -13.41186523 301.53344727 C-12.25962967 301.54334686 -11.1073941 301.55324646 -9.92024231 301.56344604 C-6.13825486 301.59485685 -2.35625487 301.61973724 1.42578125 301.64453125 C4.05851047 301.66511843 6.69123652 301.68611535 9.32395935 301.70750427 C15.52851292 301.75722442 21.73309117 301.80223908 27.93769258 301.84552664 C35.70133321 301.89994576 43.46492258 301.96071104 51.22851562 302.02148438 C65.06376253 302.12975877 78.89905712 302.22849884 92.734375 302.328125 C92.734375 323.448125 92.734375 344.568125 92.734375 366.328125 C90.23707865 367.57677317 88.58136788 367.44407524 85.78684998 367.43060303 C84.7400708 367.42789902 83.69329163 367.42519501 82.61479187 367.42240906 C81.46114639 367.41417618 80.30750092 367.4059433 79.11889648 367.39746094 C77.90720795 367.39267227 76.69551941 367.38788361 75.44711304 367.38294983 C72.11350175 367.36825458 68.77999264 367.34881535 65.44642901 367.32638454 C63.3574442 367.31251312 61.26845548 367.29987803 59.17946053 367.2876358 C52.6263996 367.2489701 46.07338288 367.20635016 39.52038711 367.15786052 C31.99072172 367.1021451 24.46112904 367.05897569 16.93132538 367.02717948 C11.09404003 367.00177564 5.25689114 366.96506212 -0.58027595 366.92009377 C-4.05668197 366.89354176 -7.53296712 366.87142281 -11.00946236 366.86107635 C-28.81741687 366.8029706 -46.18332161 366.70153186 -63.015625 360.140625 C-63.80437012 359.84091797 -64.59311523 359.54121094 -65.40576172 359.23242188 C-75.42416156 355.2764488 -84.10729423 349.55092167 -92.4609375 342.7734375 C-94.41403945 341.16623652 -94.41403945 341.16623652 -97.265625 339.328125 C-97.265625 338.668125 -97.265625 338.008125 -97.265625 337.328125 C-97.925625 337.328125 -98.585625 337.328125 -99.265625 337.328125 C-99.265625 336.668125 -99.265625 336.008125 -99.265625 335.328125 C-99.925625 335.328125 -100.585625 335.328125 -101.265625 335.328125 C-103.84880724 332.89521098 -106.02154761 330.07136029 -108.265625 327.328125 C-108.98492187 326.46832031 -109.70421875 325.60851562 -110.4453125 324.72265625 C-127.88846181 302.84327347 -132.42178194 277.30083037 -132.41088867 250.00048828 C-132.41388751 248.48615945 -132.41729169 246.97183137 -132.42106628 245.45750427 C-132.42984119 241.37216104 -132.43224176 237.28683881 -132.43288207 233.20148706 C-132.43359679 230.63752562 -132.43573914 228.07356937 -132.43837929 225.50960922 C-132.44761436 216.53114234 -132.45171688 207.55269023 -132.45092773 198.57421875 C-132.45032889 190.26115493 -132.46084745 181.9481564 -132.4766714 173.63510907 C-132.48984194 166.45499756 -132.49510761 159.27490712 -132.49447232 152.09478366 C-132.49421992 147.82583176 -132.4969255 143.55693785 -132.50765038 139.2879982 C-132.61825738 91.8748908 -132.61825738 91.8748908 -126.265625 73.328125 C-125.96011719 72.38710937 -125.65460938 71.44609375 -125.33984375 70.4765625 C-124.6682802 68.4204959 -123.97073067 66.37293146 -123.265625 64.328125 C-122.605625 64.328125 -121.945625 64.328125 -121.265625 64.328125 C-121.15605469 63.78671875 -121.04648438 63.2453125 -120.93359375 62.6875 C-118.69898053 54.79448019 -114.02545389 46.22674494 -108.265625 40.328125 C-107.605625 40.328125 -106.945625 40.328125 -106.265625 40.328125 C-105.95625 39.709375 -105.646875 39.090625 -105.328125 38.453125 C-104.640625 37.078125 -103.953125 35.703125 -103.265625 34.328125 C-102.605625 34.328125 -101.945625 34.328125 -101.265625 34.328125 C-101.265625 33.668125 -101.265625 33.008125 -101.265625 32.328125 C-100.605625 32.328125 -99.945625 32.328125 -99.265625 32.328125 C-99.265625 31.668125 -99.265625 31.008125 -99.265625 30.328125 C-95.80408654 27.328125 -95.80408654 27.328125 -93.265625 27.328125 C-93.265625 26.668125 -93.265625 26.008125 -93.265625 25.328125 C-91.615625 24.668125 -89.965625 24.008125 -88.265625 23.328125 C-88.265625 22.668125 -88.265625 22.008125 -88.265625 21.328125 C-84.11504205 18.38108099 -79.67435285 15.86900857 -75.265625 13.328125 C-74.43160156 12.84601563 -73.59757812 12.36390625 -72.73828125 11.8671875 C-50.36042993 -0.14417201 -24.71609238 -0.12594593 0 0 Z " fill="#FCFDFD" transform="translate(334.265625,110.671875)"/>
<path d="M0 0 C0.33 0 0.66 0 1 0 C1.10022461 0.80107178 1.20044922 1.60214355 1.30371094 2.42749023 C1.7714274 6.09948867 2.26053513 9.76833984 2.75 13.4375 C2.90726563 14.69755859 3.06453125 15.95761719 3.2265625 17.25585938 C4.21145924 24.51000267 5.65023659 30.50152984 9 37 C9.61661635 38.5994225 10.22366872 40.20264107 10.8125 41.8125 C14.6556584 51.48044535 20.32053458 60.07164293 27 68 C27.65484375 68.80050781 28.3096875 69.60101563 28.984375 70.42578125 C37.93633272 80.92962945 50.7385418 91.57951393 64 96 C65.01447556 99.04342667 65.14204271 101.15162514 65.17358398 104.33837891 C65.18707382 105.4302652 65.20056366 106.52215149 65.21446228 107.64712524 C65.23011986 109.41894669 65.23011986 109.41894669 65.24609375 111.2265625 C65.27904569 113.72786791 65.31225709 116.2291699 65.34570312 118.73046875 C65.39301334 122.6736404 65.43741809 126.61679958 65.47680664 130.56005859 C65.51670267 134.36570989 65.56821927 138.17107242 65.62109375 141.9765625 C65.6295079 143.14563141 65.63792206 144.31470032 65.64659119 145.51919556 C65.84230797 158.5826542 68.94055367 168.33855269 76.1875 179.3125 C88.89808034 191.45816566 102.09296179 193.11525366 118.85375977 193.20532227 C120.58211311 193.22017166 120.58211311 193.22017166 122.34538269 193.23532104 C126.12737014 193.26673185 129.90937013 193.29161224 133.69140625 193.31640625 C136.32413547 193.33699343 138.95686152 193.35799035 141.58958435 193.37937927 C147.79413792 193.42909942 153.99871617 193.47411408 160.20331758 193.51740164 C167.96695821 193.57182076 175.73054758 193.63258604 183.49414062 193.69335938 C197.32938753 193.80163377 211.16468212 193.90037384 225 194 C225 215.12 225 236.24 225 258 C222.50270365 259.24864817 220.84699288 259.11595024 218.05247498 259.10247803 C217.0056958 259.09977402 215.95891663 259.09707001 214.88041687 259.09428406 C213.72677139 259.08605118 212.57312592 259.0778183 211.38452148 259.06933594 C210.17283295 259.06454727 208.96114441 259.05975861 207.71273804 259.05482483 C204.37912675 259.04012958 201.04561764 259.02069035 197.71205401 258.99825954 C195.6230692 258.98438812 193.53408048 258.97175303 191.44508553 258.9595108 C184.8920246 258.9208451 178.33900788 258.87822516 171.78601211 258.82973552 C164.25634672 258.7740201 156.72675404 258.73085069 149.19695038 258.69905448 C143.35966503 258.67365064 137.52251614 258.63693712 131.68534905 258.59196877 C128.20894303 258.56541676 124.73265788 258.54329781 121.25616264 258.53295135 C103.44820813 258.4748456 86.08230339 258.37340686 69.25 251.8125 C68.46125488 251.51279297 67.67250977 251.21308594 66.85986328 250.90429688 C56.84146344 246.9483238 48.15833077 241.22279667 39.8046875 234.4453125 C37.85158555 232.83811152 37.85158555 232.83811152 35 231 C35 230.34 35 229.68 35 229 C34.34 229 33.68 229 33 229 C33 228.34 33 227.68 33 227 C32.34 227 31.68 227 31 227 C28.41681776 224.56708598 26.24407739 221.74323529 24 219 C23.28070313 218.14019531 22.56140625 217.28039062 21.8203125 216.39453125 C4.29580502 194.41309885 -0.1842408 168.74950173 -0.11352539 141.33911133 C-0.11324275 139.79071047 -0.11340276 138.24230947 -0.1139679 136.69390869 C-0.11425285 132.52319353 -0.10840511 128.35250759 -0.10139394 124.18179917 C-0.09510997 119.8109542 -0.09455263 115.44010844 -0.09336853 111.06925964 C-0.09027001 102.8070744 -0.0820767 94.54490251 -0.07201904 86.28272313 C-0.06081179 76.87031522 -0.05533586 67.45790665 -0.05032361 58.04549372 C-0.03989274 38.69698827 -0.02232214 19.34849521 0 0 Z " fill="#00CD7B" transform="translate(202,219)"/>
<path d="M0 0 C0.33 0 0.66 0 1 0 C1.09796875 0.60585937 1.1959375 1.21171875 1.296875 1.8359375 C2.97814878 11.25686815 5.56149346 18.84610384 12 26 C12 26.66 12 27.32 12 28 C12.55816406 28.268125 13.11632812 28.53625 13.69140625 28.8125 C17.06173619 30.54613841 20.24252048 32.57033723 23.46484375 34.5625 C31.64683713 39.20190457 39.68284315 39.15507744 48.86450195 39.18945312 C50.64831017 39.20189308 50.64831017 39.20189308 52.46815491 39.21458435 C55.7156888 39.23647693 58.96321505 39.25420941 62.21078134 39.27039146 C65.61094126 39.28860146 69.01105553 39.31302465 72.41117859 39.33703613 C81.78059427 39.40209474 91.15006129 39.45773562 100.51953888 39.51302338 C109.12236038 39.56384846 117.72515607 39.61665622 126.32791299 39.67754889 C129.71318528 39.70127549 133.09844455 39.72285298 136.48375893 39.73963928 C140.25003847 39.75891656 144.01623582 39.78408689 147.7824707 39.81054688 C148.91023926 39.81473129 150.03800781 39.81891571 151.19995117 39.82322693 C152.21918167 39.83157059 153.23841217 39.83991425 154.28852844 39.84851074 C155.17948369 39.85366447 156.07043894 39.85881821 156.98839283 39.86412811 C159 40 159 40 160 41 C160.09405142 42.9943173 160.11743249 44.99199543 160.11352539 46.98852539 C160.11344986 48.26977798 160.11337433 49.55103058 160.11329651 50.87110901 C160.10818909 52.27995848 160.10297309 53.68880756 160.09765625 55.09765625 C160.09579202 56.53112234 160.09436814 57.96458907 160.09336853 59.39805603 C160.08954372 63.17759957 160.07971377 66.9571049 160.06866455 70.7366333 C160.05844963 74.59069298 160.05387074 78.44475882 160.04882812 82.29882812 C160.03809146 89.86590287 160.02101549 97.43294609 160 105 C143.34374517 105.09386076 126.68757744 105.16418202 110.03112125 105.20724869 C102.29547799 105.22778577 94.56 105.25573459 86.82446289 105.30175781 C80.07423687 105.34189935 73.32413067 105.36749696 66.57378858 105.37635398 C63.00666824 105.38152308 59.43989038 105.39348172 55.87288094 105.42292023 C35.26687038 105.58587684 18.26039565 103.44775996 -1 96 C-1.02314421 83.92612203 -1.04092573 71.85224931 -1.05181217 59.77835369 C-1.05703643 54.1722962 -1.06412584 48.56625385 -1.07543945 42.96020508 C-1.0862845 37.55265465 -1.09228029 32.14511882 -1.09487724 26.73755836 C-1.09672856 24.67184024 -1.10034359 22.60612293 -1.10573006 20.540411 C-1.1129619 17.65281812 -1.11399003 14.76528598 -1.11352539 11.87768555 C-1.11712067 11.01885269 -1.12071594 10.16001984 -1.12442017 9.27516174 C-1.1185736 5.92951361 -1.06549863 3.19649589 0 0 Z " fill="#FE7801" transform="translate(267,222)"/>
<path d="M0 0 C6.24000763 5.18367126 11.78069028 11.63440846 13.3125 19.8125 C14.32389875 31.67458412 13.40303289 41.15474039 5.625 50.625 C1.67754276 54.79339701 -2.49981814 57.42978566 -7.6875 59.8125 C-8.491875 60.225 -9.29625 60.6375 -10.125 61.0625 C-19.6000346 63.83568086 -28.64634344 63.00112757 -37.42578125 58.3671875 C-46.83376993 52.2284392 -52.1716859 44.85610318 -55.09375 34.01171875 C-56.66354458 25.55341771 -54.48381414 17.43932931 -50.6875 9.8125 C-44.29420238 0.74646988 -36.22556833 -4.94989875 -25.265625 -6.90234375 C-16.20395959 -7.90461886 -7.3028347 -5.37009118 0 0 Z " fill="#FE7802" transform="translate(159.6875,111.1875)"/>
<path d="M0 0 C0.61875 0.680625 1.2375 1.36125 1.875 2.0625 C14.72353824 14.80245904 28.47876515 17.11195311 45.85375977 17.20532227 C47.58211311 17.22017166 47.58211311 17.22017166 49.34538269 17.23532104 C53.12737014 17.26673185 56.90937013 17.29161224 60.69140625 17.31640625 C63.32413547 17.33699343 65.95686152 17.35799035 68.58958435 17.37937927 C74.79413792 17.42909942 80.99871617 17.47411408 87.20331758 17.51740164 C94.96695821 17.57182076 102.73054758 17.63258604 110.49414062 17.69335938 C124.32938753 17.80163377 138.16468212 17.90037384 152 18 C152 39.12 152 60.24 152 82 C149.50270365 83.24864817 147.84699288 83.11595024 145.05247498 83.10247803 C144.0056958 83.09977402 142.95891663 83.09707001 141.88041687 83.09428406 C140.72677139 83.08605118 139.57312592 83.0778183 138.38452148 83.06933594 C137.17283295 83.06454727 135.96114441 83.05975861 134.71273804 83.05482483 C131.37912675 83.04012958 128.04561764 83.02069035 124.71205401 82.99825954 C122.6230692 82.98438812 120.53408048 82.97175303 118.44508553 82.9595108 C111.8920246 82.9208451 105.33900788 82.87822516 98.78601211 82.82973552 C91.25634672 82.7740201 83.72675404 82.73085069 76.19695038 82.69905448 C70.35966503 82.67365064 64.52251614 82.63693712 58.68534905 82.59196877 C55.20894303 82.56541676 51.73265788 82.54329781 48.25616264 82.53295135 C28.35711904 82.46785206 10.6163952 81.46425988 -8 74 C-8 73.67 -8 73.34 -8 73 C-5.03 73.33 -2.06 73.66 1 74 C1.495 73.01 1.495 73.01 2 72 C2.66 72.33 3.32 72.66 4 73 C5.32860925 73.35169068 6.66158328 73.68770276 8 74 C7.01 74.99 7.01 74.99 6 76 C6.81984375 76.13277344 7.6396875 76.26554687 8.484375 76.40234375 C9.56203125 76.57894531 10.6396875 76.75554687 11.75 76.9375 C12.81734375 77.11152344 13.8846875 77.28554688 14.984375 77.46484375 C18 78 18 78 19.854702 78.52355862 C22.39790597 79.08836948 24.7344437 79.14033442 27.34039307 79.15821838 C28.42290344 79.1680072 29.50541382 79.17779602 30.62072754 79.18788147 C31.80324097 79.19363693 32.98575439 79.1993924 34.20410156 79.20532227 C35.4531427 79.21522186 36.70218384 79.22512146 37.98907471 79.23532104 C41.41021121 79.26148956 44.83132463 79.28335953 48.25249958 79.30332303 C51.82930814 79.32520957 55.40607457 79.3525852 58.98284912 79.37937927 C65.7542258 79.4292701 72.5256259 79.4742223 79.29704833 79.51740164 C88.44851606 79.57604311 97.59992836 79.64231058 106.75134659 79.70815182 C121.16752703 79.81167003 135.58375511 79.9049967 150 80 C150 60.2 150 40.4 150 20 C110.07 20 70.14 20 29 20 C29 19.34 29 18.68 29 18 C27.56208484 18.14168137 26.1246763 18.28851043 24.6875 18.4375 C23.88699219 18.51871094 23.08648437 18.59992188 22.26171875 18.68359375 C19.83912821 18.95265693 19.83912821 18.95265693 17 20 C14.8125 19.5625 14.8125 19.5625 13 19 C13 18.34 13 17.68 13 17 C13.99 17 14.98 17 16 17 C16 16.34 16 15.68 16 15 C13.69 14.34 11.38 13.68 9 13 C8.95875 12.38125 8.9175 11.7625 8.875 11.125 C8.58625 10.42375 8.2975 9.7225 8 9 C7.01 8.67 6.02 8.34 5 8 C4.01 7.67 3.02 7.34 2 7 C1.25 4.9375 1.25 4.9375 1 3 C0.34 2.67 -0.32 2.34 -1 2 C-0.67 1.34 -0.34 0.68 0 0 Z " fill="#29A973" transform="translate(275,395)"/>
<path d="M0 0 C1.485 0.99 1.485 0.99 3 2 C3 2.66 3 3.32 3 4 C3.55816406 4.268125 4.11632812 4.53625 4.69140625 4.8125 C8.06173619 6.54613841 11.24252048 8.57033723 14.46484375 10.5625 C22.64683713 15.20190457 30.68284315 15.15507744 39.86450195 15.18945312 C41.64831017 15.20189308 41.64831017 15.20189308 43.46815491 15.21458435 C46.7156888 15.23647693 49.96321505 15.25420941 53.21078134 15.27039146 C56.61094126 15.28860146 60.01105553 15.31302465 63.41117859 15.33703613 C72.78059427 15.40209474 82.15006129 15.45773562 91.51953888 15.51302338 C100.12236038 15.56384846 108.72515607 15.61665622 117.32791299 15.67754889 C120.71318528 15.70127549 124.09844455 15.72285298 127.48375893 15.73963928 C131.25003847 15.75891656 135.01623582 15.78408689 138.7824707 15.81054688 C139.91023926 15.81473129 141.03800781 15.81891571 142.19995117 15.82322693 C143.21918167 15.83157059 144.23841217 15.83991425 145.28852844 15.84851074 C146.17948369 15.85366447 147.07043894 15.85881821 147.98839283 15.86412811 C150 16 150 16 151 17 C151.09405142 18.9943173 151.11743249 20.99199543 151.11352539 22.98852539 C151.11344986 24.26977798 151.11337433 25.55103058 151.11329651 26.87110901 C151.10818909 28.27995848 151.10297309 29.68880756 151.09765625 31.09765625 C151.09579202 32.53112234 151.09436814 33.96458907 151.09336853 35.39805603 C151.08954372 39.17759957 151.07971377 42.9571049 151.06866455 46.7366333 C151.05844963 50.59069298 151.05387074 54.44475882 151.04882812 58.29882812 C151.03809146 65.86590287 151.02101549 73.43294609 151 81 C134.34374517 81.09386076 117.68757744 81.16418202 101.03112125 81.20724869 C93.29547799 81.22778577 85.56 81.25573459 77.82446289 81.30175781 C71.07423687 81.34189935 64.32413067 81.36749696 57.57378858 81.37635398 C54.00666824 81.38152308 50.43989038 81.39348172 46.87288094 81.42292023 C32.14499295 81.53994447 18.13597488 81.57592874 4 77 C4 76.67 4 76.34 4 76 C6.64 75.67 9.28 75.34 12 75 C12 75.66 12 76.32 12 77 C13.60875 76.9690625 13.60875 76.9690625 15.25 76.9375 C19 77 19 77 20.90534592 77.4940176 C23.4106117 78.09918692 25.68665327 78.14024559 28.26446533 78.15821838 C29.86298843 78.17290161 29.86298843 78.17290161 31.49380493 78.18788147 C32.65761688 78.19363693 33.82142883 78.1993924 35.02050781 78.20532227 C36.25004181 78.21522186 37.47957581 78.22512146 38.74636841 78.23532104 C42.11378754 78.2614878 45.48118323 78.28335849 48.8486414 78.30332303 C52.36939591 78.32521097 55.89010765 78.35258591 59.41082764 78.37937927 C66.07595605 78.42926822 72.74110826 78.47422112 79.40628314 78.51740164 C87.7396374 78.57165334 96.07294188 78.63249194 104.40625 78.69335938 C119.27079508 78.8019026 134.13538569 78.90047908 149 79 C149 58.87 149 38.74 149 18 C135.74714844 18.06960938 135.74714844 18.06960938 122.2265625 18.140625 C115.90787152 18.16367022 109.58921224 18.18417374 103.27050591 18.20101547 C95.09121248 18.22315395 86.91208278 18.25123022 78.73291016 18.30175781 C72.25559601 18.34175279 65.7784056 18.36746281 59.30097139 18.37635398 C55.87435667 18.38154748 52.44809579 18.39366631 49.021595 18.42292023 C45.1868742 18.45206026 41.35288055 18.45595137 37.51806641 18.45410156 C36.39452759 18.46848267 35.27098877 18.48286377 34.11340332 18.49768066 C27.77990648 18.46473613 22.90619474 17.62445059 17.13803673 14.95669174 C15.09864173 14.0441385 13.17850491 13.47205153 11 13 C11 12.34 11 11.68 11 11 C9.02 10.34 7.04 9.68 5 9 C5 8.34 5 7.68 5 7 C4.34 7 3.68 7 3 7 C3 6.34 3 5.68 3 5 C2.01 4.67 1.02 4.34 0 4 C0 2.68 0 1.36 0 0 Z " fill="#C77636" transform="translate(276,246)"/>
<path d="M0 0 C0.33 0 0.66 0 1 0 C1.10022461 0.80107178 1.20044922 1.60214355 1.30371094 2.42749023 C1.7714274 6.09948867 2.26053513 9.76833984 2.75 13.4375 C2.90726563 14.69755859 3.06453125 15.95761719 3.2265625 17.25585938 C4.21507056 24.53660144 5.72379743 30.4536619 9 37 C9.62801246 38.83951411 10.22297189 40.6915502 10.75 42.5625 C10.99234375 43.40941406 11.2346875 44.25632812 11.484375 45.12890625 C11.65453125 45.74636719 11.8246875 46.36382812 12 47 C9.125 46.3125 9.125 46.3125 6 44 C5.10168311 40.64107598 4.6825868 37.39011139 4.32421875 33.93359375 C4.17904966 31.06955443 4.17904966 31.06955443 3 29 C2.67 71.9 2.34 114.8 2 159 C0 157 0 157 -0.24609566 154.30197716 C-0.24425207 153.14604876 -0.24240849 151.99012035 -0.24050903 150.79916382 C-0.24221788 150.15633725 -0.24392673 149.51351068 -0.24568737 148.85120451 C-0.24899328 146.6876378 -0.23796078 144.5243782 -0.22705078 142.36083984 C-0.2264869 140.81376655 -0.22680277 139.26669273 -0.22793579 137.71961975 C-0.22851122 133.51114815 -0.21672621 129.30278982 -0.20278788 125.09434462 C-0.19031215 120.69942767 -0.18911252 116.30450833 -0.18673706 111.90957642 C-0.18051298 103.58332398 -0.16408965 95.25712386 -0.14403808 86.93089449 C-0.1217079 77.45340579 -0.11069291 67.97591462 -0.10064721 58.49840617 C-0.0797242 38.99890775 -0.04453024 19.49945808 0 0 Z " fill="#219164" transform="translate(202,219)"/>
<path d="M0 0 C2.66373982 0.00119423 5.32747171 0.00169512 7.99121094 0.00138855 C13.53485518 0.00231752 19.0784438 0.01090777 24.62207031 0.0246582 C31.03271931 0.04050022 37.44330814 0.04565165 43.8539753 0.04492265 C50.04607093 0.04431368 56.23814704 0.04939918 62.43023682 0.05771446 C65.0586129 0.06090304 67.68699074 0.06286898 70.31536865 0.06360817 C73.96548538 0.06576221 77.61552474 0.07448207 81.265625 0.08520508 C82.35741058 0.08475189 83.44919617 0.08429871 84.57406616 0.08383179 C85.56057159 0.08809677 86.54707703 0.09236176 87.56347656 0.09675598 C88.42539612 0.09843183 89.28731567 0.10010767 90.175354 0.1018343 C92.125 0.23046875 92.125 0.23046875 93.125 1.23046875 C93.21896057 3.16353373 93.24243517 5.10005713 93.23852539 7.03540039 C93.23844986 8.27661148 93.23837433 9.51782257 93.23829651 10.79664612 C93.23318911 12.16130615 93.2279731 13.52596577 93.22265625 14.890625 C93.220792 16.27925058 93.21936813 17.66787682 93.21836853 19.0565033 C93.21454387 22.7176799 93.20471403 26.37881705 93.19366455 30.03997803 C93.18344932 33.77339138 93.17887067 37.50681109 93.17382812 41.24023438 C93.16309171 48.57033052 93.14601591 55.90039411 93.125 63.23046875 C92.795 63.23046875 92.465 63.23046875 92.125 63.23046875 C91.97864397 58.07920368 91.83649831 52.9278429 91.69775391 47.77636719 C91.65032341 46.03512672 91.60187037 44.29391371 91.55224609 42.55273438 C91.16994044 29.10181697 91.125 15.69461479 91.125 2.23046875 C46.245 2.56046875 1.365 2.89046875 -44.875 3.23046875 C-44.875 2.90046875 -44.875 2.57046875 -44.875 2.23046875 C-29.93640148 -0.11167725 -15.09056761 -0.0448937 0 0 Z " fill="#919899" transform="translate(333.875,110.76953125)"/>
<path d="M0 0 C31.68 0 63.36 0 96 0 C95.67 1.32 95.34 2.64 95 4 C87.21930082 4.02328539 79.43860998 4.040997 71.6578846 4.05181217 C68.04404586 4.05700583 64.43023116 4.06403873 60.81640625 4.07543945 C57.32156008 4.08639442 53.82673688 4.09230325 50.33187485 4.09487724 C48.36570223 4.09759354 46.3995387 4.10538507 44.43338013 4.11329651 C38.24977181 4.11367918 32.18705953 3.96260845 26.04415894 3.2275238 C21.79694505 2.75479038 17.78238732 2.88619821 13.5625 3.5 C3.75342466 4.87671233 3.75342466 4.87671233 0 3 C0 2.01 0 1.02 0 0 Z " fill="#1CCB7D" transform="translate(304,466)"/>
<path d="M0 0 C2.27295902 2.91405003 4.27143276 5.9618236 6.2590332 9.07543945 C16.1047055 24.34465737 28.00930959 36.1609249 44 45 C44 45.33 44 45.66 44 46 C42.02 46 40.04 46 38 46 C38 45.34 38 44.68 38 44 C37.42121094 43.73445313 36.84242188 43.46890625 36.24609375 43.1953125 C33.20998466 41.57957445 30.73532968 39.43413083 28.09765625 37.2421875 C25.55762773 35.73803653 23.90311121 35.7677511 21 36 C21.33 34.68 21.66 33.36 22 32 C18.88214887 32.64644661 18.88214887 32.64644661 18 35 C16.0625 34.3125 16.0625 34.3125 14 33 C13.25 30.375 13.25 30.375 13 28 C11.68 28 10.36 28 9 28 C9 27.34 9 26.68 9 26 C10.32 25.67 11.64 25.34 13 25 C12.67 23.68 12.34 22.36 12 21 C11.01 21 10.02 21 9 21 C9 20.01 9 19.02 9 18 C8.01 17.67 7.02 17.34 6 17 C5.29094062 15.01463373 4.63305821 13.01089078 4 11 C3.31732644 9.77698636 2.60806943 8.56848848 1.875 7.375 C0 4 0 4 0 0 Z " fill="#22CA82" transform="translate(214,266)"/>
<path d="M0 0 C1.485 0.99 1.485 0.99 3 2 C3 2.66 3 3.32 3 4 C3.55816406 4.268125 4.11632812 4.53625 4.69140625 4.8125 C8.06173619 6.54613841 11.24252048 8.57033723 14.46484375 10.5625 C22.64732009 15.20217842 30.69758663 15.15810077 39.88037109 15.20532227 C41.66658875 15.22017166 41.66658875 15.22017166 43.4888916 15.23532104 C46.74048623 15.26142603 49.99207605 15.28332198 53.2437129 15.30332303 C56.64700875 15.32526003 60.05026107 15.35261081 63.45352173 15.37937927 C69.89192089 15.42920223 76.33034435 15.47417942 82.76879084 15.51740164 C90.1013464 15.56686314 97.43385825 15.62174808 104.76637149 15.67708123 C119.84420689 15.79074156 134.9220835 15.89761503 150 16 C150 16.33 150 16.66 150 17 C133.48361794 17.09362414 116.96732255 17.16406744 100.45073891 17.20724869 C92.78103364 17.22783536 85.11149367 17.25588091 77.44189453 17.30175781 C70.75362957 17.34174549 64.0654844 17.3674611 57.37710321 17.37635398 C53.83871077 17.38154869 50.30066087 17.39367548 46.76237869 17.42292023 C42.80327396 17.45537487 38.84449808 17.45595178 34.88525391 17.45410156 C33.14384125 17.47567322 33.14384125 17.47567322 31.36724854 17.49768066 C24.29144087 17.46201058 18.22080699 16.57987227 12 13 C11.67 12.34 11.34 11.68 11 11 C9.02111039 10.27306096 7.02045442 9.60183749 5 9 C5 8.34 5 7.68 5 7 C4.34 7 3.68 7 3 7 C3 6.34 3 5.68 3 5 C2.01 4.67 1.02 4.34 0 4 C0 2.68 0 1.36 0 0 Z " fill="#996631" transform="translate(276,246)"/>
<path d="M0 0 C1.31722179 0.42307123 2.62872664 0.86397486 3.9375 1.3125 C4.66839844 1.55613281 5.39929688 1.79976563 6.15234375 2.05078125 C8 3 8 3 9 6 C9.10604062 7.77723941 9.15596313 9.558066 9.17358398 11.33837891 C9.18707382 12.4302652 9.20056366 13.52215149 9.21446228 14.64712524 C9.22490067 15.82833954 9.23533905 17.00955383 9.24609375 18.2265625 C9.27904569 20.72786791 9.31225709 23.2291699 9.34570312 25.73046875 C9.39301334 29.6736404 9.43741809 33.61679958 9.47680664 37.56005859 C9.51670267 41.36570989 9.56821927 45.17107242 9.62109375 48.9765625 C9.6295079 50.14563141 9.63792206 51.31470032 9.64659119 52.51919556 C9.77102515 60.82475786 10.87386557 68.1842514 13.625 76.0625 C14.01558594 77.19365234 14.01558594 77.19365234 14.4140625 78.34765625 C14.70410156 79.16556641 14.70410156 79.16556641 15 80 C13.68 80 12.36 80 11 80 C10.5196682 78.41701974 10.04078388 76.83360022 9.5625 75.25 C9.29566406 74.36828125 9.02882813 73.4865625 8.75390625 72.578125 C8.50511719 71.72734375 8.25632812 70.8765625 8 70 C7.82172165 69.40848145 7.6434433 68.81696289 7.45976257 68.20751953 C6.88798714 65.46217766 6.88303915 62.90673798 6.88989258 60.1015625 C6.88931351 58.91353027 6.88873444 57.72549805 6.88813782 56.50146484 C6.89130257 54.58261475 6.89130257 54.58261475 6.89453125 52.625 C6.88108127 49.92185425 6.86617145 47.21875004 6.84960938 44.515625 C6.82526034 40.2492055 6.80960763 35.98327629 6.82495117 31.71679688 C6.83434795 28.93244485 6.82806873 26.14900943 6.80387878 23.36474609 C6.78130634 20.74277279 6.78152589 18.12048578 6.80659485 15.49853516 C7.01636768 9.52425167 7.01636768 9.52425167 4.61312866 4.35644531 C2.80184575 3.13056573 2.80184575 3.13056573 0 2 C0 1.34 0 0.68 0 0 Z " fill="#20A571" transform="translate(258,312)"/>
<path d="M0 0 C1.20628008 2.33214148 2.1654738 4.49642139 3 7 C2.34 7 1.68 7 1 7 C1 51.55 1 96.1 1 142 C1.66 142.33 2.32 142.66 3 143 C3 146.3 3 149.6 3 153 C-1.03233301 147.62355598 -1.13415389 143.40745911 -1.08229065 136.84963989 C-1.07525116 135.63816788 -1.06821167 134.42669586 -1.06095886 133.17851257 C-1.04153984 131.20513664 -1.04153984 131.20513664 -1.02172852 129.19189453 C-1.01157612 127.78216359 -1.0018835 126.37242928 -0.99261475 124.96269226 C-0.96622996 121.14700686 -0.93343121 117.33140059 -0.89946485 113.51577616 C-0.86502619 109.52396291 -0.8365085 105.53210742 -0.80735779 101.54025269 C-0.75129672 93.98618989 -0.68992491 86.43217999 -0.62663645 78.87817466 C-0.55482596 70.27605364 -0.48894903 61.67389036 -0.42356598 53.07171845 C-0.28897106 35.3810906 -0.1469394 17.69052941 0 0 Z " fill="#1BCA7E" transform="translate(204,244)"/>
<path d="M0 0 C0.33 0 0.66 0 1 0 C1.09796875 0.60585937 1.1959375 1.21171875 1.296875 1.8359375 C2.71231011 9.76725491 5.33756217 16.83862603 9 24 C8.34 24 7.68 24 7 24 C7 23.34 7 22.68 7 22 C6.01 22 5.02 22 4 22 C4 20.68 4 19.36 4 18 C3.34 18 2.68 18 2 18 C1.67 17.01 1.34 16.02 1 15 C0.67 41.4 0.34 67.8 0 95 C1.98 95 3.96 95 6 95 C6 95.66 6 96.32 6 97 C7.98 97 9.96 97 12 97 C12.33 97.99 12.66 98.98 13 100 C11.60301364 99.71390693 10.2074567 99.42083095 8.8125 99.125 C8.03519531 98.96257812 7.25789063 98.80015625 6.45703125 98.6328125 C3.85887091 97.96365197 1.48043616 97.0152987 -1 96 C-1.02314421 83.92612203 -1.04092573 71.85224931 -1.05181217 59.77835369 C-1.05703643 54.1722962 -1.06412584 48.56625385 -1.07543945 42.96020508 C-1.0862845 37.55265465 -1.09228029 32.14511882 -1.09487724 26.73755836 C-1.09672856 24.67184024 -1.10034359 22.60612293 -1.10573006 20.540411 C-1.1129619 17.65281812 -1.11399003 14.76528598 -1.11352539 11.87768555 C-1.11712067 11.01885269 -1.12071594 10.16001984 -1.12442017 9.27516174 C-1.1185736 5.92951361 -1.06549863 3.19649589 0 0 Z " fill="#E7894D" transform="translate(267,222)"/>
<path d="M0 0 C0 0.66 0 1.32 0 2 C1.0725 1.979375 2.145 1.95875 3.25 1.9375 C7 2 7 2 8.91720963 2.4940176 C11.35879504 3.08716382 13.56180633 3.13997162 16.074646 3.15821838 C17.09825729 3.1680072 18.12186859 3.17779602 19.17649841 3.18788147 C20.29355667 3.19363693 21.41061493 3.1993924 22.56152344 3.20532227 C23.74228958 3.21522186 24.92305573 3.22512146 26.13960266 3.23532104 C29.37272108 3.2614831 32.6058344 3.28335577 35.83899593 3.30332303 C39.2196154 3.32521466 42.60019038 3.35258778 45.98077393 3.37937927 C52.38028164 3.42926325 58.77981411 3.47421798 65.17937016 3.51740164 C72.46593161 3.56681076 79.75244841 3.62171524 87.03896666 3.67708123 C102.02593614 3.79083532 117.0129477 3.89768863 132 4 C132 4.33 132 4.66 132 5 C115.66579743 5.07029945 99.33164446 5.12309018 82.99732685 5.15543652 C75.41182184 5.17085936 67.8264112 5.19186041 60.2409668 5.22631836 C53.62408908 5.25636195 47.00727977 5.27560824 40.39033574 5.28226548 C36.89159524 5.28615262 33.39305032 5.29519032 29.89437294 5.31719017 C25.97422438 5.34163685 22.05426147 5.34196048 18.1340332 5.34057617 C16.42282539 5.35675491 16.42282539 5.35675491 14.67704773 5.3732605 C6.77556739 5.34326823 -0.37912988 4.06126563 -8 2 C-8 1.67 -8 1.34 -8 1 C-5.23735711 0.40267181 -2.83967231 0 0 0 Z " fill="#E77E2E" transform="translate(288,321)"/>
<path d="M0 0 C0.33 0 0.66 0 1 0 C1 20.79 1 41.58 1 63 C-2.21341369 64.60670684 -5.62958968 63.82510855 -9.125 63.5625 C-9.87910156 63.51029297 -10.63320313 63.45808594 -11.41015625 63.40429688 C-13.2737937 63.27454996 -15.13694996 63.13792512 -17 63 C-17 62.34 -17 61.68 -17 61 C-11.72 61 -6.44 61 -1 61 C-1.00523682 59.75613525 -1.01047363 58.51227051 -1.01586914 57.23071289 C-1.03422837 52.53215276 -1.04554273 47.83359566 -1.05493164 43.13500977 C-1.05990226 41.11710066 -1.06668108 39.09919505 -1.07543945 37.08129883 C-1.12784874 24.67879498 -0.92123888 12.37077378 0 0 Z " fill="#37B57E" transform="translate(426,414)"/>
<path d="M0 0 C0.99 0.33 1.98 0.66 3 1 C1.01383583 8.06191704 -4.38169857 13.35206864 -10.625 16.875 C-12.07460819 17.60102225 -13.5319182 18.31209881 -15 19 C-15.804375 19.4125 -16.60875 19.825 -17.4375 20.25 C-25.91451472 22.73107748 -33.73501105 22.17013275 -42 19 C-43.84765625 17.390625 -43.84765625 17.390625 -45 16 C-42.625 15.875 -42.625 15.875 -40 16 C-39.34 16.66 -38.68 17.32 -38 18 C-36.06742145 18.36831081 -36.06742145 18.36831081 -33.8671875 18.4140625 C-33.06152344 18.45273438 -32.25585938 18.49140625 -31.42578125 18.53125 C-30.16314453 18.57765625 -30.16314453 18.57765625 -28.875 18.625 C-28.02550781 18.66367188 -27.17601562 18.70234375 -26.30078125 18.7421875 C-24.20088316 18.83656494 -22.10047109 18.91937586 -20 19 C-19.67 18.01 -19.34 17.02 -19 16 C-17.35 16.33 -15.7 16.66 -14 17 C-14 16.34 -14 15.68 -14 15 C-12.1875 13.3125 -12.1875 13.3125 -10 12 C-9.01 12.33 -8.02 12.66 -7 13 C-7 12.34 -7 11.68 -7 11 C-6.34 11 -5.68 11 -5 11 C-5 9.35 -5 7.7 -5 6 C-4.01 5.67 -3.02 5.34 -2 5 C-2 4.34 -2 3.68 -2 3 C-1.34 3 -0.68 3 0 3 C0 2.01 0 1.02 0 0 Z " fill="#C26821" transform="translate(167,152)"/>
<path d="M0 0 C1.34311435 1.08826701 2.66658039 2.20323015 3.9375 3.375 C3.9375 3.705 3.9375 4.035 3.9375 4.375 C2.2875 4.375 0.6375 4.375 -1.0625 4.375 C-1.0625 3.385 -1.0625 2.395 -1.0625 1.375 C-1.68125 1.25125 -2.3 1.1275 -2.9375 1 C-5.0625 0.375 -5.0625 0.375 -7.0625 -1.625 C-16.07639145 -4.62963048 -25.18702013 -4.79424268 -34.08203125 -1.359375 C-36.69263948 -0.39133881 -39.30860355 0.02193635 -42.0625 0.375 C-31.62279384 -11.80465718 -11.38657912 -8.69585385 0 0 Z " fill="#B96726" transform="translate(160.0625,111.625)"/>
<path d="M0 0 C1.02922583 3.08767749 0.98086544 4.2548669 0.58227539 7.38989258 C-0.34547244 16.48721578 -0.23698874 25.6261371 -0.31640625 34.76171875 C-0.33701206 36.76382338 -0.35800939 38.76592401 -0.37937927 40.76802063 C-0.43422582 46.00394427 -0.48379802 51.2399047 -0.53222656 56.47589111 C-0.58271712 61.83226748 -0.63825846 67.1885913 -0.69335938 72.54492188 C-0.80048234 83.02990288 -0.90202658 93.51492978 -1 104 C-1.99 103.67 -2.98 103.34 -4 103 C-3.34 103 -2.68 103 -2 103 C-2.00444122 101.73910553 -2.00888245 100.47821106 -2.01345825 99.17910767 C-2.05393444 87.31852826 -2.08395072 75.4579628 -2.10362434 63.59733009 C-2.11407861 57.49910233 -2.12826772 51.40093014 -2.15087891 45.30273438 C-2.17254877 39.42186306 -2.18455623 33.54104533 -2.18975449 27.66013718 C-2.1934608 25.41216564 -2.20069788 23.16419715 -2.21146011 20.91624832 C-2.2258972 17.77694521 -2.22798121 14.63786591 -2.22705078 11.49853516 C-2.23424133 10.56130112 -2.24143188 9.62406708 -2.24884033 8.65843201 C-2.246091 7.80585312 -2.24334167 6.95327423 -2.24050903 6.07485962 C-2.24235262 5.33189447 -2.24419621 4.58892933 -2.24609566 3.82345009 C-2 2 -2 2 0 0 Z " fill="#FCECD2" transform="translate(267,211)"/>
<path d="M0 0 C5.875 1.875 5.875 1.875 7 3 C7.09836454 4.50285458 7.12798513 6.01028787 7.12939453 7.51635742 C7.13254669 8.47793259 7.13569885 9.43950775 7.13894653 10.43022156 C7.1369223 11.47805313 7.13489807 12.5258847 7.1328125 13.60546875 C7.13376923 14.67742996 7.13472595 15.74939117 7.13571167 16.85383606 C7.13639395 19.12952737 7.13453638 21.4052206 7.13037109 23.6809082 C7.12504954 27.15515568 7.13030096 30.62927234 7.13671875 34.10351562 C7.13605746 36.31250028 7.13477526 38.52148486 7.1328125 40.73046875 C7.13483673 41.76817917 7.13686096 42.80588959 7.13894653 43.87504578 C7.12340027 48.69520755 7.01478396 53.26215812 6 58 C5.67 58 5.34 58 5 58 C5 40.18 5 22.36 5 4 C4.01 4 3.02 4 2 4 C2 3.34 2 2.68 2 2 C1.01 1.67 0.02 1.34 -1 1 C-0.67 0.67 -0.34 0.34 0 0 Z " fill="#14CD77" transform="translate(257,316)"/>
<path d="M0 0 C5.37463652 4.47886377 8.46695659 9.86114871 9.19970703 16.92529297 C9.59310164 23.90598976 9.56734236 30.38652608 7 37 C5.36645822 31.99727829 5.9807375 26.72316871 6.0625 21.53125 C6.01314395 18.74263342 5.85548099 16.61991053 5 14 C4.01 14.33 3.02 14.66 2 15 C1.26676204 17.01508358 1.26676204 17.01508358 1 19 C1 16 1 13 1 10 C0.01 10 -0.98 10 -2 10 C-1.67 8.68 -1.34 7.36 -1 6 C-0.34 6 0.32 6 1 6 C0.67 4.02 0.34 2.04 0 0 Z " fill="#FA7911" transform="translate(164,116)"/>
<path d="M0 0 C0.99 0.33 1.98 0.66 3 1 C2.67 1.680625 2.34 2.36125 2 3.0625 C0.82692685 6.50840238 0.85819507 9.38397422 1 13 C1.66 13.33 2.32 13.66 3 14 C3 14.99 3 15.98 3 17 C1.68 16.67 0.36 16.34 -1 16 C-1 15.01 -1 14.02 -1 13 C-1.66 13 -2.32 13 -3 13 C-0.57992918 21.1880031 -0.57992918 21.1880031 5 27 C5.40729228 29.32156597 5.74438677 31.6568787 6 34 C-6 19.42857143 -6 19.42857143 -6 11 C-5.01 11 -4.02 11 -3 11 C-2.87625 9.9275 -2.7525 8.855 -2.625 7.75 C-2.10356064 4.62136385 -1.59911746 2.66519576 0 0 Z " fill="#1DCB7D" transform="translate(217,399)"/>
<path d="M0 0 C0.61875 0.680625 1.2375 1.36125 1.875 2.0625 C10.90863899 11.01979838 21.34304031 16.18342196 34 17 C34 17.33 34 17.66 34 18 C33.02417969 18.06058594 32.04835938 18.12117188 31.04296875 18.18359375 C29.13451172 18.30927734 29.13451172 18.30927734 27.1875 18.4375 C25.92292969 18.51871094 24.65835937 18.59992188 23.35546875 18.68359375 C20.00818107 18.87184547 20.00818107 18.87184547 17 20 C14.8125 19.5625 14.8125 19.5625 13 19 C13 18.34 13 17.68 13 17 C13.99 17 14.98 17 16 17 C16 16.34 16 15.68 16 15 C13.69 14.34 11.38 13.68 9 13 C8.938125 12.071875 8.938125 12.071875 8.875 11.125 C8.58625 10.42375 8.2975 9.7225 8 9 C7.01 8.67 6.02 8.34 5 8 C4.01 7.67 3.02 7.34 2 7 C1.25 4.9375 1.25 4.9375 1 3 C0.34 2.67 -0.32 2.34 -1 2 C-0.67 1.34 -0.34 0.68 0 0 Z " fill="#1AAC70" transform="translate(275,395)"/>
<path d="M0 0 C0.33 0 0.66 0 1 0 C1.17688677 10.90026646 1.34284787 21.80063885 1.49477577 32.70128345 C1.56566353 37.76262635 1.64034553 42.82385452 1.72363281 47.88500977 C1.80383762 52.76726753 1.87416185 57.64957593 1.93757248 62.5320797 C1.96354044 64.39689078 1.99309743 66.26165537 2.02626419 68.12635231 C2.07203333 70.73369922 2.10515703 73.3409181 2.13525391 75.94848633 C2.1517952 76.72316254 2.16833649 77.49783875 2.18537903 78.29598999 C2.21565123 82.09503077 2.16320015 83.75519978 0 87 C-0.94860245 82.25794569 -1.10643695 77.69804143 -1.02172852 72.88330078 C-1.01212097 72.09238541 -1.00251343 71.30147003 -0.99261475 70.48658752 C-0.95980634 67.88940004 -0.91940574 65.29239047 -0.87890625 62.6953125 C-0.85458735 60.88785416 -0.83074469 59.08038935 -0.80735779 57.2729187 C-0.7446929 52.52836715 -0.67557689 47.78393086 -0.60510254 43.03948975 C-0.53425968 38.19304631 -0.46953834 33.34652151 -0.40429688 28.5 C-0.27551151 18.99991057 -0.13990859 9.49993167 0 0 Z " fill="#13CD7C" transform="translate(207,287)"/>
<path d="M0 0 C0.33 0 0.66 0 1 0 C0.855625 0.825 0.71125 1.65 0.5625 2.5 C1.14347449 7.14779595 3.27114829 8.99188992 6.46875 12.265625 C8 14 8 14 8 16 C9.98 16.66 11.96 17.32 14 18 C14 19.65 14 21.3 14 23 C13.01 23 12.02 23 11 23 C10.7525 22.360625 10.505 21.72125 10.25 21.0625 C9.8375 20.381875 9.425 19.70125 9 19 C8.34 18.87625 7.68 18.7525 7 18.625 C6.01 18.315625 6.01 18.315625 5 18 C4.29618843 16.01276732 3.6288189 14.01222047 3 12 C2.01 11.67 1.02 11.34 0 11 C-0.66 11.66 -1.32 12.32 -2 13 C-2.16682272 8.07872966 -2.24828052 4.49656104 0 0 Z " fill="#14CC7B" transform="translate(209,266)"/>
<path d="M0 0 C-1.52206009 2.62901288 -2.84365964 4.84365964 -5 7 C-5.99 7 -6.98 7 -8 7 C-8.33 6.34 -8.66 5.68 -9 5 C-9.66 5 -10.32 5 -11 5 C-11 5.99 -11 6.98 -11 8 C-10.34 8 -9.68 8 -9 8 C-9.33 8.99 -9.66 9.98 -10 11 C-10.66 11 -11.32 11 -12 11 C-12 10.34 -12 9.68 -12 9 C-12.99 9 -13.98 9 -15 9 C-15 9.66 -15 10.32 -15 11 C-15.99 11.33 -16.98 11.66 -18 12 C-16.58061706 7.17409802 -13.96341337 3.99057554 -10 1 C-4.0078125 -1.3359375 -4.0078125 -1.3359375 0 0 Z " fill="#FA7910" transform="translate(127,111)"/>
<path d="M0 0 C0.33 0 0.66 0 1 0 C1.06993164 0.589021 1.13986328 1.17804199 1.21191406 1.78491211 C1.54329886 4.50445178 1.89651253 7.22074835 2.25 9.9375 C2.35957031 10.86369141 2.46914062 11.78988281 2.58203125 12.74414062 C3.32755457 18.33556553 4.60182528 22.95494062 7.05957031 28.03295898 C8.22841819 30.47776878 9.01610634 32.95717752 9.75 35.5625 C9.99234375 36.40941406 10.2346875 37.25632812 10.484375 38.12890625 C10.65453125 38.74636719 10.8246875 39.36382812 11 40 C8.125 39.3125 8.125 39.3125 5 37 C4.14379338 33.77903224 3.78750303 30.64100778 3.43359375 27.328125 C3.05537297 24.42502495 2.48230848 22.29886933 1.375 19.625 C-0.94983226 13.39818798 -0.23255905 6.53749327 0 0 Z " fill="#69BE95" transform="translate(203,226)"/>
<path d="M0 0 C3.31373155 4.2667001 6.20587808 8.81261711 9.15234375 13.3359375 C11.8723241 17.46165694 14.76906375 21.25952542 18 25 C17.01 25.33 16.02 25.66 15 26 C13.5 24.625 13.5 24.625 12 23 C12 22.34 12 21.68 12 21 C11.01 21 10.02 21 9 21 C9 20.01 9 19.02 9 18 C8.01 17.67 7.02 17.34 6 17 C5.29094062 15.01463373 4.63305821 13.01089078 4 11 C3.31732644 9.77698636 2.60806943 8.56848848 1.875 7.375 C0 4 0 4 0 0 Z " fill="#39C686" transform="translate(214,266)"/>
<path d="M0 0 C1.65 0 3.3 0 5 0 C5.33 1.32 5.66 2.64 6 4 C6.556875 4.0825 7.11375 4.165 7.6875 4.25 C10.71260238 5.23111429 12.56043201 6.97694362 15 9 C17.97513524 10.9592354 20.48556658 12.349179 24 13 C24 13.66 24 14.32 24 15 C25.32 15.66 26.64 16.32 28 17 C27.34 17.33 26.68 17.66 26 18 C16.69741762 13.93114563 6.07244732 8.24218487 0 0 Z " fill="#29A06D" transform="translate(239,450)"/>
<path d="M0 0 C1.98 0 3.96 0 6 0 C6 0.99 6 1.98 6 3 C4.43883181 3.33951619 2.87598662 3.67132544 1.3125 4 C0.00732422 4.2784375 0.00732422 4.2784375 -1.32421875 4.5625 C-3.93712964 4.98972047 -6.35813038 5.07616201 -9 5 C-9 5.66 -9 6.32 -9 7 C-8.34 7 -7.68 7 -7 7 C-7.33 7.66 -7.66 8.32 -8 9 C-10.64 8.67 -13.28 8.34 -16 8 C-16 4 -16 4 -15 2 C-8.07 2.495 -8.07 2.495 -1 3 C-0.67 2.01 -0.34 1.02 0 0 Z " fill="#14CC7D" transform="translate(416,467)"/>
<path d="M0 0 C2.31 0.33 4.62 0.66 7 1 C6.01 2.485 6.01 2.485 5 4 C6.22976563 4.18175781 6.22976563 4.18175781 7.484375 4.3671875 C9.10085938 4.61855469 9.10085938 4.61855469 10.75 4.875 C11.81734375 5.03742188 12.8846875 5.19984375 13.984375 5.3671875 C16.67708871 5.93223882 18.63572439 6.63422914 21 8 C15.60330413 9.08350651 11.83684049 8.76479498 6.5625 7.25 C5.91015381 7.0653418 5.25780762 6.88068359 4.58569336 6.69042969 C-0.04388552 5.35534007 -4.54122976 3.81990622 -9 2 C-9 1.67 -9 1.34 -9 1 C-6.03 1.33 -3.06 1.66 0 2 C0 1.34 0 0.68 0 0 Z " fill="#24A46E" transform="translate(276,467)"/>
<path d="M0 0 C0.33 0 0.66 0 1 0 C1 2.97 1 5.94 1 9 C0.34 9 -0.32 9 -1 9 C-1 14.28 -1 19.56 -1 25 C-0.34 25 0.32 25 1 25 C2.48320272 28.83887763 3.22419163 31.06204091 2 35 C-3.25130475 25.19756447 -5.35061168 17.35085728 -2.2578125 6.36328125 C-1.55154811 4.22094594 -0.8086533 2.1055501 0 0 Z " fill="#A65F29" transform="translate(108,123)"/>
<path d="M0 0 C1.485 0.99 1.485 0.99 3 2 C3 2.66 3 3.32 3 4 C3.55816406 4.268125 4.11632812 4.53625 4.69140625 4.8125 C8.06173619 6.54613841 11.24252048 8.57033723 14.46484375 10.5625 C18.90342627 13.07929255 22.95266421 14.29572059 28 15 C28 15.66 28 16.32 28 17 C22.07329556 16.61026207 17.29615218 15.7584126 12 13 C11.67 12.34 11.34 11.68 11 11 C9.02111039 10.27306096 7.02045442 9.60183749 5 9 C5 8.34 5 7.68 5 7 C4.34 7 3.68 7 3 7 C3 6.34 3 5.68 3 5 C2.01 4.67 1.02 4.34 0 4 C0 2.68 0 1.36 0 0 Z " fill="#B76A27" transform="translate(276,246)"/>
<path d="M0 0 C1.65 0.33 3.3 0.66 5 1 C4.67 1.99 4.34 2.98 4 4 C4.66 4 5.32 4 6 4 C6.33 2.68 6.66 1.36 7 0 C9.40928735 0.96371494 10.76007009 1.65210163 12.25 3.8125 C13.11081611 6.32321365 13.14647297 8.36348649 13 11 C10.625 10.75 10.625 10.75 8 10 C7.71125 9.38125 7.4225 8.7625 7.125 8.125 C5.33878555 4.75103937 2.50739668 4.29903581 -1 3 C-0.67 2.01 -0.34 1.02 0 0 Z " fill="#0CCE7F" transform="translate(272,402)"/>
<path d="M0 0 C2 1 2 1 3.1171875 3.4140625 C4.27802673 8.12932983 4.21463445 12.5416344 4.125 17.375 C4.11597656 18.30183594 4.10695313 19.22867187 4.09765625 20.18359375 C4.07422937 22.45600077 4.04142748 24.7278618 4 27 C1.18167487 25.59083743 0.97406539 23.92219617 0 21 C0 20.01 0 19.02 0 18 C0.66 18 1.32 18 2 18 C1.85957123 16.35369672 1.71250671 14.70795821 1.5625 13.0625 C1.48128906 12.14597656 1.40007812 11.22945313 1.31640625 10.28515625 C1.23955024 8.03840268 1.23955024 8.03840268 0 7 C-0.04092937 4.66702567 -0.04241723 2.33294775 0 0 Z " fill="#14CC7C" transform="translate(258,367)"/>
<path d="M0 0 C1.04011378 3.12034135 0.97548849 4.4806014 0.59765625 7.67578125 C-0.17135711 15.16718106 -0.3495616 22.665125 -0.5625 30.1875 C-0.60581566 31.63086853 -0.64943346 33.07422803 -0.69335938 34.51757812 C-0.79904858 38.01162173 -0.90067582 41.50576898 -1 45 C-1.33 45 -1.66 45 -2 45 C-2.04934154 38.91277254 -2.08569167 32.8256608 -2.10986328 26.73828125 C-2.11993712 24.66632053 -2.13359666 22.59437407 -2.15087891 20.52246094 C-2.17506664 17.54879236 -2.18646908 14.5753113 -2.1953125 11.6015625 C-2.20563507 10.67131256 -2.21595764 9.74106262 -2.22659302 8.78262329 C-2.22674408 7.92188202 -2.22689514 7.06114075 -2.22705078 6.17431641 C-2.231492 5.41486725 -2.23593323 4.65541809 -2.24050903 3.87295532 C-2 2 -2 2 0 0 Z " fill="#FEEED9" transform="translate(267,211)"/>
<path d="M0 0 C2.375 -0.125 2.375 -0.125 5 0 C5.66 0.66 6.32 1.32 7 2 C9.22658154 2.37004294 9.22658154 2.37004294 11.7890625 2.4140625 C13.20058594 2.47207031 13.20058594 2.47207031 14.640625 2.53125 C15.62546875 2.5621875 16.6103125 2.593125 17.625 2.625 C19.11386719 2.68300781 19.11386719 2.68300781 20.6328125 2.7421875 C23.08835385 2.8366314 25.5438841 2.92219875 28 3 C22.96875454 6.35416364 17.68186366 6.41985487 11.78125 5.49609375 C2.83619736 3.42266529 2.83619736 3.42266529 0 0 Z " fill="#AF6724" transform="translate(122,168)"/>
<path d="M0 0 C0.33 0 0.66 0 1 0 C1.09796875 0.60585937 1.1959375 1.21171875 1.296875 1.8359375 C2.71231011 9.76725491 5.33756217 16.83862603 9 24 C8.34 24 7.68 24 7 24 C7 23.34 7 22.68 7 22 C6.01 22 5.02 22 4 22 C4 20.68 4 19.36 4 18 C3.34 18 2.68 18 2 18 C-1.2260201 13.16096985 -1.21260606 8.74036357 -1 3 C-0.67 2.01 -0.34 1.02 0 0 Z " fill="#AB6121" transform="translate(267,222)"/>
<path d="M0 0 C0.66 0 1.32 0 2 0 C2.03738281 0.62648438 2.07476562 1.25296875 2.11328125 1.8984375 C2.17902344 2.71570313 2.24476563 3.53296875 2.3125 4.375 C2.37050781 5.18710937 2.42851562 5.99921875 2.48828125 6.8359375 C2.82990528 9.37921338 2.82990528 9.37921338 6 11 C6 12.32 6 13.64 6 15 C4.5199159 14.88637738 3.04089926 14.75877092 1.5625 14.625 C0.73878906 14.55539062 -0.08492188 14.48578125 -0.93359375 14.4140625 C-1.61550781 14.27742188 -2.29742187 14.14078125 -3 14 C-3.33 13.34 -3.66 12.68 -4 12 C-2.68 11.34 -1.36 10.68 0 10 C0 6.7 0 3.4 0 0 Z " fill="#13CC7C" transform="translate(270,454)"/>
<path d="M0 0 C3.08292137 4.62438205 3.18261764 8.4272521 3.1875 13.8125 C3.19974609 14.51181641 3.21199219 15.21113281 3.22460938 15.93164062 C3.23699659 20.34561655 2.62789183 23.90131584 1 28 C0.0178006 24.72373625 -0.11580914 21.77211881 -0.09765625 18.359375 C-0.09443359 17.28945312 -0.09121094 16.21953125 -0.08789062 15.1171875 C-0.07951172 14.00601563 -0.07113281 12.89484375 -0.0625 11.75 C-0.05798828 10.62335938 -0.05347656 9.49671875 -0.04882812 8.3359375 C-0.03705397 5.55723783 -0.0206084 2.77864591 0 0 Z " fill="#B36828" transform="translate(170,125)"/>
<path d="M0 0 C0.66 0 1.32 0 2 0 C2 0.66 2 1.32 2 2 C3.32 2.33 4.64 2.66 6 3 C6 3.66 6 4.32 6 5 C6.66 5 7.32 5 8 5 C8.3403125 6.175625 8.3403125 6.175625 8.6875 7.375 C9.74935407 10.23222853 9.74935407 10.23222853 12.5625 11 C13.7690625 11.495 13.7690625 11.495 15 12 C15.8125 14.625 15.8125 14.625 16 17 C15.34 17 14.68 17 14 17 C14 16.34 14 15.68 14 15 C13.34 15 12.68 15 12 15 C12 14.34 12 13.68 12 13 C11.34 13 10.68 13 10 13 C6.05438215 9.1684723 2.58335871 4.86279287 0 0 Z " fill="#249E69" transform="translate(223,433)"/>
<path d="M0 0 C0.99 0 1.98 0 3 0 C3.433125 1.216875 3.86625 2.43375 4.3125 3.6875 C6.4230023 9.82936806 6.4230023 9.82936806 11 14 C11.40729228 16.32156597 11.74438677 18.6568787 12 21 C0 6.42857143 0 6.42857143 0 0 Z " fill="#25A06C" transform="translate(211,412)"/>
<path d="M0 0 C0.33 0.99 0.66 1.98 1 3 C3.97 3 6.94 3 10 3 C9.67 3.66 9.34 4.32 9 5 C8.34 5 7.68 5 7 5 C7 5.99 7 6.98 7 8 C7.99 8 8.98 8 10 8 C10 7.34 10 6.68 10 6 C10.99 6 11.98 6 13 6 C13 6.99 13 7.98 13 9 C12.01 9 11.02 9 10 9 C10 9.66 10 10.32 10 11 C4.70841026 9.59928507 2.22521956 6.14512755 -1 2 C-0.67 1.34 -0.34 0.68 0 0 Z " fill="#D77121" transform="translate(112,157)"/>
<path d="M0 0 C0.61875 0.680625 1.2375 1.36125 1.875 2.0625 C5.14858134 5.3643832 8.95349748 7.85311449 12.79296875 10.44921875 C15 12 15 12 17 14 C14.36 13.67 11.72 13.34 9 13 C8.938125 12.071875 8.938125 12.071875 8.875 11.125 C8.58625 10.42375 8.2975 9.7225 8 9 C7.01 8.67 6.02 8.34 5 8 C4.01 7.67 3.02 7.34 2 7 C1.25 4.9375 1.25 4.9375 1 3 C0.34 2.67 -0.32 2.34 -1 2 C-0.67 1.34 -0.34 0.68 0 0 Z " fill="#218E60" transform="translate(275,395)"/>
<path d="M0 0 C0.70962891 0.54527344 0.70962891 0.54527344 1.43359375 1.1015625 C5.88593124 4.48638048 10.42365712 7.66132482 15.1171875 10.703125 C17 12 17 12 19 14 C17.02 14 15.04 14 13 14 C13 13.34 13 12.68 13 12 C12.42636719 11.72929687 11.85273438 11.45859375 11.26171875 11.1796875 C8.95826975 9.97823397 6.91584489 8.64824789 4.8125 7.125 C4.11769531 6.63257813 3.42289063 6.14015625 2.70703125 5.6328125 C0.7696606 3.77967536 0.37926876 2.61525625 0 0 Z " fill="#5AC58F" transform="translate(239,298)"/>
<path d="M0 0 C0.33 0 0.66 0 1 0 C1 3.96 1 7.92 1 12 C1.66 12.33 2.32 12.66 3 13 C3 16.3 3 19.6 3 23 C-1.42229025 17.103613 -1.44322262 11.16977771 -1 4 C-0.70039364 2.65868538 -0.37677812 1.32171371 0 0 Z " fill="#27AC72" transform="translate(204,374)"/>
<path d="M0 0 C1.32 0 2.64 0 4 0 C3.979375 0.9075 3.95875 1.815 3.9375 2.75 C3.85422971 5.84934697 3.85422971 5.84934697 4.625 8.125 C5.13034477 10.65172384 4.30563197 11.84954734 3 14 C3 12.35 3 10.7 3 9 C2.01 8.67 1.02 8.34 0 8 C-1.125 2.25 -1.125 2.25 0 0 Z " fill="#FD7817" transform="translate(166,139)"/>
<path d="M0 0 C0.33 0 0.66 0 1 0 C1.10957031 0.54527344 1.21914063 1.09054687 1.33203125 1.65234375 C2.51009937 7.25535065 4.087035 12.6054387 6 18 C4.68 18 3.36 18 2 18 C0.04968308 13.92276266 -0.21581971 10.68307578 -0.125 6.1875 C-0.10695313 5.02605469 -0.08890625 3.86460937 -0.0703125 2.66796875 C-0.04710937 1.78753906 -0.02390625 0.90710938 0 0 Z " fill="#2A9968" transform="translate(267,374)"/>
<path d="M0 0 C0 2.62113708 -0.31292445 4.50935112 -1 7 C-0.34 7 0.32 7 1 7 C0.67 7.99 0.34 8.98 0 10 C-0.66 10 -1.32 10 -2 10 C-2 9.34 -2 8.68 -2 8 C-2.99 8 -3.98 8 -5 8 C-5 8.66 -5 9.32 -5 10 C-5.99 10.33 -6.98 10.66 -8 11 C-6.52670958 5.99081256 -3.72484762 3.48192278 0 0 Z " fill="#C26724" transform="translate(117,112)"/>
<path d="M0 0 C0 0.66 0 1.32 0 2 C1.0725 1.95875 2.145 1.9175 3.25 1.875 C6.65747485 1.9885825 8.20739631 2.21273364 11 4 C6.23420205 5.09367096 2.8441202 4.76635719 -1.875 3.5625 C-3.02742188 3.27503906 -4.17984375 2.98757813 -5.3671875 2.69140625 C-6.23601562 2.46324219 -7.10484375 2.23507812 -8 2 C-8 1.67 -8 1.34 -8 1 C-5.23735711 0.40267181 -2.83967231 0 0 0 Z " fill="#BB6C29" transform="translate(288,321)"/>
<path d="M0 0 C4.08378283 0.74250597 8.01939223 1.82923301 12 3 C11.67 3.66 11.34 4.32 11 5 C8.69 5 6.38 5 4 5 C4 4.34 4 3.68 4 3 C2.35 3 0.7 3 -1 3 C-0.67 2.01 -0.34 1.02 0 0 Z " fill="#18CC7B" transform="translate(284,463)"/>
<path d="M0 0 C0.99 0.33 1.98 0.66 3 1 C3.05399736 2.45792884 3.09279177 3.91642712 3.125 5.375 C3.14820313 6.18710937 3.17140625 6.99921875 3.1953125 7.8359375 C3 10 3 10 1 12 C-1.23551759 8.64672361 -1.17283528 8.09256343 -0.625 4.3125 C-0.51414063 3.50425781 -0.40328125 2.69601562 -0.2890625 1.86328125 C-0.19367188 1.24839844 -0.09828125 0.63351562 0 0 Z " fill="#14CC7A" transform="translate(222,400)"/>
<path d="M0 0 C1.32 0.66 2.64 1.32 4 2 C3.01 2.495 3.01 2.495 2 3 C2 4.32 2 5.64 2 7 C2.66 7.33 3.32 7.66 4 8 C2.68 8 1.36 8 0 8 C0 7.01 0 6.02 0 5 C-1.32 4.67 -2.64 4.34 -4 4 C-4 3.34 -4 2.68 -4 2 C-2.68 2 -1.36 2 0 2 C0 1.34 0 0.68 0 0 Z " fill="#19CC7A" transform="translate(244,305)"/>
<path d="M0 0 C2.31 0.33 4.62 0.66 7 1 C7 1.66 7 2.32 7 3 C8.98 3 10.96 3 13 3 C13.33 3.99 13.66 4.98 14 6 C9.16371695 5.00956295 4.52381127 4.04301154 0 2 C0 1.34 0 0.68 0 0 Z " fill="#B26A28" transform="translate(266,316)"/>
<path d="M0 0 C2.17581687 2.84881728 4.20937999 5.76084088 6.1875 8.75 C6.71730469 9.54921875 7.24710938 10.3484375 7.79296875 11.171875 C8.19128906 11.77515625 8.58960938 12.3784375 9 13 C8.67 13.66 8.34 14.32 8 15 C4.32842047 11.6261161 1.87656686 8.64203381 0 4 C0 2.68 0 1.36 0 0 Z " fill="#60C490" transform="translate(214,266)"/>
<path d="M0 0 C1.32 0.66 2.64 1.32 4 2 C-0.26311718 6.12989477 -3.28758534 6.61271765 -9 7 C-8.67 6.01 -8.34 5.02 -8 4 C-6.35 4.33 -4.7 4.66 -3 5 C-3 4.34 -3 3.68 -3 3 C-1.5 1.375 -1.5 1.375 0 0 Z " fill="#D0752E" transform="translate(156,164)"/>
<path d="M0 0 C1.98 0.66 3.96 1.32 6 2 C6 7.61 6 13.22 6 19 C5.67 19 5.34 19 5 19 C5 14.05 5 9.1 5 4 C4.01 4 3.02 4 2 4 C2 3.34 2 2.68 2 2 C1.01 1.67 0.02 1.34 -1 1 C-0.67 0.67 -0.34 0.34 0 0 Z " fill="#20CC7A" transform="translate(257,316)"/>
<path d="M0 0 C2 2 2 2 2.125 4.625 C2.08375 5.40875 2.0425 6.1925 2 7 C-0.375 6.75 -0.375 6.75 -3 6 C-4.3125 3.9375 -4.3125 3.9375 -5 2 C-3.35 1.34 -1.7 0.68 0 0 Z " fill="#1ACC7A" transform="translate(283,406)"/>
<path d="M0 0 C0.33 0 0.66 0 1 0 C1 2.97 1 5.94 1 9 C0.34 9 -0.32 9 -1 9 C-1 10.32 -1 11.64 -1 13 C-1.66 13 -2.32 13 -3 13 C-2.52060632 8.28596212 -2.03165952 4.33420699 0 0 Z " fill="#C06D28" transform="translate(108,123)"/>
<path d="M0 0 C1.32 0.66 2.64 1.32 4 2 C4 2.99 4 3.98 4 5 C1.125 5.625 1.125 5.625 -2 6 C-2.66 5.34 -3.32 4.68 -4 4 C-2.68 2.68 -1.36 1.36 0 0 Z " fill="#12CC7B" transform="translate(250,315)"/>
<path d="M0 0 C0.33 0 0.66 0 1 0 C1.22134176 2.12368444 1.42670007 4.24904024 1.625 6.375 C1.74101562 7.55835938 1.85703125 8.74171875 1.9765625 9.9609375 C1.98429687 10.96382812 1.99203125 11.96671875 2 13 C1.34 13.66 0.68 14.32 0 15 C-1.23615622 9.90085558 -1.67479795 5.02439385 0 0 Z " fill="#BF7137" transform="translate(267,222)"/>
<path d="M0 0 C1.67542976 0.28604898 3.34385343 0.61781233 5 1 C5 2.32 5 3.64 5 5 C3.35 5 1.7 5 0 5 C-0.5625 3.0625 -0.5625 3.0625 -1 1 C-0.67 0.67 -0.34 0.34 0 0 Z " fill="#14CC7C" transform="translate(266,396)"/>
<path d="M0 0 C0.99 0 1.98 0 3 0 C2.34 1.98 1.68 3.96 1 6 C-0.65 6.33 -2.3 6.66 -4 7 C-2.79618552 4.50638429 -1.54571278 2.31856917 0 0 Z " fill="#FC7911" transform="translate(123,119)"/>
<path d="M0 0 C0.33 0.66 0.66 1.32 1 2 C1.66 2 2.32 2 3 2 C3 5 3 5 1.625 6.6875 C0 8 0 8 -2 8 C-2 6.02 -2 4.04 -2 2 C-1.34 2 -0.68 2 0 2 C0 1.34 0 0.68 0 0 Z " fill="#F97918" transform="translate(273,244)"/>
<path d="M0 0 C2.96404505 2.80804268 5.44499019 5.18315774 7 9 C4.5625 8.25 4.5625 8.25 2 7 C1.3125 4.9375 1.3125 4.9375 1 3 C0.34 2.67 -0.32 2.34 -1 2 C-0.67 1.34 -0.34 0.68 0 0 Z " fill="#2CA874" transform="translate(275,395)"/>
<path d="M0 0 C2.64 0.99 5.28 1.98 8 3 C8 5.31 8 7.62 8 10 C7.79375 9.4225 7.5875 8.845 7.375 8.25 C5.51518335 5.20666366 2.95455813 3.92688574 0 2 C0 1.34 0 0.68 0 0 Z " fill="#4BC687" transform="translate(258,312)"/>
<path d="M0 0 C4.875 3.625 4.875 3.625 6 7 C4.35 6.67 2.7 6.34 1 6 C0.67 4.02 0.34 2.04 0 0 Z " fill="#54C58E" transform="translate(226,285)"/>
<path d="M0 0 C0.33 0.99 0.66 1.98 1 3 C1.99 3 2.98 3 4 3 C4.66 4.98 5.32 6.96 6 9 C4.02 8.01 2.04 7.02 0 6 C0 4.02 0 2.04 0 0 Z " fill="#3AC986" transform="translate(208,257)"/>
<path d="M0 0 C1.10370043 3.3111013 0.92673641 5.24748949 0.5625 8.6875 C0.40974609 10.17830078 0.40974609 10.17830078 0.25390625 11.69921875 C0.12822266 12.83810547 0.12822266 12.83810547 0 14 C-0.33 14 -0.66 14 -1 14 C-1.22142255 12.04310341 -1.4267568 10.08438048 -1.625 8.125 C-1.74101562 7.03445312 -1.85703125 5.94390625 -1.9765625 4.8203125 C-1.98429687 3.88960937 -1.99203125 2.95890625 -2 2 C-1.34 1.34 -0.68 0.68 0 0 Z " fill="#A9B6AF" transform="translate(267,211)"/>
<path d="M0 0 C5.57142857 5.14285714 5.57142857 5.14285714 6 9 C5.01 8.67 4.02 8.34 3 8 C3 7.34 3 6.68 3 6 C2.34 6 1.68 6 1 6 C0.67 4.02 0.34 2.04 0 0 Z " fill="#A25927" transform="translate(164,116)"/>
<path d="M0 0 C3.96 0.99 3.96 0.99 8 2 C7.34 2.66 6.68 3.32 6 4 C3.27130593 3.96712417 0.7033382 3.43602229 -2 3 C-1.34 2.67 -0.68 2.34 0 2 C0 1.34 0 0.68 0 0 Z " fill="#1FA873" transform="translate(289,472)"/>
<path d="M0 0 C1.32 1.32 2.64 2.64 4 4 C3.67 4.66 3.34 5.32 3 6 C1.0625 5.1875 1.0625 5.1875 -1 4 C-1.33 3.01 -1.66 2.02 -2 1 C-1.34 0.67 -0.68 0.34 0 0 Z " fill="#1ACC78" transform="translate(229,295)"/>
<path d="M0 0 C0.66 0 1.32 0 2 0 C3.76462683 3.08809695 4 4.23312136 4 8 C3.34 8 2.68 8 2 8 C2 7.01 2 6.02 2 5 C1.34 5 0.68 5 0 5 C0 3.35 0 1.7 0 0 Z " fill="#53C38D" transform="translate(207,252)"/>
<path d="M0 0 C0.7425 0.0825 1.485 0.165 2.25 0.25 C-2.25 4.25 -2.25 4.25 -6.75 4.25 C-3.42692308 0.31153846 -3.42692308 0.31153846 0 0 Z " fill="#A7C2C2" transform="translate(288.75,179.75)"/>
<path d="M0 0 C1.32 0 2.64 0 4 0 C4.66 1.65 5.32 3.3 6 5 C4.02 4.34 2.04 3.68 0 3 C0 2.01 0 1.02 0 0 Z " fill="#14CC7D" transform="translate(250,450)"/>
<path d="M0 0 C0.66 0 1.32 0 2 0 C2.66 1.98 3.32 3.96 4 6 C2.68 6 1.36 6 0 6 C-0.38218767 4.34385343 -0.71395102 2.67542976 -1 1 C-0.67 0.67 -0.34 0.34 0 0 Z " fill="#25A56C" transform="translate(269,386)"/>
<path d="M0 0 C2 2 2 2 2.125 5.125 C2.08375 6.07375 2.0425 7.0225 2 8 C1.01 7.67 0.02 7.34 -1 7 C-0.67 4.69 -0.34 2.38 0 0 Z " fill="#16CC7A" transform="translate(256,377)"/>
<path d="M0 0 C0.99 0 1.98 0 3 0 C3 1.65 3 3.3 3 5 C1.68 5 0.36 5 -1 5 C-0.67 3.35 -0.34 1.7 0 0 Z " fill="#1BCC7C" transform="translate(211,284)"/>
<path d="M0 0 C0.33 1.32 0.66 2.64 1 4 C0.01 4.33 -0.98 4.66 -2 5 C-2.73323796 7.01508358 -2.73323796 7.01508358 -3 9 C-3.66 9 -4.32 9 -5 9 C-3.7508258 5.54074837 -2.32472205 2.85306797 0 0 Z " fill="#8F9E9F" transform="translate(223,155)"/>
<path d="M0 0 C0.99 0.33 1.98 0.66 3 1 C3.8125 2.8125 3.8125 2.8125 4 5 C3.0625 7.25 3.0625 7.25 2 9 C2 7.35 2 5.7 2 4 C1.34 4 0.68 4 0 4 C0 2.68 0 1.36 0 0 Z " fill="#F57B1F" transform="translate(167,144)"/>
<path d="M0 0 C0.66 0 1.32 0 2 0 C2.33 1.32 2.66 2.64 3 4 C2.01 4.33 1.02 4.66 0 5 C-0.33 5.66 -0.66 6.32 -1 7 C-1.33 6.01 -1.66 5.02 -2 4 C-1.34 4 -0.68 4 0 4 C0 2.68 0 1.36 0 0 Z " fill="#FC7A0E" transform="translate(109,128)"/>
</svg>
