<?xml version="1.0" encoding="UTF-8"?>
<svg version="1.1" xmlns="http://www.w3.org/2000/svg" width="492" height="507">
<path d="M0 0 C1.6228743 -0.00262848 1.6228743 -0.00262848 3.27853394 -0.00531006 C6.84480404 -0.00970188 10.41102434 -0.00680099 13.97729492 -0.00341797 C16.45497141 -0.00409153 18.93264783 -0.00506199 21.4103241 -0.00631714 C26.5959842 -0.00779028 31.78162706 -0.00565092 36.96728516 -0.00097656 C42.30323506 0.00359776 47.63914855 0.00385282 52.97509766 -0.00097656 C59.4140096 -0.00675456 65.85290116 -0.00769136 72.2918148 -0.00442123 C74.74993583 -0.00375208 77.20805772 -0.00457998 79.66617775 -0.00690079 C83.08997561 -0.00942505 86.51370712 -0.0055906 89.9375 0 C90.96241043 -0.00202423 91.98732086 -0.00404846 93.04328918 -0.00613403 C93.96996399 -0.00331421 94.89663879 -0.00049438 95.85139465 0.00241089 C96.66123212 0.00278791 97.47106958 0.00316494 98.30544758 0.00355339 C100.14526367 0.12939453 100.14526367 0.12939453 101.14526367 1.12939453 C101.23891374 2.87868173 101.26270805 4.63175707 101.25878906 6.38354492 C101.25871353 7.5046315 101.258638 8.62571808 101.25856018 9.78077698 C101.2533989 11.00054733 101.24823761 12.22031769 101.24291992 13.47705078 C101.2407975 15.33939613 101.2407975 15.33939613 101.2386322 17.23936462 C101.23396958 20.54544944 101.22497864 23.851466 101.21392822 27.15753174 C101.20371194 30.52900603 101.19913412 33.90048736 101.1940918 37.27197266 C101.18303763 43.89113228 101.16628104 50.51025946 101.14526367 57.12939453 C99.86456749 57.12606361 99.86456749 57.12606361 98.55799866 57.12266541 C90.34195596 57.10227043 82.12592226 57.087227 73.90985966 57.07758236 C69.69022061 57.07245669 65.47060317 57.06555808 61.25097656 57.05395508 C44.48872967 57.00938084 27.72384889 57.00005423 10.96526909 57.39712715 C9.56582552 57.42901052 8.16627341 57.45650259 6.76664925 57.47910881 C-6.5328722 57.70603604 -16.74850901 59.83868304 -26.79614258 68.87548828 C-32.99966436 75.3201837 -37.02342566 83.56175717 -37.41723633 92.56689453 C-36.7690307 104.38811817 -32.50086173 113.72729533 -24.04614258 121.87158203 C-11.75543172 132.14365223 3.67378036 130.73334639 18.72338867 130.73876953 C21.10521561 130.75376802 23.48703221 130.77049864 25.86883545 130.78887939 C32.10268663 130.83237732 38.33639753 130.85251311 44.57037354 130.86761475 C52.06885298 130.89070834 59.56717913 130.9431177 67.0655365 130.99055481 C78.42548536 131.05916882 89.78499496 131.09078043 101.14526367 131.12939453 C101.14526367 149.60939453 101.14526367 168.08939453 101.14526367 187.12939453 C73.62616393 187.28982977 73.62616393 187.28982977 61.80737305 187.32470703 C53.77364589 187.34852776 45.74012752 187.37656901 37.70654297 187.43115234 C31.22258945 187.47492626 24.73883358 187.49859786 18.25474358 187.5089035 C15.79306875 187.51623858 13.33140354 187.53056056 10.86981392 187.55231476 C-6.29255675 187.69781942 -20.74682204 186.33866772 -36.85473633 180.12939453 C-36.81284813 187.33399082 -36.74030934 194.53782827 -36.6472168 201.74194336 C-36.6191234 204.18881367 -36.59785149 206.63577278 -36.58374023 209.08276367 C-36.56214971 212.61569295 -36.51541519 216.1475676 -36.46411133 219.68017578 C-36.46288269 220.76083817 -36.46165405 221.84150055 -36.46038818 222.95491028 C-36.24935617 234.08781887 -33.25522334 242.81750673 -25.49926758 250.89501953 C-18.94189714 256.43536797 -10.96025068 260.22407981 -2.3183136 260.28088379 C-1.41394562 260.28922745 -0.50957764 260.29757111 0.42219543 260.3061676 C1.40677231 260.31035202 2.39134918 260.31453644 3.40576172 260.31884766 C4.44837158 260.32714096 5.49098145 260.33543427 6.56518555 260.34397888 C8.82796911 260.36137012 11.09077058 260.37653946 13.35358238 260.38975525 C16.92895094 260.41077368 20.50422893 260.43779494 24.07954407 260.46643066 C32.95585639 260.5362794 41.83223272 260.59576997 50.70861816 260.65545654 C58.21334031 260.70629063 65.71801276 260.76107205 73.22266579 260.8212738 C76.75533723 260.84794338 80.28801309 260.86869691 83.82072449 260.88928223 C85.97146834 260.90587593 88.12221008 260.92274694 90.27294922 260.93994141 C91.26359879 260.94412582 92.25424835 260.94831024 93.2749176 260.95262146 C94.17082611 260.96096512 95.06673462 260.96930878 95.98979187 260.97790527 C96.7727296 260.98305901 97.55566732 260.98821274 98.36233044 260.99352264 C100.14526367 261.12939453 100.14526367 261.12939453 101.14526367 262.12939453 C101.2440796 263.84258399 101.27325337 265.55984256 101.2746582 267.27587891 C101.27781036 268.37371704 101.28096252 269.47155518 101.28421021 270.60266113 C101.28117386 272.39480042 101.28117386 272.39480042 101.27807617 274.22314453 C101.2790329 275.44014038 101.27998962 276.65713623 101.28097534 277.91101074 C101.28165739 280.49015352 101.27980139 283.069298 101.27563477 285.6484375 C101.2702869 289.61218089 101.27557896 293.57581095 101.28198242 297.53955078 C101.28132164 300.03824895 101.28004049 302.53694705 101.27807617 305.03564453 C101.2801004 306.23040405 101.28212463 307.42516357 101.28421021 308.65612793 C101.27948196 310.30288513 101.27948196 310.30288513 101.2746582 311.98291016 C101.27386261 312.95474243 101.27306702 313.92657471 101.27224731 314.92785645 C101.14526367 317.12939453 101.14526367 317.12939453 100.14526367 318.12939453 C98.73121901 318.23356774 97.31203686 318.26900694 95.8941803 318.27656555 C94.97643326 318.28372086 94.05868622 318.29087616 93.11312866 318.29824829 C92.09772003 318.30093719 91.0823114 318.3036261 90.03613281 318.30639648 C88.97250015 318.31296768 87.90886749 318.31953888 86.81300354 318.3263092 C83.26880833 318.34612235 79.72465594 318.35773107 76.18041992 318.36767578 C74.96815672 318.37175131 73.75589352 318.37582684 72.50689507 318.38002586 C66.07360884 318.40093434 59.64034416 318.41520753 53.20703125 318.42456055 C46.59814322 318.43454708 39.98954519 318.46985351 33.38077641 318.50973225 C28.27334527 318.53606229 23.1659933 318.54426752 18.05850029 318.54784203 C15.62557123 318.55267663 13.19264494 318.56419986 10.75978279 318.58288002 C-19.41825496 318.79993087 -44.59908733 312.3102182 -66.85473633 291.12939453 C-85.41630216 272.76559272 -93.89094086 248.64543812 -94.09179688 222.90551758 C-94.10490906 221.6880484 -94.11802124 220.47057922 -94.13153076 219.21621704 C-94.16607807 215.88649243 -94.19632389 212.55679033 -94.22392249 209.22700477 C-94.24152003 207.13338531 -94.26038488 205.03978106 -94.27967262 202.94617653 C-94.3472081 195.60241856 -94.40951206 188.25863595 -94.46728516 180.91479492 C-94.5207355 174.13893571 -94.58586953 167.36325895 -94.65662354 160.58756036 C-94.71728102 154.72385043 -94.76908636 148.86010147 -94.8145507 142.99625427 C-94.8416924 139.51565696 -94.87205062 136.03517392 -94.91156578 132.55469322 C-95.32973655 93.69493439 -94.5855426 56.46838085 -66.44311523 26.74023438 C-62.86517121 23.11169538 -59.03368295 20.03125507 -54.85473633 17.12939453 C-54.01813477 16.52869141 -53.1815332 15.92798828 -52.31958008 15.30908203 C-41.62589813 8.03296854 -29.48591658 3.68504818 -16.85473633 1.12939453 C-15.62253105 0.86909958 -15.62253105 0.86909958 -14.36543274 0.60354614 C-9.56571562 -0.04469949 -4.83789313 -0.00965029 0 0 Z " fill="#FAFBFA" transform="translate(261.854736328125,96.87060546875)"/>
<path d="M0 0 C0.33 0 0.66 0 1 0 C1.06058594 1.21558594 1.12117187 2.43117187 1.18359375 3.68359375 C1.26798332 5.26824228 1.3526321 6.85287702 1.4375 8.4375 C1.47681641 9.23994141 1.51613281 10.04238281 1.55664062 10.86914062 C1.4054296 14.75239561 1.4054296 14.75239561 3 18 C3.20061436 19.62343313 3.3845775 21.24892348 3.5625 22.875 C7.06894953 44.64096076 20.93950764 65.37464935 38.58935547 78.31787109 C45.94753562 83.92010106 45.94753562 83.92010106 54.25 87.5625 C54.8275 87.706875 55.405 87.85125 56 88 C57.2399386 90.47987719 57.13116767 92.14370733 57.1418457 94.91772461 C57.14888016 95.94316879 57.15591461 96.96861298 57.16316223 98.02513123 C57.16732651 99.13961136 57.17149078 100.25409149 57.17578125 101.40234375 C57.19899792 103.76107645 57.22311597 106.11980042 57.24804688 108.47851562 C57.28302535 112.19773031 57.31242422 115.91662792 57.32592773 119.63598633 C57.34151097 123.22516584 57.38180888 126.81341377 57.42578125 130.40234375 C57.42387283 131.4986058 57.42196442 132.59486786 57.41999817 133.72434998 C57.59504877 144.91053758 60.56068414 153.64767353 68.35546875 161.765625 C74.91283919 167.30597344 82.89448564 171.09468528 91.53642273 171.15148926 C92.44079071 171.15983292 93.34515869 171.16817657 94.27693176 171.17677307 C95.26150864 171.18095749 96.24608551 171.18514191 97.26049805 171.18945312 C98.82441284 171.20189308 98.82441284 171.20189308 100.41992188 171.21458435 C102.68270544 171.23197558 104.94550691 171.24714493 107.20831871 171.26036072 C110.78368727 171.28137915 114.35896526 171.30840041 117.9342804 171.33703613 C126.81059272 171.40688486 135.68696905 171.46637544 144.56335449 171.52606201 C152.06807664 171.57689609 159.57274909 171.63167752 167.07740211 171.69187927 C170.61007356 171.71854884 174.14274942 171.73930237 177.67546082 171.7598877 C179.82620467 171.7764814 181.97694641 171.7933524 184.12768555 171.81054688 C185.11833511 171.81473129 186.10898468 171.81891571 187.12965393 171.82322693 C188.02556244 171.83157059 188.92147095 171.83991425 189.8445282 171.84851074 C190.62746593 171.85366447 191.41040365 171.85881821 192.21706676 171.86412811 C194 172 194 172 195 173 C195.09881593 174.71318946 195.12798969 176.43044803 195.12939453 178.14648438 C195.13254669 179.24432251 195.13569885 180.34216064 195.13894653 181.4732666 C195.13591019 183.26540588 195.13591019 183.26540588 195.1328125 185.09375 C195.13376923 186.31074585 195.13472595 187.5277417 195.13571167 188.78161621 C195.13639372 191.36075899 195.13453772 193.93990347 195.13037109 196.51904297 C195.12502322 200.48278636 195.13031529 204.44641642 195.13671875 208.41015625 C195.13605797 210.90885442 195.13477682 213.40755252 195.1328125 215.90625 C195.13483673 217.10100952 195.13686096 218.29576904 195.13894653 219.5267334 C195.13421829 221.1734906 195.13421829 221.1734906 195.12939453 222.85351562 C195.12859894 223.8253479 195.12780334 224.79718018 195.12698364 225.79846191 C195 228 195 228 194 229 C192.58595534 229.10417321 191.16677318 229.1396124 189.74891663 229.14717102 C188.83116959 229.15432632 187.91342255 229.16148163 186.96786499 229.16885376 C185.95245636 229.17154266 184.93704773 229.17423157 183.89086914 229.17700195 C182.82723648 229.18357315 181.76360382 229.19014435 180.66773987 229.19691467 C177.12354466 229.21672781 173.57939227 229.22833653 170.03515625 229.23828125 C168.82289305 229.24235678 167.61062984 229.2464323 166.36163139 229.25063133 C159.92834517 229.27153981 153.49508049 229.285813 147.06176758 229.29516602 C140.45287955 229.30515255 133.84428151 229.34045898 127.23551273 229.38033772 C122.1280816 229.40666776 117.02072963 229.41487299 111.91323662 229.41844749 C109.48030756 229.4232821 107.04738127 229.43480532 104.61451912 229.45348549 C74.43648137 229.67053634 49.255649 223.18082367 27 202 C8.39144923 183.58971385 -0.05745433 159.43184989 -0.22119141 133.63330078 C-0.2326973 132.40137497 -0.24420319 131.16944916 -0.25605774 129.90019226 C-0.28637758 126.53387904 -0.31245248 123.16758815 -0.3362546 119.80122614 C-0.35678652 116.97664202 -0.38029261 114.15208577 -0.40379179 111.32752502 C-0.45931995 104.64871706 -0.51003562 97.9698846 -0.55761719 91.29101562 C-0.60647255 84.44345796 -0.66281502 77.59599211 -0.72303832 70.74852574 C-0.77477209 64.83906801 -0.82200857 58.92958574 -0.86572587 53.02006328 C-0.8917582 49.50459224 -0.91931054 45.9891523 -0.9510994 42.47372818 C-1.07757477 28.27751091 -1.17291256 14.15807309 0 0 Z " fill="#01CC7D" transform="translate(168,186)"/>
<path d="M0 0 C2 1 2 1 2.60546875 2.75 C2.79753906 3.4925 2.98960937 4.235 3.1875 5 C5.96429072 13.73300681 12.19790649 20.38971837 20 25 C31.33963089 30.79970213 44.20618943 29.60491676 56.578125 29.609375 C58.95995194 29.62437349 61.34176854 29.64110411 63.72357178 29.65948486 C69.95742295 29.70298279 76.19113386 29.72311858 82.42510986 29.73822021 C89.92358931 29.76131381 97.42191546 29.81372317 104.92027283 29.86116028 C116.28022168 29.92977429 127.63973129 29.9613859 139 30 C139 48.48 139 66.96 139 86 C111.48090026 86.16043524 111.48090026 86.16043524 99.66210938 86.1953125 C91.62838221 86.21913323 83.59486385 86.24717448 75.5612793 86.30175781 C69.07732577 86.34553173 62.59356991 86.36920333 56.1094799 86.37950897 C53.64780508 86.38684405 51.18613987 86.40116603 48.72455025 86.42292023 C30.78471395 86.57501634 16.60175075 85.37855589 0 78 C0 52.26 0 26.52 0 0 Z " fill="#FE7800" transform="translate(224,198)"/>
<path d="M0 0 C7.97915759 4.84448854 13.15874699 11.93827913 15.375 21 C16.55215353 30.06529578 14.93326949 38.27864876 10.08984375 46.06640625 C5.77441187 51.63199109 -0.65933321 55.72296109 -7.625 57 C-17.82754299 57.84329962 -26.15902957 56.6417131 -34.4375 50.375 C-39.60229331 45.60092391 -43.31472146 37.95732303 -43.86328125 30.9609375 C-44.02184841 23.29963999 -43.62786892 17.59683332 -39.625 11 C-39.274375 10.36449219 -38.92375 9.72898437 -38.5625 9.07421875 C-31.11469418 -3.00260527 -12.3182137 -5.67361311 0 0 Z " fill="#FC7801" transform="translate(127.625,94)"/>
<path d="M0 0 C2 1 2 1 2.640625 2.75 C2.84171875 3.4925 3.0428125 4.235 3.25 5 C4.90303943 10.33597702 7.72688907 14.51933358 11 19 C9.68 19 8.36 19 7 19 C7 17.68 7 16.36 7 15 C6.01 14.67 5.02 14.34 4 14 C3.3125 11.9375 3.3125 11.9375 3 10 C2.34 10 1.68 10 1 10 C1.33 32.11 1.66 54.22 2 77 C4.31 77.33 6.62 77.66 9 78 C9 78.66 9 79.32 9 80 C23.45272734 82.81586363 37.3995359 83.41663313 52.09765625 83.328125 C54.35257338 83.32505888 56.60749241 83.32318926 58.8624115 83.32244873 C63.54254627 83.31788827 68.22250486 83.30361499 72.90258789 83.28125 C78.90932444 83.25269101 84.91592478 83.24200596 90.92272282 83.2375679 C95.55766664 83.23342419 100.19258292 83.22362003 104.82751274 83.21169281 C107.04477151 83.20599251 109.2620329 83.20123301 111.47929573 83.19742584 C114.55663928 83.19058578 117.63387293 83.17697146 120.71118164 83.16113281 C121.62791656 83.16001495 122.54465149 83.15889709 123.48916626 83.15774536 C127.88222045 83.26679873 127.88222045 83.26679873 132 82 C132 82.66 132 83.32 132 84 C133.65 84 135.3 84 137 84 C137 66.51 137 49.02 137 31 C101.03 31 65.06 31 28 31 C28 30.34 28 29.68 28 29 C64.63 29.33 101.26 29.66 139 30 C139 48.48 139 66.96 139 86 C111.48090026 86.16043524 111.48090026 86.16043524 99.66210938 86.1953125 C91.62838221 86.21913323 83.59486385 86.24717448 75.5612793 86.30175781 C69.07732577 86.34553173 62.59356991 86.36920333 56.1094799 86.37950897 C53.64780508 86.38684405 51.18613987 86.40116603 48.72455025 86.42292023 C30.78471395 86.57501634 16.60175075 85.37855589 0 78 C0 52.26 0 26.52 0 0 Z " fill="#D2791F" transform="translate(224,198)"/>
<path d="M0 0 C0.33 0 0.66 0 1 0 C1.02526563 7.81452752 1.04283105 15.62904458 1.05493164 23.44360352 C1.05997383 26.10441481 1.06680736 28.76522332 1.07543945 31.42602539 C1.08751009 35.24105516 1.09322929 39.05604844 1.09765625 42.87109375 C1.10281754 44.06899033 1.10797882 45.2668869 1.11329651 46.50108337 C1.11337204 47.6021492 1.11344757 48.70321503 1.11352539 49.83764648 C1.115746 50.81249496 1.11796661 51.78734344 1.12025452 52.79173279 C1 55 1 55 0 56 C-1.41404466 56.10417321 -2.83322682 56.1396124 -4.25108337 56.14717102 C-5.16883041 56.15432632 -6.08657745 56.16148163 -7.03213501 56.16885376 C-8.04754364 56.17154266 -9.06295227 56.17423157 -10.10913086 56.17700195 C-11.17276352 56.18357315 -12.23639618 56.19014435 -13.33226013 56.19691467 C-16.87645534 56.21672781 -20.42060773 56.22833653 -23.96484375 56.23828125 C-25.17710695 56.24235678 -26.38937016 56.2464323 -27.63836861 56.25063133 C-34.07165483 56.27153981 -40.50491951 56.285813 -46.93823242 56.29516602 C-53.54712045 56.30515255 -60.15571849 56.34045898 -66.76448727 56.38033772 C-71.8719184 56.40666776 -76.97927037 56.41487299 -82.08676338 56.41844749 C-84.51969244 56.4232821 -86.95261873 56.43480532 -89.38548088 56.45348549 C-106.24528938 56.57474704 -124.80150099 56.55140133 -140 48 C-140.33 47.34 -140.66 46.68 -141 46 C-139.02 46 -137.04 46 -135 46 C-135 46.66 -135 47.32 -135 48 C-133.96842773 48.18486969 -133.96842773 48.18486969 -132.91601562 48.37347412 C-130 49 -130 49 -126.94335938 49.95123291 C-113.90694263 53.83788707 -101.00970641 53.6047736 -87.5 53.609375 C-84.96694902 53.62438183 -82.43390773 53.64111416 -79.90087891 53.65948486 C-73.95861179 53.69847387 -68.01644515 53.72030698 -62.07407951 53.73345876 C-53.43616081 53.75383198 -44.79845496 53.80974974 -36.16067505 53.86116028 C-24.10707956 53.92966929 -12.05389478 53.96136572 0 54 C0 36.18 0 18.36 0 0 Z " fill="#119D6F" transform="translate(362,359)"/>
<path d="M0 0 C1.89201393 0.48513565 1.89201393 0.48513565 3.82225037 0.98007202 C9.19089734 2.16640404 14.36276175 2.30661792 19.84399414 2.31884766 C21.41141357 2.33391609 21.41141357 2.33391609 23.01049805 2.34928894 C26.43537895 2.37997144 29.86018222 2.39711449 33.28515625 2.4140625 C35.67126629 2.43278615 38.05736979 2.45236045 40.44346619 2.4727478 C46.70197688 2.52394838 52.96050902 2.56363869 59.21911621 2.60089111 C66.74002105 2.64806846 74.26082051 2.7096144 81.7816391 2.76873779 C93.18771658 2.85680273 104.59377537 2.92667289 116 3 C116 21.15 116 39.3 116 58 C114.515 57.505 114.515 57.505 113 57 C113.66 57 114.32 57 115 57 C114.67 40.17 114.34 23.34 114 6 C106.93207031 5.96261719 99.86414063 5.92523438 92.58203125 5.88671875 C88.08396076 5.85641561 83.58592871 5.82525232 79.08789062 5.79101562 C71.96038839 5.73684598 64.8329622 5.68573011 57.70532227 5.65356445 C51.95394368 5.62740936 46.20282285 5.58692155 40.45160484 5.53681374 C38.26579704 5.52022722 36.07994474 5.50866212 33.89408302 5.50238609 C9.74523575 5.42608438 9.74523575 5.42608438 1 2 C0.67 1.34 0.34 0.68 0 0 Z " fill="#0AB075" transform="translate(246,355)"/>
<path d="M0 0 C0.33 0 0.66 0 1 0 C1.01030746 0.88027863 1.02061493 1.76055725 1.03123474 2.66751099 C1.13119419 11.16164118 1.23390035 19.65573344 1.33933926 28.14979744 C1.39339636 32.51163349 1.44656205 36.87347571 1.49731445 41.23535156 C1.71702857 60.05277369 1.99894888 78.86676268 2.47265625 97.6796875 C2.49134703 98.45962193 2.5100378 99.23955635 2.52929497 100.04312515 C2.82980736 112.40257983 3.28380257 124.74144691 5 137 C-3.14428752 124.78356872 -0.37978655 105.3818535 -0.29296875 91.50390625 C-0.28736394 88.85732779 -0.28295016 86.21077383 -0.28010559 83.56419373 C-0.2708498 77.34911352 -0.24632555 71.13419512 -0.21605712 64.91918558 C-0.18230935 57.83314306 -0.16597635 50.74709205 -0.15097082 43.66098893 C-0.11976867 29.10724319 -0.06713675 14.55362387 0 0 Z " fill="#0EA472" transform="translate(168,213)"/>
<path d="M0 0 C1.98 0 3.96 0 6 0 C6 0.66 6 1.32 6 2 C6.64386658 2.11305984 7.28773315 2.22611969 7.95111084 2.34260559 C10.3580816 2.86159104 12.64703194 3.46678231 15.00250244 4.16654968 C28.60096804 8.09058522 41.39528783 8.73617491 55.484375 8.70703125 C57.76508891 8.72018336 60.04579125 8.73549815 62.32647705 8.75285339 C68.25777469 8.79230529 74.18876492 8.80286789 80.12017822 8.80688477 C86.20130507 8.8162921 92.28225686 8.85375216 98.36328125 8.88867188 C110.2421796 8.95284133 122.12094343 8.986414 134 9 C134 9.33 134 9.66 134 10 C120.62063342 10.09317417 107.24134556 10.16400387 93.86171913 10.20724869 C87.6472785 10.2280166 81.4330618 10.25613461 75.21875 10.30175781 C69.20811169 10.34560351 63.19768714 10.36921801 57.18690109 10.37950897 C54.90747087 10.38683144 52.62805073 10.40112774 50.34871292 10.42292023 C33.90117974 10.57374683 15.80463847 10.32979659 1 2 C0.67 1.34 0.34 0.68 0 0 Z " fill="#00524D" transform="translate(221,405)"/>
<path d="M0 0 C2 1 2 1 2.640625 2.75 C2.84171875 3.4925 3.0428125 4.235 3.25 5 C4.90303943 10.33597702 7.72688907 14.51933358 11 19 C9.68 19 8.36 19 7 19 C7 17.68 7 16.36 7 15 C6.01 14.67 5.02 14.34 4 14 C3.3125 11.9375 3.3125 11.9375 3 10 C2.34 10 1.68 10 1 10 C1.33 32.11 1.66 54.22 2 77 C4.31 77.33 6.62 77.66 9 78 C9 78.66 9 79.32 9 80 C9.73605469 80.12117188 10.47210938 80.24234375 11.23046875 80.3671875 C12.20628906 80.53476562 13.18210938 80.70234375 14.1875 80.875 C15.15042969 81.03742188 16.11335938 81.19984375 17.10546875 81.3671875 C19.91032604 81.98039517 22.37224747 82.85666343 25 84 C25 84.33 25 84.66 25 85 C18.17207308 84.64063543 5.1211821 83.1211821 0 78 C-0.09498646 75.56603981 -0.12558417 73.16057048 -0.11352539 70.72631836 C-0.11367142 69.96539383 -0.11381744 69.2044693 -0.1139679 68.42048645 C-0.11326862 65.89357702 -0.10547555 63.36674038 -0.09765625 60.83984375 C-0.09579212 59.0924941 -0.0943682 57.34514393 -0.09336853 55.59779358 C-0.08954293 50.98968066 -0.07971229 46.38159905 -0.06866455 41.77349854 C-0.05845134 37.07491479 -0.0538711 32.37632601 -0.04882812 27.67773438 C-0.03809005 18.45180913 -0.02101313 9.22590716 0 0 Z " fill="#E57E22" transform="translate(224,198)"/>
<path d="M0 0 C0.33 0 0.66 0 1 0 C1.06058594 1.21558594 1.12117187 2.43117187 1.18359375 3.68359375 C1.26798332 5.26824228 1.3526321 6.85287702 1.4375 8.4375 C1.47681641 9.23994141 1.51613281 10.04238281 1.55664062 10.86914062 C1.4054296 14.75239561 1.4054296 14.75239561 3 18 C3.37477233 19.90899657 3.69995565 21.8278409 4 23.75 C4.59413722 27.51905796 5.22504647 31.26361693 6 35 C5.01 35 4.02 35 3 35 C2.67 57.77 2.34 80.54 2 104 C1.67 104 1.34 104 1 104 C0.98969254 103.03755875 0.97938507 102.07511749 0.96876526 101.08351135 C0.87119981 92.03332912 0.76848217 82.98321823 0.66066074 73.9331522 C0.60538993 69.27992231 0.55196342 64.62668619 0.50268555 59.97338867 C0.45510315 55.48649883 0.40276283 50.99968788 0.34705925 46.51289177 C0.32660784 44.79721975 0.30789947 43.08152607 0.29092598 41.36581612 C0.26694335 38.97109231 0.23688088 36.57651898 0.20532227 34.18188477 C0.1995668 33.46547318 0.19381134 32.74906158 0.18788147 32.01094055 C0.41761825 28.72243051 0.41761825 28.72243051 -1 26 C-1.01676178 24.07126501 -0.96268831 22.14183108 -0.87890625 20.21484375 C-0.83056641 19.04501953 -0.78222656 17.87519531 -0.73242188 16.66992188 C-0.67634766 15.43822266 -0.62027344 14.20652344 -0.5625 12.9375 C-0.51029297 11.70193359 -0.45808594 10.46636719 -0.40429688 9.19335938 C-0.27413667 6.12867809 -0.13915654 3.06428387 0 0 Z " fill="#0FC381" transform="translate(168,186)"/>
<path d="M0 0 C2.5343574 2.5343574 2.25048298 3.40780753 2.25537109 6.91772461 C2.26233002 7.94316879 2.26928894 8.96861298 2.27645874 10.02513123 C2.27546173 11.13961136 2.27446472 12.25409149 2.2734375 13.40234375 C2.29374558 15.76107229 2.31459669 18.1197962 2.3359375 20.47851562 C2.35844102 24.197712 2.37496709 27.91672525 2.38085938 31.63598633 C2.39044891 35.22511023 2.42432766 38.81340731 2.4609375 42.40234375 C2.45589203 43.4986058 2.45084656 44.59486786 2.44564819 45.72434998 C2.5657829 55.26949468 4.9468825 62.91016681 10 71 C8.35 70.34 6.7 69.68 5 69 C5 68.01 5 67.02 5 66 C4.01 65.67 3.02 65.34 2 65 C1.93941406 64.37351562 1.87882813 63.74703125 1.81640625 63.1015625 C1.73261719 62.28429687 1.64882812 61.46703125 1.5625 60.625 C1.48128906 59.81289063 1.40007812 59.00078125 1.31640625 58.1640625 C1.10909886 55.95727195 1.10909886 55.95727195 0 54 C-0.09061856 52.27393547 -0.11754501 50.54435493 -0.11352539 48.81591797 C-0.11344986 47.73494843 -0.11337433 46.65397888 -0.11329651 45.54025269 C-0.10813522 44.36939117 -0.10297394 43.19852966 -0.09765625 41.9921875 C-0.0962413 40.79643097 -0.09482635 39.60067444 -0.09336853 38.36868286 C-0.08775663 34.53743013 -0.07520208 30.70623516 -0.0625 26.875 C-0.05748653 24.28255293 -0.05292336 21.69010494 -0.04882812 19.09765625 C-0.03778333 12.73175102 -0.02103359 6.36587963 0 0 Z " fill="#1BAA72" transform="translate(223,274)"/>
<path d="M0 0 C3.1953973 1.80367374 5.06547107 3.71899517 7.125 6.75 C4.125 6.75 4.125 6.75 1.8125 4.875 C-1.03143867 2.6263043 -3.40985288 1.7170178 -6.875 0.75 C-6.875 0.09 -6.875 -0.57 -6.875 -1.25 C-9.10472273 -1.13534579 -11.33378753 -1.00785234 -13.5625 -0.875 C-15.42455078 -0.77058594 -15.42455078 -0.77058594 -17.32421875 -0.6640625 C-23.51177138 0.05747829 -26.72203417 2.24754498 -31.12890625 6.41015625 C-33.04457134 7.8801185 -34.51778312 8.33220007 -36.875 8.75 C-36.875 9.74 -36.875 10.73 -36.875 11.75 C-37.865 12.08 -38.855 12.41 -39.875 12.75 C-38.03948128 6.90971318 -34.43640953 3.53728423 -29.25 0.5 C-20.83254024 -3.86460876 -8.63860093 -4.1721243 0 0 Z " fill="#C47821" transform="translate(127.875,94.25)"/>
<path d="M0 0 C0.33 0 0.66 0 1 0 C1.06058594 1.21558594 1.12117187 2.43117187 1.18359375 3.68359375 C1.26798332 5.26824228 1.3526321 6.85287702 1.4375 8.4375 C1.47681641 9.23994141 1.51613281 10.04238281 1.55664062 10.86914062 C1.4054296 14.75239561 1.4054296 14.75239561 3 18 C3.23427778 20.01594582 3.41336124 22.038474 3.5625 24.0625 C3.64628906 25.16722656 3.73007813 26.27195313 3.81640625 27.41015625 C3.87699219 28.26480469 3.93757812 29.11945313 4 30 C3.01 30.33 2.02 30.66 1 31 C-0.86277616 27.06782575 -1.18972695 24.15145715 -0.9765625 19.82421875 C-0.925 18.66728516 -0.8734375 17.51035156 -0.8203125 16.31835938 C-0.72363281 14.52108398 -0.72363281 14.52108398 -0.625 12.6875 C-0.56828125 11.46998047 -0.5115625 10.25246094 -0.453125 8.99804688 C-0.31194999 5.99807798 -0.1605635 2.9989834 0 0 Z " fill="#52B690" transform="translate(168,186)"/>
<path d="M0 0 C4.95 0.99 4.95 0.99 10 2 C10 2.33 10 2.66 10 3 C15.61 3.33 21.22 3.66 27 4 C27 3.34 27 2.68 27 2 C28.65 2 30.3 2 32 2 C25.81272954 7.08240074 18.73349718 6.66362962 11 6 C7.4606278 5.04009314 4.17069896 3.85634939 1 2 C0.67 1.34 0.34 0.68 0 0 Z " fill="#BD7825" transform="translate(96,145)"/>
<path d="M0 0 C1.98 0 3.96 0 6 0 C6 0.66 6 1.32 6 2 C6.65355469 2.12246094 7.30710938 2.24492187 7.98046875 2.37109375 C11.78591683 3.16369031 15.54452912 4.10956367 19.3125 5.0625 C20.05306641 5.24876953 20.79363281 5.43503906 21.55664062 5.62695312 C23.37136441 6.08356105 25.18571971 6.54163306 27 7 C27 7.33 27 7.66 27 8 C20.28823158 8.30629102 15.25701234 7.49758845 9 5.125 C8.23816406 4.85558594 7.47632813 4.58617187 6.69140625 4.30859375 C1.14000307 2.28000613 1.14000307 2.28000613 0 0 Z " fill="#0A8759" transform="translate(221,405)"/>
<path d="M0 0 C0.99 0 1.98 0 3 0 C3 6.27 3 12.54 3 19 C3.66 19 4.32 19 5 19 C5.99 21.97 6.98 24.94 8 28 C3.38633008 24.37497364 1.38412444 19.56533367 0 14 C-0.31134585 9.31035319 -0.24336091 4.69145761 0 0 Z " fill="#CA6F1A" transform="translate(84,114)"/>
<path d="M0 0 C0.33 0 0.66 0 1 0 C1.33 1.65 1.66 3.3 2 5 C4.31 5.33 6.62 5.66 9 6 C9 6.66 9 7.32 9 8 C9.73605469 8.12117188 10.47210938 8.24234375 11.23046875 8.3671875 C12.69419922 8.61855469 12.69419922 8.61855469 14.1875 8.875 C15.15042969 9.03742188 16.11335938 9.19984375 17.10546875 9.3671875 C19.91032604 9.98039517 22.37224747 10.85666343 25 12 C25 12.33 25 12.66 25 13 C18.17207308 12.64063543 5.1211821 11.1211821 0 6 C-0.04080783 4.00041636 -0.04254356 1.99954746 0 0 Z " fill="#C0771E" transform="translate(224,270)"/>
<path d="M0 0 C0 3 0 3 -1.390625 4.5703125 C-2.31101562 5.33988281 -2.31101562 5.33988281 -3.25 6.125 C-3.85328125 6.64320312 -4.4565625 7.16140625 -5.078125 7.6953125 C-7.07471451 9.05072083 -8.64237402 9.57228909 -11 10 C-11 10.99 -11 11.98 -11 13 C-11.99 13.33 -12.98 13.66 -14 14 C-11.70161199 6.68694725 -6.44120918 3.41005192 0 0 Z " fill="#BA6814" transform="translate(102,93)"/>
<path d="M0 0 C0.33 0 0.66 0 1 0 C1.57184845 8.21237916 0.26682231 14.46005743 -3 22 C-3.66 22 -4.32 22 -5 22 C-5 19.03 -5 16.06 -5 13 C-4.01 12.67 -3.02 12.34 -2 12 C-1.34 8.04 -0.68 4.08 0 0 Z " fill="#CA741D" transform="translate(142,116)"/>
<path d="M0 0 C0.33 0 0.66 0 1 0 C1.17015625 0.7734375 1.3403125 1.546875 1.515625 2.34375 C3.01197863 8.77488687 4.79396146 14.22913062 8 20 C8.33 20.66 8.66 21.32 9 22 C6.525 21.01 6.525 21.01 4 20 C4 19.01 4 18.02 4 17 C3.01 16.67 2.02 16.34 1 16 C0.67 10.72 0.34 5.44 0 0 Z " fill="#12A875" transform="translate(224,323)"/>
<path d="M0 0 C0.928125 0.825 1.85625 1.65 2.8125 2.5 C7.63858793 6.65083283 12.81940662 10.30894432 18 14 C15 15 15 15 12.8125 14.0625 C12.214375 13.711875 11.61625 13.36125 11 13 C11 12.34 11 11.68 11 11 C10.4225 10.71125 9.845 10.4225 9.25 10.125 C7.16666667 9.08333333 5.08333333 8.04166667 3 7 C3 6.34 3 5.68 3 5 C2.34 5 1.68 5 1 5 C0.67 3.35 0.34 1.7 0 0 Z " fill="#31C18A" transform="translate(194,254)"/>
<path d="M0 0 C2 1 2 1 2.640625 2.75 C2.84171875 3.4925 3.0428125 4.235 3.25 5 C4.90303943 10.33597702 7.72688907 14.51933358 11 19 C9.68 19 8.36 19 7 19 C7 17.68 7 16.36 7 15 C6.01 14.67 5.02 14.34 4 14 C3.3125 11.9375 3.3125 11.9375 3 10 C2.34 10 1.68 10 1 10 C0.67 6.7 0.34 3.4 0 0 Z " fill="#BD741E" transform="translate(224,198)"/>
<path d="M0 0 C1.98 0.66 3.96 1.32 6 2 C6 6.29 6 10.58 6 15 C5.67 15 5.34 15 5 15 C4.65820312 12.02148438 4.65820312 12.02148438 4.31640625 9.04296875 C4.02829265 6.80603607 4.02829265 6.80603607 3 4 C2.01 3.34 1.02 2.68 0 2 C0 1.34 0 0.68 0 0 Z " fill="#1AC47C" transform="translate(217,272)"/>
<path d="M0 0 C-2.21368294 2.21368294 -3.93016625 3.86552921 -7.11328125 4.265625 C-9.07746787 4.25166986 -11.0402625 4.13286356 -13 4 C-9.0516245 0.65906688 -5.11813443 -1.70604481 0 0 Z " fill="#97AAAA" transform="translate(236,102)"/>
<path d="M0 0 C0.33 0 0.66 0 1 0 C1.33 1.65 1.66 3.3 2 5 C4.31 5.33 6.62 5.66 9 6 C9 6.66 9 7.32 9 8 C9.66 8.33 10.32 8.66 11 9 C9.741875 8.87625 8.48375 8.7525 7.1875 8.625 C6.47980469 8.55539062 5.77210938 8.48578125 5.04296875 8.4140625 C3 8 3 8 0 6 C-0.1875 2.875 -0.1875 2.875 0 0 Z " fill="#D17D1B" transform="translate(224,270)"/>
<path d="M0 0 C3.33161397 2.98696425 5.34826557 5.82719722 7 10 C6.6875 12.375 6.6875 12.375 6 14 C6 13.34 6 12.68 6 12 C5.34 12 4.68 12 4 12 C2.66666667 8 1.33333333 4 0 0 Z " fill="#B76D1D" transform="translate(135,101)"/>
<path d="M0 0 C0.33 2.31 0.66 4.62 1 7 C-0.98 5.35 -2.96 3.7 -5 2 C-2 0 -2 0 0 0 Z " fill="#089767" transform="translate(198,384)"/>
<path d="M0 0 C2.18840439 3.28260659 4.15885893 6.50818073 6 10 C5.67 10.66 5.34 11.32 5 12 C3.0625 11.0625 3.0625 11.0625 1 9 C0.33825175 6.0141919 0.12794052 3.05138131 0 0 Z " fill="#3ABE8C" transform="translate(176,226)"/>
<path d="M0 0 C4.95 0.99 4.95 0.99 10 2 C10.33 2.99 10.66 3.98 11 5 C6.62886504 4.49172849 3.61004338 3.54826592 0 1 C0 0.67 0 0.34 0 0 Z " fill="#B9701F" transform="translate(96,145)"/>
<path d="M0 0 C3.63 0.66 7.26 1.32 11 2 C11 2.33 11 2.66 11 3 C9.54257537 3.08096803 8.08387193 3.13917774 6.625 3.1875 C5.81289062 3.22230469 5.00078125 3.25710938 4.1640625 3.29296875 C3.44992188 3.19628906 2.73578125 3.09960938 2 3 C1.34 2.01 0.68 1.02 0 0 Z " fill="#12976B" transform="translate(237,410)"/>
<path d="M0 0 C2.97 1.65 5.94 3.3 9 5 C5 6 5 6 2.8125 5.3125 C1 4 1 4 0 0 Z " fill="#0C9367" transform="translate(237,349)"/>
<path d="M0 0 C2.97 0.495 2.97 0.495 6 1 C6.33 2.32 6.66 3.64 7 5 C3.34683329 3.75023244 2.21934164 3.32901247 0 0 Z " fill="#0A905E" transform="translate(206,396)"/>
<path d="M0 0 C3.26460973 1.80412643 4.88929795 2.83394693 7 6 C4 6 4 6 1.8125 4.125 C0 2 0 2 0 0 Z " fill="#A46218" transform="translate(128,95)"/>
</svg>
