<?xml version="1.0" encoding="UTF-8"?>
<svg version="1.1" xmlns="http://www.w3.org/2000/svg" width="503" height="518">
<path d="M0 0 C165.99 0 331.98 0 503 0 C503 170.94 503 341.88 503 518 C337.01 518 171.02 518 0 518 C0 347.06 0 176.12 0 0 Z " fill="#002E2E" transform="translate(0,0)"/>
<path d="M0 0 C1.64013313 -0.00021904 1.64013313 -0.00021904 3.31340027 -0.0004425 C6.91150934 0.00025168 10.50956603 0.00802096 14.10766602 0.01586914 C16.60872876 0.01773507 19.10979186 0.01915815 21.6108551 0.02015686 C27.51093115 0.0235791 33.410988 0.03145294 39.3110562 0.04150635 C47.87232083 0.0557757 56.43359187 0.06098805 64.99486542 0.06731415 C76.97128315 0.07699921 88.94765213 0.09616546 100.92407227 0.11352539 C100.92407227 18.59352539 100.92407227 37.07352539 100.92407227 56.11352539 C93.37661133 56.16250977 85.82915039 56.21149414 78.05297852 56.26196289 C73.2632518 56.29736041 68.47354284 56.33332687 63.68383789 56.37133789 C56.08628925 56.43157787 48.48876538 56.48974422 40.89111328 56.53540039 C34.76374433 56.57235328 28.63651193 56.61874049 22.50926018 56.6715889 C20.17500142 56.6900797 17.84071346 56.70520714 15.5064106 56.71686935 C12.22955555 56.73382275 8.95300963 56.76287989 5.67626953 56.79467773 C4.23803833 56.79791801 4.23803833 56.79791801 2.77075195 56.80122375 C-9.06976093 56.94739804 -20.24405634 59.63982978 -29.08764648 68.01977539 C-39.73777842 79.20142963 -39.68958808 90.45430382 -39.72045898 105.12133789 C-39.73856747 107.1087691 -39.75825037 109.09618651 -39.77940369 111.08358765 C-39.8302557 116.37744355 -39.85583751 121.67112436 -39.87486267 126.96517944 C-39.89295945 131.33206165 -39.92414338 135.69881501 -39.95477104 140.06562424 C-40.12539307 164.91460041 -40.18029795 189.76599612 -39.82592773 214.61352539 C-39.80715073 216.3175351 -39.80715073 216.3175351 -39.78799438 218.05596924 C-39.74926511 221.19029668 -39.69027664 224.32345109 -39.62280273 227.45727539 C-39.60841408 228.77554825 -39.60841408 228.77554825 -39.59373474 230.12045288 C-39.3079994 240.25637978 -35.17027006 248.8564895 -28.11889648 256.13305664 C-18.82439272 264.57452755 -9.35112503 266.40578857 2.83813477 266.43237305 C3.90244217 266.44241867 4.96674957 266.45246429 6.06330872 266.46281433 C9.55855807 266.49354557 13.05373116 266.51065362 16.54907227 266.52758789 C18.98145194 266.54630761 21.41382517 266.56588162 23.84619141 266.58627319 C30.23130491 266.63751531 36.61643944 266.67718351 43.00164795 266.7144165 C50.67187176 266.76156096 58.34199183 266.82312486 66.01213074 266.88226318 C77.64940253 266.97037882 89.2866554 267.04021275 100.92407227 267.11352539 C100.92407227 285.59352539 100.92407227 304.07352539 100.92407227 323.11352539 C72.94784591 323.31434373 72.94784591 323.31434373 59.00241375 323.36479473 C51.49835322 323.39236589 43.99457441 323.4272146 36.49072266 323.49072266 C29.90305027 323.54644948 23.31556761 323.5750424 16.72767067 323.58791161 C14.22855659 323.59706941 11.72945702 323.61494952 9.23047447 323.64217567 C-8.65730556 323.8291088 -26.00627081 322.86852301 -42.07592773 314.11352539 C-43.1497168 313.54891602 -44.22350586 312.98430664 -45.32983398 312.40258789 C-70.55618752 298.80220305 -85.78226526 278.02531979 -94.16577148 251.02758789 C-96.58217902 241.61795251 -96.23491234 231.76762014 -96.25292969 222.12719727 C-96.25920845 220.63770393 -96.26585646 219.14821211 -96.27284241 217.65872192 C-96.29371933 212.79991716 -96.30423019 207.94111267 -96.31420898 203.08227539 C-96.31826283 201.39805588 -96.32237992 199.71383652 -96.32655907 198.02961731 C-96.34557573 190.11134696 -96.3598134 182.19308571 -96.36817104 174.27479696 C-96.37792678 165.18636569 -96.40421764 156.09817902 -96.44467193 147.00983381 C-96.47499857 139.95038399 -96.4896555 132.89100365 -96.49295205 125.83149004 C-96.49528386 121.6312776 -96.50399687 117.43132747 -96.52941322 113.23118591 C-96.72152622 79.71915903 -92.43538963 52.17908709 -68.22827148 27.16430664 C-61.17261087 20.15677767 -52.98408023 14.50997034 -44.07592773 10.11352539 C-43.43010742 9.7796582 -42.78428711 9.44579102 -42.11889648 9.10180664 C-37.06970843 6.65927399 -31.8128429 5.02446574 -26.45092773 3.42602539 C-25.73420898 3.21139648 -25.01749023 2.99676758 -24.27905273 2.77563477 C-23.23104492 2.47302734 -23.23104492 2.47302734 -22.16186523 2.16430664 C-21.54359863 1.98552979 -20.92533203 1.80675293 -20.28833008 1.62255859 C-13.50780945 0.06248515 -6.92900647 -0.02437267 0 0 Z " fill="#00CB7C" transform="translate(269.075927734375,99.886474609375)"/>
<path d="M0 0 C1.64013313 -0.00021904 1.64013313 -0.00021904 3.31340027 -0.0004425 C6.91150934 0.00025168 10.50956603 0.00802096 14.10766602 0.01586914 C16.60872876 0.01773507 19.10979186 0.01915815 21.6108551 0.02015686 C27.51093115 0.0235791 33.410988 0.03145294 39.3110562 0.04150635 C47.87232083 0.0557757 56.43359187 0.06098805 64.99486542 0.06731415 C76.97128315 0.07699921 88.94765213 0.09616546 100.92407227 0.11352539 C100.92407227 18.59352539 100.92407227 37.07352539 100.92407227 56.11352539 C93.37661133 56.16250977 85.82915039 56.21149414 78.05297852 56.26196289 C73.2632518 56.29736041 68.47354284 56.33332687 63.68383789 56.37133789 C56.08628925 56.43157787 48.48876538 56.48974422 40.89111328 56.53540039 C34.76374433 56.57235328 28.63651193 56.61874049 22.50926018 56.6715889 C20.17500142 56.6900797 17.84071346 56.70520714 15.5064106 56.71686935 C12.22955555 56.73382275 8.95300963 56.76287989 5.67626953 56.79467773 C4.23803833 56.79791801 4.23803833 56.79791801 2.77075195 56.80122375 C-9.06976093 56.94739804 -20.24405634 59.63982978 -29.08764648 68.01977539 C-36.64468518 75.95396759 -39.68617444 84.06602608 -39.62182617 94.96948242 C-39.63216385 95.89753189 -39.64250153 96.82558136 -39.65315247 97.78175354 C-39.68236091 100.81179673 -39.68407497 103.84116558 -39.68530273 106.87133789 C-39.70029921 108.98698178 -39.71702942 111.10261403 -39.7354126 113.2182312 C-39.77893334 118.75834723 -39.79905134 124.29830535 -39.81414795 129.83856201 C-39.8337742 135.50322751 -39.87573795 141.16772386 -39.91577148 146.83227539 C-39.99090809 157.92597302 -40.04129967 169.01963249 -40.07592773 180.11352539 C-56.38995873 177.13826562 -71.2113807 160.85319233 -80.40258789 147.89355469 C-94.75781544 126.60230819 -99.62079291 101.0572648 -94.99291992 75.83642578 C-89.56736353 50.68383365 -74.45235617 29.27540923 -53.07592773 15.11352539 C-50.14228815 13.284702 -47.17511576 11.64306921 -44.07592773 10.11352539 C-43.43010742 9.7796582 -42.78428711 9.44579102 -42.11889648 9.10180664 C-37.06970843 6.65927399 -31.8128429 5.02446574 -26.45092773 3.42602539 C-25.73420898 3.21139648 -25.01749023 2.99676758 -24.27905273 2.77563477 C-23.23104492 2.47302734 -23.23104492 2.47302734 -22.16186523 2.16430664 C-21.54359863 1.98552979 -20.92533203 1.80675293 -20.28833008 1.62255859 C-13.50780945 0.06248515 -6.92900647 -0.02437267 0 0 Z " fill="#FCFDFD" transform="translate(269.075927734375,99.886474609375)"/>
<path d="M0 0 C1.899623 2.8494345 3.16230883 5.57197493 4.5625 8.6875 C8.89033397 17.39581799 15.77467705 23.71337701 25 27 C31.38435889 28.89830057 37.18171984 29.30422676 43.82226562 29.31884766 C44.87681946 29.32889328 45.93137329 29.3389389 47.0178833 29.34928894 C50.48066699 29.38001709 53.94337373 29.39712735 57.40625 29.4140625 C59.81620949 29.43278247 62.22616248 29.4523565 64.6361084 29.4727478 C70.96203779 29.52398728 77.28798841 29.56365689 83.61401367 29.60089111 C91.21332028 29.64803766 98.81252222 29.70960042 106.41174316 29.76873779 C117.94111967 29.85685021 129.47047712 29.92668643 141 30 C141 48.15 141 66.3 141 85 C113.19122553 85.12032643 113.19122553 85.12032643 101.2578125 85.14648438 C93.14284258 85.16435718 85.0279742 85.18494944 76.91308594 85.22631836 C70.364323 85.25968709 63.81562861 85.27689729 57.26678467 85.28463173 C54.77917757 85.29013755 52.29157589 85.30088809 49.80401611 85.31719017 C30.88230555 85.43616264 16.72324684 84.38468618 -1 77 C-0.67 51.59 -0.34 26.18 0 0 Z " fill="#FE7700" transform="translate(229,204)"/>
<path d="M0 0 C6.23342356 4.22726425 12.34996439 10.35772676 14.59765625 17.703125 C16.12006514 26.63064896 16.06123474 35.33667403 11 43.0625 C6.34795828 49.49935971 1.05235131 54.54292048 -7 56.0625 C-17.76954396 56.75217523 -25.23828149 56.35633306 -33.6875 49.5 C-40.08932303 43.36399661 -43.12685729 37.62014262 -43.58740234 28.7512207 C-43.71496861 21.11298335 -43.0319998 15.12899722 -38 9.0625 C-37.49210937 8.41925781 -36.98421875 7.77601562 -36.4609375 7.11328125 C-27.91149312 -2.55042721 -11.72186677 -5.85077579 0 0 Z " fill="#FD7700" transform="translate(130,96.9375)"/>
</svg>
