<?xml version="1.0" encoding="UTF-8"?>
<svg version="1.1" xmlns="http://www.w3.org/2000/svg" width="48" height="48">
<path d="M0 0 C4.88057714 4.52346174 7.219339 8.5234242 7.65234375 15.140625 C7.47246171 19.61421301 5.98939838 22.85182896 2.94140625 26.10546875 C-1.57414095 30.19373837 -4.86562859 31.51399913 -10.984375 31.47265625 C-11.82871094 31.46943359 -12.67304688 31.46621094 -13.54296875 31.46289062 C-14.85201172 31.45032227 -14.85201172 31.45032227 -16.1875 31.4375 C-17.51974609 31.43073242 -17.51974609 31.43073242 -18.87890625 31.42382812 C-21.06517329 31.412074 -23.25130179 31.39564249 -25.4375 31.375 C-25.06625 30.3025 -24.695 29.23 -24.3125 28.125 C-23.37257111 24.09673335 -23.43787925 23.6736941 -25.4375 20.375 C-26.10812244 15.28294823 -26.22870451 10.10450208 -23.875 5.4375 C-17.74711464 -2.26163802 -8.98274199 -4.24638712 0 0 Z " fill="#00CC7C" transform="translate(35.4375,8.625)"/>
</svg>
