<?xml version="1.0" encoding="UTF-8"?>
<svg version="1.1" xmlns="http://www.w3.org/2000/svg" width="48" height="48">
<path d="M0 0 C0.88365234 0.01804688 1.76730469 0.03609375 2.67773438 0.0546875 C4.84812543 0.10161487 7.01795519 0.17335269 9.1875 0.25 C8.81625 1.013125 8.445 1.77625 8.0625 2.5625 C7.629375 3.8928125 7.629375 3.8928125 7.1875 5.25 C7.8475 6.24 8.5075 7.23 9.1875 8.25 C10.5253977 13.15562489 10.07150258 16.53999356 8.1875 21.25 C5.9815375 23.78685688 4.19773556 25.74488222 1.1875 27.25 C0.53436542 28.49637472 -0.06262542 29.77262809 -0.625 31.0625 C-2.75197527 35.50763933 -5.378286 38.032893 -9.8125 40.25 C-11.4799606 40.33426094 -13.15075187 40.35725143 -14.8203125 40.34765625 C-15.80644531 40.34443359 -16.79257812 40.34121094 -17.80859375 40.33789062 C-18.84113281 40.32951172 -19.87367187 40.32113281 -20.9375 40.3125 C-22.49791016 40.30573242 -22.49791016 40.30573242 -24.08984375 40.29882812 C-26.66411962 40.28701952 -29.23828146 40.27055075 -31.8125 40.25 C-31.44125 39.3425 -31.07 38.435 -30.6875 37.5 C-29.49897338 34.41543596 -29.49897338 34.41543596 -30.6640625 32.2421875 C-31.04304688 31.58476563 -31.42203125 30.92734375 -31.8125 30.25 C-32.47321926 24.73376242 -32.54448334 19.8265795 -30.1875 14.75 C-26.8224073 11.20779716 -23.94315379 8.43527424 -18.9375 8 C-18.23625 8.0825 -17.535 8.165 -16.8125 8.25 C-16.4721875 7.38375 -16.4721875 7.38375 -16.125 6.5 C-12.14077396 -0.33010178 -7.16261826 -0.27774508 0 0 Z " fill="#FE7800" transform="translate(35.8125,3.75)"/>
<path d="M0 0 C0.87914063 0.02255859 1.75828125 0.04511719 2.6640625 0.06835938 C4.81845007 0.12690252 6.9719531 0.21657217 9.125 0.3125 C8.75375 1.075625 8.3825 1.83875 8 2.625 C7.566875 3.9553125 7.566875 3.9553125 7.125 5.3125 C8.115 6.7975 8.115 6.7975 9.125 8.3125 C10.4628977 13.21812489 10.00900258 16.60249356 8.125 21.3125 C3.09560858 27.09630014 3.09560858 27.09630014 -1.046875 27.55078125 C-6.84140433 27.71759346 -10.42741656 27.4346505 -14.875 23.3125 C-17.80447164 18.91829253 -18.35053221 15.54335429 -17.875 10.3125 C-16.91778432 6.29219415 -14.98685393 3.96804242 -11.78271484 1.36425781 C-8.08232317 -0.67583527 -4.11127712 -0.20122968 0 0 Z " fill="#022D2D" transform="translate(35.875,3.6875)"/>
</svg>
