<?xml version="1.0" encoding="UTF-8"?>
<svg version="1.1" xmlns="http://www.w3.org/2000/svg" width="48" height="48">
<path d="M0 0 C13.2 0 26.4 0 40 0 C40 9.9 40 19.8 40 30 C37.03 30 34.06 30 31 30 C24.19081933 30.16859586 24.19081933 30.16859586 18.0625 32.84765625 C15.9849718 34.99113692 15.9849718 34.99113692 14.375 37.28515625 C13.92125 37.85105469 13.4675 38.41695312 13 39 C12.01 39 11.02 39 10 39 C10 36.03 10 33.06 10 30 C6.7 30 3.4 30 0 30 C0 20.1 0 10.2 0 0 Z " fill="#00CC7C" transform="translate(4,8)"/>
</svg>
