<?xml version="1.0" encoding="UTF-8"?>
<svg version="1.1" xmlns="http://www.w3.org/2000/svg" width="48" height="48">
<path d="M0 0 C1.64142474 0.02843326 3.28228448 0.09315829 4.921875 0.17578125 C7.809375 0.27890625 10.696875 0.38203125 13.671875 0.48828125 C13.671875 8.07828125 13.671875 15.66828125 13.671875 23.48828125 C12.021875 24.14828125 10.371875 24.80828125 8.671875 25.48828125 C8.3169796 27.48456789 7.98608571 29.48518796 7.671875 31.48828125 C4.48467869 35.40397957 1.34922021 37.64680676 -3.328125 39.48828125 C-6.79702557 39.83901248 -10.22122579 39.77263865 -13.703125 39.67578125 C-14.62996094 39.66224609 -15.55679687 39.64871094 -16.51171875 39.63476562 C-18.78446498 39.59962006 -21.05598347 39.55042257 -23.328125 39.48828125 C-22.99167969 38.88242187 -22.65523437 38.2765625 -22.30859375 37.65234375 C-21.04145558 34.85555272 -21.48835139 33.38931736 -22.328125 30.48828125 C-22.658125 29.82828125 -22.988125 29.16828125 -23.328125 28.48828125 C-23.8519826 23.2325296 -23.99317872 18.8430203 -21.640625 14.05078125 C-18.4338387 10.49731535 -15.90519406 7.97105749 -11.265625 6.55078125 C-8.13389416 5.75803186 -8.13389416 5.75803186 -6.72265625 2.94140625 C-4.04611986 0.1993755 -3.623144 0.12456819 0 0 Z " fill="#FD7800" transform="translate(34.328125,-0.48828125)"/>
<path d="M0 0 C0.74362793 0.01047363 1.48725586 0.02094727 2.25341797 0.03173828 C3.46191406 0.04140625 3.46191406 0.04140625 4.69482422 0.05126953 C5.95746094 0.07640625 5.95746094 0.07640625 7.24560547 0.10205078 C8.51984375 0.11558594 8.51984375 0.11558594 9.81982422 0.12939453 C11.9202043 0.15299431 14.02043991 0.18886595 16.12060547 0.22705078 C16.20740367 4.01857412 16.26092754 7.80984374 16.30810547 11.60205078 C16.33324219 12.68228516 16.35837891 13.76251953 16.38427734 14.87548828 C16.39394531 15.90673828 16.40361328 16.93798828 16.41357422 18.00048828 C16.42928467 18.95358887 16.44499512 19.90668945 16.46118164 20.88867188 C16.3487915 21.66033691 16.23640137 22.43200195 16.12060547 23.22705078 C11.64668946 26.20966145 7.36517013 25.82728708 2.12060547 25.22705078 C-1.76863611 23.42133148 -3.39104484 21.95957532 -5.75439453 18.41455078 C-7.5234608 13.40219635 -7.54750813 9.83659719 -5.50439453 4.91455078 C-2.732403 0.33010325 -2.732403 0.33010325 0 0 Z " fill="#022D2D" transform="translate(31.87939453125,-0.22705078125)"/>
</svg>
